<?xml version="1.0" encoding="utf-8"?>
<!-- Generator: Adobe Illustrator 25.1.0, SVG Export Plug-In . SVG Version: 6.00 Build 0)  -->
<svg version="1.1" xmlns="http://www.w3.org/2000/svg" xmlns:xlink="http://www.w3.org/1999/xlink" x="0px" y="0px"
	 viewBox="0 0 235 192" style="enable-background:new 0 0 235 192;" xml:space="preserve">
<style type="text/css">
	.st0{fill:#F1921A;}
	.st1{fill:#5E2A00;}
	.st2{fill:none;stroke:#000000;stroke-width:6;stroke-miterlimit:10;}
	.st3{fill:none;stroke:#5E2A00;stroke-miterlimit:10;}
	.st4{fill:none;stroke:#5E2A00;stroke-width:2;stroke-miterlimit:10;}
	.st5{fill:#FFFFFF;stroke:#F1921A;stroke-miterlimit:10;}
	.st6{fill:#F1921A;stroke:#FFFFFF;stroke-miterlimit:10;}
	.st7{fill:none;stroke:#F1921A;stroke-miterlimit:10;}
	.st8{fill:none;stroke:#F1921A;stroke-width:2;stroke-miterlimit:10;}
	.st9{fill:#F1921A;stroke:#F1921A;stroke-width:2;stroke-miterlimit:10;}
	.st10{fill:#FEFEFE;}
</style>
<g id="Layer_1">
</g>
<g id="Layer_2">
	<path class="st0" d="M76.47,91.87c1.51-4.27,4.63-6.72,9.01-7.3c3.6-0.48,7.25-0.57,10.89-0.72c3.55-0.15,7.1-0.16,10.66-0.24
		c0.35-0.01,0.7-0.03,1.14-0.05c-0.15-1.11-0.35-2.14-0.42-3.19c-0.28-3.84-0.54-7.69,0.44-11.48c1.07-4.13,3.05-7.74,6.2-10.66
		c1.78-1.65,3.85-2.72,6.22-3.23c0.65,0,1.3,0,1.96,0c0.53,0.16,1.07,0.3,1.59,0.47c3.51,1.18,5.78,4.35,5.85,8.18
		c0.07,3.68,0.74,7.23,2.23,10.61c2.05,4.66,5.44,8.02,9.97,10.31c1.36,0.69,2.45,1.13,3.86,0c1.13-0.91,2.65-1.12,4.13-1.11
		c2.64,0.01,5.27,0,7.91,0c4.55,0.01,7.81,2.67,8.74,7.14c0.02,0.11,0.1,0.2,0.16,0.31c0,15.88,0,31.76,0,47.63
		c-0.1,0.33-0.19,0.67-0.29,1c-0.99,3.42-3.21,5.52-6.69,6.28c-0.17,0.04-0.32,0.12-0.48,0.18c-3.55,0-7.11,0-10.66,0
		c-0.31-0.09-0.61-0.19-0.92-0.27c-2.29-0.61-4.03-1.96-5.2-4c-0.32-0.56-0.63-0.62-1.19-0.49c-5.3,1.21-10.58,2.49-15.91,3.54
		c-2.86,0.56-5.8,0.71-8.71,1.04c-0.38,0.04-0.75,0.12-1.13,0.18c-6.64,0-13.27,0-19.91,0c-0.86-0.19-1.74-0.33-2.59-0.57
		c-4.97-1.41-8.47-6.98-7.57-12.08c0.11-0.65,0.01-1.07-0.55-1.5c-0.61-0.45-1.18-1.02-1.59-1.66c-2.42-3.81-3.83-7.84-2.57-12.44
		c0.07-0.27-0.15-0.69-0.36-0.95c-2.77-3.43-3.97-7.28-3.05-11.66c0.17-0.83,0.83-1.64,0.76-2.41c-0.07-0.73-0.95-1.35-1.22-2.11
		c-0.49-1.37-0.79-2.82-1.16-4.23c0-0.95,0-1.9,0-2.84C76.16,93,76.28,92.42,76.47,91.87z M111.8,89.11
		c-7.49,0.11-14.98,0.2-22.47,0.39c-1.46,0.04-2.94,0.35-4.36,0.72c-2.14,0.56-3.29,2.19-3.3,4.39c0,0.3,0,0.59,0.01,0.89
		c0.09,3.34,1.63,4.92,5,5.01c2.07,0.06,4.15,0.01,6.22,0.03c0.93,0.01,1.54,0.56,1.57,1.35c0.03,0.82-0.61,1.41-1.57,1.44
		c-0.18,0.01-0.36,0-0.53,0c-1.6,0-3.2-0.01-4.8,0c-3.27,0.02-5.16,2.32-4.52,5.51c0.14,0.72,0.32,1.45,0.58,2.13
		c0.95,2.49,2.78,3.75,5.44,3.77c2.16,0.01,4.32,0,6.49,0.01c1.11,0,1.78,0.56,1.75,1.43c-0.02,0.84-0.67,1.36-1.74,1.36
		c-1.75,0.01-3.49-0.01-5.24,0.01c-0.47,0-0.95,0.04-1.41,0.13c-1.99,0.42-3.05,1.8-2.69,3.8c0.26,1.47,0.68,2.94,1.25,4.32
		c1.02,2.46,3.26,3.01,5.63,3.12c1.74,0.09,3.49,0.02,5.24,0.03c1.16,0,1.79,0.48,1.81,1.37c0.02,0.92-0.63,1.43-1.84,1.43
		c-1.3,0-2.61-0.01-3.91,0c-2.35,0.02-3.68,1.81-3.03,4.08c0.93,3.28,2.5,4.48,5.9,4.49c5.42,0.01,10.84,0.04,16.26-0.01
		c6.25-0.05,12.37-1.08,18.42-2.56c3.3-0.81,6.61-1.58,9.91-2.41c1.83-0.46,2.41-1.24,2.41-3.08c0-12.74,0.01-25.47,0.01-38.21
		c0-2.03-0.6-2.82-2.51-3.59c-8.6-3.47-14.04-9.76-16.28-18.72c-0.65-2.59-0.87-5.31-1.08-7.98c-0.21-2.59-2.29-3.98-4.5-2.62
		c-1.3,0.8-2.49,1.93-3.43,3.14c-2.25,2.89-3.23,6.26-3.34,9.92c-0.14,4.68,0.57,9.2,2.21,13.58c0.14,0.38,0.25,0.78,0.41,1.29
		C114.34,89.1,113.07,89.09,111.8,89.11z M161.33,92.43c0-2.24-1.08-3.32-3.31-3.33c-2.61,0-5.21-0.01-7.82,0
		c-1.99,0-3.14,1.15-3.14,3.14c0,14.98,0,29.96,0,44.94c0,2,1.15,3.14,3.13,3.15c2.66,0.01,5.33,0.01,7.99,0
		c1.99,0,3.13-1.15,3.13-3.14c0-7.49,0-14.98,0-22.47C161.33,107.29,161.34,99.86,161.33,92.43z"/>
</g>
</svg>
