<?xml version="1.0" encoding="utf-8"?>
<!-- Generator: Adobe Illustrator 25.1.0, SVG Export Plug-In . SVG Version: 6.00 Build 0)  -->
<svg version="1.1" xmlns="http://www.w3.org/2000/svg" xmlns:xlink="http://www.w3.org/1999/xlink" x="0px" y="0px"
	 viewBox="0 0 113 112" style="enable-background:new 0 0 113 112;" xml:space="preserve">
<style type="text/css">
	.st0{fill:#F1921A;}
	.st1{fill:#5E2A00;}
	.st2{fill:none;stroke:#000000;stroke-width:6;stroke-miterlimit:10;}
	.st3{fill:none;stroke:#5E2A00;stroke-miterlimit:10;}
	.st4{fill:none;stroke:#5E2A00;stroke-width:2;stroke-miterlimit:10;}
	.st5{fill:#FFFFFF;stroke:#F1921A;stroke-miterlimit:10;}
	.st6{fill:#F1921A;stroke:#FFFFFF;stroke-miterlimit:10;}
	.st7{fill:none;stroke:#F1921A;stroke-miterlimit:10;}
	.st8{fill:none;stroke:#F1921A;stroke-width:2;stroke-miterlimit:10;}
	.st9{fill:#F1921A;stroke:#F1921A;stroke-width:2;stroke-miterlimit:10;}
	.st10{fill:#FEFEFE;}
</style>
<g id="Layer_1">
	<g>
		<path class="st1" d="M57.42,36.5c1.01,0,2.02,0,3.03,0c0.04,0.09,0.12,0.07,0.19,0.07c0.7,0.06,1.39,0.17,2.08,0.3
			c7.52,1.44,13.66,7.73,14.9,15.29c0.1,0.63,0.19,1.25,0.29,1.88c0,0.99,0,1.97,0,2.96c-0.11,0.06-0.07,0.17-0.08,0.26
			c-0.12,1.15-0.3,2.3-0.66,3.41c-2.34,7.3-7.27,11.77-14.76,13.4c-0.18,0.04-0.5,0.28-0.5-0.24c0.01-4.19,0.01-8.39,0-12.58
			c0-0.25,0.06-0.34,0.32-0.33c1.26,0.01,2.52,0,3.77,0.01c0.24,0,0.34-0.04,0.38-0.3c0.24-1.65,0.5-3.29,0.76-4.93
			c0.03-0.21-0.03-0.25-0.22-0.25c-0.33,0.01-0.67,0-1,0c-1.23,0-2.47,0-3.7,0c-0.13,0-0.31,0.07-0.31-0.19
			c0.03-1.31-0.09-2.62,0.06-3.92c0.15-1.35,0.97-2.15,2.32-2.34c0.91-0.13,1.82-0.05,2.73-0.06c0.28,0,0.38-0.05,0.38-0.36
			c-0.02-1.33-0.01-2.66,0-4c0-0.24-0.06-0.34-0.31-0.38c-1.44-0.19-2.89-0.36-4.35-0.3c-1.94,0.08-3.69,0.65-5.02,2.15
			c-1.24,1.39-1.68,3.07-1.71,4.88c-0.03,1.38-0.01,2.76,0,4.14c0,0.28-0.06,0.38-0.36,0.37c-1.37-0.02-2.74,0-4.11-0.01
			c-0.26,0-0.36,0.05-0.36,0.34c0.02,1.6,0.02,3.21,0,4.81c0,0.29,0.09,0.34,0.36,0.34c1.38-0.01,2.76,0,4.14-0.01
			c0.26,0,0.33,0.08,0.32,0.33c-0.01,4.19-0.01,8.39,0,12.58c0,0.25-0.03,0.37-0.32,0.28c-0.28-0.08-0.58-0.11-0.87-0.17
			c-7.56-1.64-13.5-8.03-14.6-15.68c-0.06-0.42-0.03-0.85-0.2-1.25c0-1.06,0-2.12,0-3.18c0.19-0.45,0.16-0.93,0.23-1.4
			c1.36-8.36,8.08-14.78,16.53-15.8C57,36.6,57.24,36.65,57.42,36.5z"/>
	</g>
</g>
<g id="Layer_2">
</g>
</svg>
