<?xml version="1.0" encoding="utf-8"?>
<!-- Generator: Adobe Illustrator 25.1.0, SVG Export Plug-In . SVG Version: 6.00 Build 0)  -->
<svg version="1.1" xmlns="http://www.w3.org/2000/svg" xmlns:xlink="http://www.w3.org/1999/xlink" x="0px" y="0px"
	 viewBox="0 0 163 163" style="enable-background:new 0 0 163 163;" xml:space="preserve">
<style type="text/css">
	.st0{fill:#F1921A;}
	.st1{fill:#5E2A00;}
	.st2{fill:none;stroke:#000000;stroke-width:6;stroke-miterlimit:10;}
	.st3{fill:none;stroke:#5E2A00;stroke-miterlimit:10;}
	.st4{fill:none;stroke:#5E2A00;stroke-width:2;stroke-miterlimit:10;}
	.st5{fill:#FFFFFF;stroke:#F1921A;stroke-miterlimit:10;}
	.st6{fill:#F1921A;stroke:#FFFFFF;stroke-miterlimit:10;}
	.st7{fill:none;stroke:#F1921A;stroke-miterlimit:10;}
	.st8{fill:none;stroke:#F1921A;stroke-width:2;stroke-miterlimit:10;}
	.st9{fill:#F1921A;stroke:#F1921A;stroke-width:2;stroke-miterlimit:10;}
	.st10{fill:#FEFEFE;}
</style>
<g id="Layer_1">
	<g>
		<path class="st9" d="M76.06,76.31c3.46-1.07,6.9-1.41,10.41-1.28c10.54,0.42,18.69,8.3,19.48,18.83
			c0.63,8.4-2.02,15.86-6.68,22.65c-5.94,8.66-13.8,14.9-23.98,17.9c-6.1,1.8-12.21,1.95-18.18-0.65c-3.64-1.58-6.48-4.09-8.6-7.44
			c-0.21-0.34-0.55-0.73-0.9-0.83c-6.33-1.8-11.03-5.79-14.68-11.09c-5.5-7.99-7.68-16.91-7.09-26.55
			c0.49-7.98,2.98-15.27,7.75-21.72c3.27-4.42,7.31-7.93,12.59-9.76c6.04-2.09,11.7-0.99,16.93,2.47c6,3.97,9.83,9.65,12.46,16.23
			C75.71,75.47,75.86,75.83,76.06,76.31z M67.51,132.12c1.14-0.16,3.05-0.31,4.9-0.73c7.88-1.76,14.36-5.95,19.78-11.81
			c5.82-6.29,9.71-13.53,10.2-22.27c0.28-5.03-0.9-9.67-4.44-13.44c-4.31-4.59-9.83-5.71-15.83-5.11
			c-5.65,0.57-10.78,2.68-15.39,5.91c-9.47,6.63-15.98,15.27-17.57,27.03c-0.63,4.64,0.1,9.12,2.74,13.09
			C55.4,130.09,60.65,131.99,67.51,132.12z M72.6,77.48c-2.66-6.9-6.49-12.73-13-16.41c-4.98-2.81-10.02-2.73-15.03,0.02
			c-3.23,1.78-5.93,4.19-8.01,7.2c-8.46,12.28-9.47,25.31-3.49,38.86c2.42,5.5,6.14,10.04,11.42,13.13c0.52,0.3,1.07,0.54,1.78,0.89
			c-1.21-4.63-1.19-9.04-0.15-13.44c2.32-9.85,7.87-17.62,15.64-23.91C65.01,81.18,68.59,79.11,72.6,77.48z"/>
		<path class="st9" d="M56.66,123.27c0.05-8.49,4.44-14.01,12-17.21c2.45-1.04,5.05-1.74,7.62-2.46c4.03-1.13,7.89-2.59,11.17-5.27
			c3.22-2.63,5.32-5.88,5.54-10.16c0.07-1.25,0.81-1.93,1.89-1.87c1.09,0.05,1.78,0.89,1.72,2.17c-0.2,4.21-1.98,7.73-4.85,10.73
			c-3.92,4.1-8.87,6.37-14.25,7.81c-3.17,0.85-6.33,1.68-9.25,3.23c-5.17,2.74-7.85,7-7.95,12.86c-0.01,0.47,0.01,0.94-0.02,1.41
			c-0.07,1.04-0.85,1.78-1.82,1.77c-0.97-0.01-1.73-0.76-1.79-1.81C56.64,124.07,56.66,123.67,56.66,123.27z"/>
		<path class="st9" d="M45.54,75.71c0.17-4.5,1.72-8.47,4.07-12.18c0.62-0.98,1.65-1.18,2.52-0.63c0.86,0.53,1.11,1.55,0.54,2.54
			c-1.35,2.36-2.59,4.79-3.04,7.49c-0.8,4.84,0.3,9.36,2.69,13.59c0.11,0.2,0.26,0.39,0.37,0.6c0.51,0.94,0.3,1.94-0.5,2.48
			c-0.86,0.58-1.91,0.39-2.54-0.54c-1.43-2.09-2.47-4.38-3.02-6.84C46.16,80.07,45.9,77.88,45.54,75.71z"/>
		<path class="st9" d="M87.74,65.37c-5.97-6.04-6.77-13.04-3.69-20.65c1-2.47,2.34-4.8,3.65-7.13c2.05-3.65,3.74-7.41,4.17-11.62
			c0.42-4.14-0.4-7.92-3.27-11.11c-0.84-0.93-0.79-1.94,0.02-2.66c0.81-0.73,1.89-0.63,2.75,0.32c2.84,3.12,4.07,6.87,4.16,11.02
			c0.13,5.67-1.77,10.78-4.56,15.6c-1.64,2.84-3.29,5.67-4.26,8.83c-1.72,5.59-0.6,10.5,3.48,14.72c0.33,0.34,0.67,0.66,0.98,1.01
			c0.68,0.78,0.66,1.86-0.03,2.54c-0.69,0.68-1.76,0.68-2.54-0.01C88.29,65.95,88.02,65.65,87.74,65.37z"/>
		<path class="st9" d="M71.85,33.66c-3.71-3.75-4.21-8.11-2.29-12.84c0.62-1.53,1.46-2.99,2.27-4.43c1.27-2.27,2.33-4.61,2.59-7.23
			c0.26-2.57-0.25-4.93-2.03-6.91c-0.52-0.58-0.49-1.21,0.01-1.66c0.5-0.45,1.17-0.39,1.71,0.2c1.77,1.94,2.53,4.27,2.59,6.85
			c0.08,3.53-1.1,6.7-2.83,9.7c-1.02,1.77-2.04,3.52-2.65,5.49c-1.07,3.48-0.38,6.53,2.16,9.15c0.2,0.21,0.42,0.41,0.61,0.63
			c0.42,0.49,0.41,1.16-0.02,1.58c-0.43,0.42-1.1,0.42-1.58-0.01C72.2,34.02,72.03,33.83,71.85,33.66z"/>
		<path class="st9" d="M50.96,50.24c-4.31-4.35-4.88-9.41-2.66-14.89c0.72-1.78,1.69-3.46,2.63-5.14c1.48-2.63,2.7-5.34,3.01-8.38
			c0.3-2.98-0.29-5.71-2.36-8.01c-0.6-0.67-0.57-1.4,0.01-1.92c0.58-0.53,1.36-0.45,1.98,0.23c2.05,2.25,2.93,4.95,3,7.95
			c0.09,4.09-1.27,7.77-3.29,11.25c-1.19,2.05-2.37,4.09-3.07,6.37c-1.24,4.03-0.44,7.57,2.51,10.61c0.24,0.24,0.48,0.47,0.7,0.73
			c0.49,0.56,0.48,1.34-0.02,1.83c-0.5,0.49-1.27,0.49-1.83-0.01C51.36,50.66,51.16,50.45,50.96,50.24z"/>
	</g>
</g>
<g id="Layer_2">
</g>
</svg>
