<?xml version="1.0" encoding="utf-8"?>
<!-- Generator: Adobe Illustrator 25.1.0, SVG Export Plug-In . SVG Version: 6.00 Build 0)  -->
<svg version="1.1" xmlns="http://www.w3.org/2000/svg" xmlns:xlink="http://www.w3.org/1999/xlink" x="0px" y="0px"
	 viewBox="0 0 357 177" style="enable-background:new 0 0 357 177;" xml:space="preserve">
<style type="text/css">
	.st0{fill:#F1921A;}
	.st1{fill:#5E2A00;}
	.st2{fill:none;stroke:#000000;stroke-width:6;stroke-miterlimit:10;}
	.st3{fill:none;stroke:#5E2A00;stroke-miterlimit:10;}
	.st4{fill:none;stroke:#5E2A00;stroke-width:2;stroke-miterlimit:10;}
	.st5{fill:#FFFFFF;stroke:#F1921A;stroke-miterlimit:10;}
	.st6{fill:#F1921A;stroke:#FFFFFF;stroke-miterlimit:10;}
	.st7{fill:none;stroke:#F1921A;stroke-miterlimit:10;}
	.st8{fill:none;stroke:#F1921A;stroke-width:2;stroke-miterlimit:10;}
	.st9{fill:#F1921A;stroke:#F1921A;stroke-width:2;stroke-miterlimit:10;}
	.st10{fill:#FEFEFE;}
</style>
<g id="Layer_1">
</g>
<g id="Layer_2">
	<g>
		<path class="st0" d="M28.28,35.81c0.09-0.12,0.19-0.24,0.27-0.37c0.55-0.77,1.24-1.02,2.22-0.91c1.11,0.12,2.08,0.39,2.79,1.28
			c0.85,1.04,1.92,1.28,3.19,0.99c0.64-0.14,1.29-0.23,1.94-0.27c0.72-0.04,1.43,0.02,2.11,0.3c0.6,0.25,1.25,0.27,1.88,0.34
			c0.82,0.09,1.37,0.55,1.74,1.26c0.08,0.15,0.16,0.3,0.22,0.47c0.48,1.51,1.53,2.39,3.02,2.84c0.86,0.26,1.02,0.61,0.74,1.48
			C48,44.42,48,44.42,49.07,45.1c0.75,0.47,1.47,1,2.17,1.54c1.34,1.05,2.73,2.02,4.24,2.81c0.36,0.19,0.69,0.43,1.02,0.65
			c0.49,0.33,0.8,0.77,0.93,1.35c0.06,0.27,0.16,0.54,0.23,0.81c0.14,0.52,0.43,0.89,0.94,1.08c0.89,0.33,1.47,0.91,1.77,1.84
			c0.28,0.88,0.99,1.5,1.65,2.11c0.16,0.15,0.33,0.28,0.5,0.42c0.62,0.5,1.31,0.95,1.56,1.79c0.07-0.52-0.07-1-0.13-1.48
			c-0.05-0.39-0.21-0.85,0.21-1.12c0.4-0.26,0.82-0.09,1.19,0.13c0.78,0.47,1.32,1.12,1.48,2.05c0.2,1.16,0.62,1.57,1.78,1.78
			c0.35,0.06,0.71,0.12,1.05,0.21c0.84,0.22,1.33,0.77,1.44,1.64c0.04,0.28,0.09,0.56,0.09,0.83c0.01,0.88,0.45,1.49,1.15,1.97
			c0.85,0.58,1.78,0.95,2.76,1.23c0.42,0.12,0.84,0.24,1.24,0.41c0.54,0.24,0.65,0.63,0.34,1.14c-0.14,0.22-0.32,0.42-0.49,0.62
			c-0.17,0.2-0.35,0.39-0.52,0.59c0.55-0.05,1.12-0.09,1.67-0.25c0.62-0.18,0.76-0.44,0.63-1.07c-0.04-0.2-0.18-0.44,0.03-0.62
			c0.23-0.19,0.45-0.02,0.64,0.09c0.61,0.34,1.27,0.58,1.91,0.87c0.67,0.3,1.12,0.76,1.15,1.56c0.03,0.82-0.38,1.35-1.07,1.71
			c-0.29,0.15-0.59,0.28-0.97,0.47c0.2,0.18,0.37,0.33,0.53,0.48c0.2,0.2,0.37,0.43,0.47,0.69c0.18,0.49-0.03,0.84-0.56,0.87
			c-0.39,0.02-0.78-0.01-1.17,0.01c-0.48,0.03-0.59,0.21-0.37,0.63c0.32,0.63,0.74,1.19,1.22,1.71c0.21,0.23,0.51,0.28,0.8,0.36
			c0.89,0.23,1.8,0.38,2.7,0.55c1.3,0.24,2.11,1.16,2.82,2.15c0.44,0.61,0.26,1.38-0.35,1.87c-0.25,0.2-0.23,0.37-0.09,0.59
			c0.36,0.59,0.85,1.08,1.27,1.62c0.28,0.36,0.57,0.7,0.83,1.07c0.52,0.73,0.55,1.47,0.01,2.21c-0.06,0.09-0.12,0.18-0.2,0.3
			c0.52,0.19,1,0.12,1.41-0.14c0.85-0.52,1.71-0.45,2.61-0.22c0.55,0.14,0.95,0.45,1.08,0.99c0.25,1.02,0.9,1.76,1.63,2.44
			c0.5,0.47,1.02,0.92,1.48,1.43c0.68,0.74,0.53,1.33-0.39,1.75c-0.37,0.17-0.75,0.29-1.12,0.47c-0.48,0.23-0.53,0.45-0.21,0.87
			c0.3,0.39,0.64,0.76,0.93,1.17c0.36,0.51,0.35,0.76-0.03,1.25c-0.24,0.32-0.26,0.69-0.28,1.06c-0.03,0.84,0.17,1.67,0.18,2.51
			c0.01,0.51,0.01,1.03-0.07,1.54c-0.06,0.38-0.17,0.72-0.46,1c-0.36,0.35-0.43,0.75-0.15,1.18c0.61,0.94,0.42,1.84-0.18,2.69
			c-0.42,0.6-0.88,1.17-1.48,1.61c-0.16,0.12-0.33,0.26-0.55,0.16c-0.24-0.11-0.19-0.33-0.2-0.53c-0.03-0.36-0.05-0.71-0.1-1.07
			c-0.06-0.43-0.25-0.74-0.68-0.92c-0.31-0.13-0.38-0.03-0.4,0.25c-0.01,0.28,0,0.56-0.08,0.83c-0.19,0.62-0.6,0.74-1.08,0.29
			c-0.51-0.48-1-0.99-1.5-1.47c-0.17-0.17-0.36-0.34-0.61-0.43c-0.1,0.41,0.04,0.77,0.06,1.14c0.08,1.26-0.45,1.7-1.69,1.37
			c-0.32-0.08-0.61-0.24-0.88-0.43c-0.88-0.62-1.69-1.32-2.34-2.19c-1.27-1.68-2.95-2.9-4.66-4.08c-2.12-1.46-3.97-3.21-5.61-5.19
			c-0.09-0.11-0.18-0.22-0.25-0.34c-1.66-2.69-3.88-4.9-6.11-7.09c-0.32-0.32-0.63-0.65-0.95-0.97c-1.19-1.16-1.73-2.57-1.84-4.21
			c-0.13-2.02-0.77-3.9-1.88-5.6c-0.08-0.12-0.16-0.23-0.22-0.36c-1.11-2.22-2.82-4.02-4.31-5.98c-0.36-0.48-0.82-0.84-1.32-1.17
			c-0.75-0.48-1.48-0.98-2.22-1.47c-0.57-0.38-0.92-0.89-1.09-1.57c-0.6-2.44-1.38-4.84-1.77-7.34c-0.03-0.18-0.09-0.36-0.13-0.54
			c-0.28-1.15-0.97-1.87-2.14-2.15c-0.8-0.19-1.61-0.36-2.42-0.52c-0.68-0.13-1.16-0.44-1.38-1.14c-0.18-0.58-0.47-1.12-0.7-1.68
			c-0.16-0.37-0.42-0.59-0.81-0.7c-0.69-0.19-0.84-0.38-0.81-1.1c0.02-0.66-0.18-1.22-0.61-1.71c-0.39-0.44-0.6-0.98-0.82-1.51
			c-0.21-0.5-0.55-0.85-1.04-1.07c-0.89-0.4-1.77-0.83-2.66-1.25c-0.43-0.2-0.8-0.47-1.13-0.81c-0.95-0.95-1.9-1.89-2.75-2.93
			c-0.35-0.42-0.74-0.8-1.15-1.16c-0.77-0.67-1.32-1.5-1.63-2.47c-0.29-0.92-0.71-1.75-1.27-2.53c-0.19-0.28-0.34-0.59-0.51-0.88
			C28.28,36.24,28.28,36.02,28.28,35.81z"/>
		<path class="st0" d="M202.55,137.23c-0.11-0.05-0.22-0.1-0.34-0.14c-0.87-0.3-1.16-0.78-0.94-1.68c0.08-0.32,0.2-0.62,0.33-0.92
			c0.27-0.66,0.26-1.29-0.05-1.94c-0.4-0.83-0.27-1.17,0.6-1.51c0.83-0.33,1.63-0.69,2.39-1.16c0.84-0.53,1.82-0.59,2.77-0.78
			c0.15-0.03,0.3-0.07,0.46-0.09c1.05-0.17,1.83-0.62,2.1-1.75c0.22-0.92,0.74-1.42,1.8-1.3c0.67,0.08,1.36-0.08,2.02-0.31
			c0.53-0.18,1.09-0.15,1.66-0.13c2.01,0.06,4.02,0.17,6.03,0.03c0.19-0.01,0.37-0.05,0.55-0.08c0.12-0.02,0.19-0.08,0.15-0.23
			c-0.13-0.44,0.12-0.67,0.47-0.84c0.38-0.2,0.76-0.3,1.13,0.01c0.27,0.22,0.58,0.36,0.89,0.5c0.46,0.2,0.54,0.53,0.25,0.94
			c-0.29,0.41-0.7,0.71-1.09,1.02c-0.32,0.25-0.63,0.51-0.97,0.73c-0.78,0.5-1.38,1.2-2.08,1.79c-0.24,0.2-0.5,0.37-0.76,0.54
			c-0.52,0.35-1.07,0.4-1.63,0.09c-0.58-0.31-1.21-0.48-1.85-0.62c-0.32-0.07-0.57-0.03-0.86,0.18c-0.76,0.55-1.68,0.72-2.57,0.91
			c-0.38,0.08-0.65,0.24-0.94,0.52c-1.15,1.13-2.02,2.5-3.14,3.65c-0.67,0.68-1.49,1.12-2.37,1.44c-0.45,0.17-0.89,0.07-1.33-0.05
			c-0.21-0.05-0.39-0.04-0.57,0.09c-0.5,0.37-1,0.72-1.51,1.08C202.92,137.23,202.74,137.23,202.55,137.23z"/>
		<path class="st0" d="M164.57,50.9c0.5,0.45,1.02,0.7,1.52,0.98c0.38,0.21,0.78,0.4,1.16,0.6c0.27,0.15,0.35,0.36,0.22,0.66
			c-0.11,0.24-0.2,0.49-0.25,0.75c-0.12,0.61,0,1.13,0.56,1.51c1.03,0.7,1.28,1.66,0.94,2.83c-0.12,0.4-0.2,0.82-0.34,1.21
			c-0.21,0.6-0.01,1.06,0.43,1.46c0.57,0.52,1.24,0.89,1.91,1.24c0.55,0.29,1.11,0.57,1.67,0.83c1.25,0.57,2.07,1.58,2.77,2.7
			c0.42,0.66,0.16,1.04-0.62,1.09c-1.85,0.12-3.67-0.07-5.47-0.47c-0.52-0.12-0.91,0.03-1.19,0.5c-0.46,0.76-0.88,1.54-1.25,2.34
			c-0.28,0.6-0.13,1.26-0.26,1.89c-0.22,1.04-0.38,2.07-0.17,3.14c0.09,0.48-0.12,0.88-0.57,1.13c-0.18,0.1-0.36,0.18-0.53,0.3
			c-0.78,0.56-1.37,1.23-1.29,2.28c0.1,1.28-0.48,2.14-1.67,2.54c-1.2,0.41-2.13,1.12-2.84,2.17c-0.24,0.36-0.58,0.65-0.88,0.97
			c-0.21,0.22-0.22,0.37,0.09,0.51c0.73,0.33,1.22,0.89,1.52,1.63c0.26,0.63,0.19,0.95-0.32,1.4c-0.12,0.1-0.26,0.2-0.29,0.36
			c-0.17,1.01-0.74,1.91-0.77,2.97c-0.01,0.55-0.32,0.79-0.88,0.83c-0.02,0-0.03,0-0.05,0c-1.17,0.07-1.17,0.07-1.21,1.21
			c-0.01,0.34-0.11,0.65-0.32,0.91c-0.96,1.2-2.11,2.19-3.56,2.72c-0.81,0.3-1.6,0.51-2.32,1.07c-0.77,0.61-1.82,0.69-2.8,0.8
			c-0.61,0.07-0.86-0.28-0.68-0.87c0.17-0.6,0.5-1.14,0.61-1.76c0.14-0.77-0.51-1.56-1.31-1.56c-0.19,0-0.37,0.03-0.56,0.05
			c-0.3,0.03-0.65,0.03-0.84-0.19c-0.63-0.71-1.27-0.4-1.89-0.05c-0.97,0.54-1.64,0.24-1.79-0.84c-0.03-0.2-0.12-0.22-0.28-0.2
			c-0.36,0.06-0.68,0.22-0.95,0.47c-0.33,0.3-0.58,0.21-0.81-0.12c-0.27-0.38-0.53-0.77-0.82-1.14c-0.14-0.19-0.28-0.52-0.53-0.44
			c-0.19,0.06-0.15,0.41-0.16,0.64c-0.01,0.25,0,0.5-0.02,0.75c-0.04,0.64-0.14,0.78-0.75,0.87c-1.21,0.18-2.42,0.26-3.62-0.03
			c-0.3-0.07-0.62-0.15-0.88,0.12c-0.42,0.44-0.8,0.44-1.39,0.17c-0.85-0.39-1.13-1-1.21-1.82c-0.01-0.06,0-0.13-0.02-0.19
			c-0.06-0.32-0.12-0.64-0.2-0.96c-0.06-0.23-0.23-0.34-0.46-0.2c-0.94,0.58-1.95,0.51-2.99,0.42c-0.82-0.07-1.65-0.03-2.48-0.06
			c-0.38-0.01-0.78,0.03-0.93-0.49c-0.06-0.19-0.29-0.31-0.55-0.16c-0.45,0.26-0.82,0.08-1.12-0.27c-0.4-0.46-0.64-1.01-0.6-1.62
			c0.08-1.57-0.28-3.06-0.81-4.52c-0.3-0.81-0.45-1.57,0.09-2.35c0.25-0.36,0.15-0.79,0.05-1.18c-0.14-0.53-0.37-1.02-0.63-1.5
			c-0.2-0.37-0.44-0.38-0.76-0.2c-0.62,0.35-1.14,0.8-1.66,1.28c-0.49,0.45-0.73,0.38-0.88-0.26c-0.13-0.59-0.24-1.19-0.36-1.78
			c-0.15-0.72-0.46-1.35-0.96-1.89c-0.25-0.27-0.51-0.55-0.71-0.86c-0.45-0.68-0.4-1.3,0.1-1.94c0.05-0.06,0.1-0.12,0.15-0.18
			c0.85-0.97,0.78-2.01-0.18-2.92c-0.11-0.11-0.23-0.22-0.37-0.29c-0.92-0.43-1.13-1.18-1.16-2.14c-0.04-1.44,0.23-2.74,1.04-3.94
			c0.26-0.39,0.43-0.82,0.45-1.31c0.03-0.51,0.33-0.89,0.68-1.24c0.66-0.66,1.43-1.2,1.99-1.97c0.11-0.16,0.31-0.2,0.49-0.26
			c0.29-0.09,0.46,0.01,0.44,0.33c-0.01,0.44,0.03,0.87,0.1,1.3c0.09,0.57,0.31,1.06,0.75,1.46c0.65,0.61,1.37,1.13,2.08,1.67
			c0.46,0.35,0.92,0.69,1.35,1.08c0.52,0.47,0.83,0.5,1.43,0.18c0.42-0.23,0.86-0.34,1.34-0.37c0.76-0.04,1.53-0.07,2.07-0.76
			c0.15-0.19,0.42-0.16,0.66-0.12c0.97,0.17,1.87,0.57,2.82,0.82c0.78,0.2,1.44,0.05,2.04-0.46c0.55-0.47,0.97-1.05,1.35-1.66
			c0.16-0.25,0.29-0.52,0.46-0.76c0.41-0.61,0.91-0.75,1.52-0.35c0.65,0.43,1.25,0.93,1.86,1.41c0.28,0.22,0.38,0.52,0.29,0.88
			c-0.04,0.15-0.11,0.32,0.05,0.43c0.14,0.1,0.3,0,0.44-0.06c0.58-0.22,1.1-0.58,1.73-0.7c0.38-0.07,0.7,0,1.02,0.2
			c0.52,0.34,1.08,0.63,1.66,0.85c0.56,0.21,0.68,0.15,0.82-0.42c0.15-0.61,0.37-1.18,0.79-1.67c0.46-0.54,1.01-0.87,1.74-0.82
			c0.38,0.03,0.75-0.01,1.11-0.1c0.4-0.1,0.62-0.33,0.57-0.77c-0.04-0.39-0.07-0.78-0.12-1.16c-0.07-0.56,0.15-0.97,0.63-1.24
			c0.24-0.14,0.5-0.26,0.76-0.35c0.6-0.23,1.15-0.48,1.54-1.06c0.33-0.49,0.92-0.68,1.45-0.89c0.58-0.23,1.17-0.43,1.74-0.66
			c0.58-0.24,0.7-0.57,0.44-1.16c-0.23-0.53-0.63-0.92-1.04-1.3c-0.44-0.41-0.44-0.69,0.06-1.05c0.32-0.23,0.7-0.4,1.06-0.58
			c0.33-0.16,0.53-0.38,0.57-0.77c0.08-0.71,0.42-1.34,0.75-1.95c0.34-0.63,0.37-1.24,0.06-1.87c-0.56-1.15,0.13-1.5,0.98-1.59
			c1.4-0.16,2.8-0.05,4.2-0.18c0.87-0.08,1.73-0.25,2.61-0.11c0.85,0.14,1.66,0.4,2.46,0.71c0.36,0.14,0.63,0.4,0.86,0.7
			c0.44,0.55,0.82,1.13,1.26,1.68c0.47,0.6,0.29,1.19-0.44,1.5c-0.38,0.16-0.64,0.34-0.84,0.74
			C166.04,50.65,165.34,50.81,164.57,50.9z"/>
		<path class="st0" d="M291.59,124.17c-0.24,0.12-0.35,0.34-0.45,0.53c-0.31,0.57-0.81,0.73-1.38,0.6
			c-0.72-0.16-1.38-0.07-2.04,0.25c-0.37,0.18-0.78,0.23-1.19,0.19c-0.32-0.03-0.62-0.14-0.74-0.48c-0.12-0.32,0.04-0.57,0.26-0.8
			c0.37-0.39,0.84-0.65,1.33-0.85c0.42-0.17,0.6-0.43,0.47-0.87c-0.11-0.4,0.05-0.71,0.35-0.95c0.62-0.48,1.08-1.06,1.32-1.82
			c0.14-0.44,0.51-0.61,0.96-0.61c0.99-0.01,1.99-0.09,2.96,0.24c0.47,0.16,0.53,0.06,0.4-0.41c-0.05-0.19-0.07-0.4-0.07-0.6
			c-0.02-0.87-0.07-0.92-0.92-1c-0.32-0.03-0.65-0.09-0.96-0.18c-0.73-0.22-0.86-0.68-0.35-1.25c0.21-0.24,0.48-0.44,0.74-0.64
			c0.34-0.27,0.7-0.52,1.03-0.81c0.52-0.47,0.49-0.68-0.14-0.97c-0.86-0.4-1.53-1-2.06-1.77c-0.44-0.63-0.75-1.33-0.96-2.07
			c-0.12-0.43-0.19-0.86-0.03-1.29c0.12-0.34-0.02-0.52-0.31-0.67c-0.6-0.31-1.25-0.46-1.9-0.63c-0.48-0.13-0.97-0.24-1.42-0.45
			c-0.37-0.17-0.73-0.37-0.98-0.7c-0.93-1.21-2.21-1.9-3.6-2.4c-0.46-0.16-0.92-0.31-1.33-0.57c-0.94-0.58-1.94-0.97-3.03-1.17
			c-0.38-0.07-0.74-0.1-1.09,0.06c-0.33,0.16-0.62,0.11-0.93-0.08c-0.26-0.16-0.54-0.3-0.82-0.44c-0.4-0.19-0.81-0.22-1.22-0.02
			c-0.59,0.28-1.18,0.24-1.76,0c-0.49-0.2-0.98-0.41-1.46-0.63c-0.5-0.22-0.9-0.56-1.13-1.07c-0.15-0.34-0.4-0.53-0.77-0.47
			c-1.31,0.21-2.21-0.37-2.91-1.42c-0.25-0.37-0.53-0.73-0.88-1.02c-0.44-0.36-1.04-0.2-1.23,0.35c-0.1,0.29-0.18,0.6-0.24,0.9
			c-0.12,0.56-0.46,0.93-0.99,1.07c-0.74,0.2-1.44,0.49-2.15,0.76c-0.68,0.26-0.95,0.15-1.34-0.44c-0.22-0.33-0.39-0.67-0.5-1.05
			c-0.11-0.41-0.25-0.8-0.54-1.12c-0.25-0.28-0.21-0.61-0.02-0.91c0.2-0.3,0.4-0.59,0.62-0.87c0.22-0.27,0.23-0.53,0.02-0.8
			c-0.36-0.47-0.72-0.94-1.08-1.4c-0.26-0.33-0.64-0.38-1.01-0.41c-0.5-0.04-1-0.02-1.49-0.03c-0.52-0.01-1.07-0.49-1.14-0.99
			c-0.02-0.16,0.06-0.27,0.16-0.37c0.21-0.18,0.42-0.37,0.65-0.53c0.39-0.26,0.6-0.61,0.65-1.08c0.08-0.67,0.39-0.84,0.99-0.53
			c0.28,0.14,0.54,0.31,0.78,0.51c0.79,0.64,1.71,0.84,2.71,0.86c0.39,0.01,0.64-0.14,0.8-0.51c0.13-0.3,0.24-0.6,0.33-0.92
			c0.14-0.53,0.45-0.75,0.99-0.7c0.56,0.05,1.11,0.17,1.58,0.52c0.24,0.18,0.46,0.17,0.67-0.03c0.21-0.19,0.42-0.37,0.6-0.58
			c0.14-0.16,0.31-0.35,0.2-0.58c-0.1-0.2-0.34-0.19-0.54-0.19c-0.79,0.03-1.59,0.05-2.38,0.12c-1.01,0.08-2.01,0.21-3.02,0.31
			c-0.33,0.03-0.66,0.04-0.98-0.03c-1.04-0.25-2.06-0.59-3.07-0.95c-0.65-0.24-1.04-0.78-1.32-1.39c-0.3-0.65-0.57-1.31-0.83-1.98
			c-0.33-0.82-0.92-1.2-1.82-1.15c-0.56,0.03-1.12,0.01-1.68-0.02c-0.21-0.01-0.46-0.04-0.54-0.29c-0.09-0.28,0.12-0.43,0.29-0.58
			c0.3-0.26,0.66-0.41,1.01-0.58c0.31-0.15,0.4-0.37,0.28-0.68c-0.03-0.07-0.05-0.15-0.07-0.22c-0.23-0.72-0.37-1.46,0.25-2.05
			c0.69-0.66,1.53-0.89,2.46-0.64c0.77,0.2,0.78,0.22,1.24-0.42c0.3-0.41,0.74-0.6,1.18-0.82c1.3-0.66,2.68-0.74,4.1-0.61
			c0.38,0.04,0.67,0.25,0.87,0.57c0.23,0.37,0.43,0.76,0.68,1.12c0.37,0.55,0.88,0.81,1.56,0.88c1.19,0.12,2.32-0.07,3.46-0.35
			c0.45-0.11,0.93-0.11,1.39,0.02c0.51,0.14,0.59,0.47,0.22,0.86c-0.26,0.27-0.6,0.45-0.91,0.65c-0.3,0.19-0.29,0.36-0.04,0.58
			c0.43,0.36,0.87,0.71,1.27,1.1c0.84,0.83,0.95,1.3,0.35,2.31c-0.47,0.8-0.54,1.67-0.74,2.53c-0.02,0.09-0.03,0.21,0.01,0.27
			c0.46,0.73,0.38,1.59,0.55,2.39c0.11,0.52,0.26,1.03,0.53,1.49c0.08,0.14,0.17,0.28,0.35,0.28c0.21,0,0.21-0.2,0.28-0.33
			c0.12-0.25,0.21-0.53,0.36-0.76c0.28-0.42,0.69-0.46,1.07-0.12c0.2,0.17,0.32,0.38,0.39,0.63c0.07,0.27,0.17,0.54,0.18,0.82
			c0.08,1.33,0.9,2.32,1.53,3.4c0.12,0.2,0.3,0.38,0.52,0.46c0.63,0.22,1.26,0.45,1.9,0.63c0.58,0.16,0.82-0.04,0.84-0.64
			c0.04-1,0.09-1.08,1.04-1.38c0.37-0.12,0.47-0.31,0.55-0.71c0.19-0.91,0.58-1.8,1.52-2.2c0.6-0.26,0.98-0.63,1.14-1.25
			c0.17-0.68,0.63-1,1.31-1.07c0.22-0.02,0.43-0.07,0.65-0.08c0.69-0.05,1.27-0.21,1.54-0.97c0.13-0.39,0.49-0.63,0.86-0.83
			c0.68-0.36,1.26-0.86,1.79-1.41c0.78-0.81,1.67-1.49,2.7-1.97c0.83-0.38,1.03-0.33,1.6,0.36c0.32,0.38,0.65,0.76,0.96,1.14
			c0.24,0.29,0.53,0.42,0.9,0.41c0.25-0.01,0.5,0,0.75-0.02c0.65-0.05,1.12,0.14,1.56,0.7c0.8,1.01,1.92,1.54,3.22,1.54
			c1.09,0,2,0.39,2.83,1.04c0.14,0.1,0.29,0.19,0.42,0.3c0.41,0.35,0.83,0.41,1.33,0.18c0.58-0.26,1.13-0.22,1.56,0.31
			c0.18,0.22,0.37,0.1,0.55,0.03c0.55-0.24,1.12-0.38,1.72-0.34c0.56,0.04,0.69,0.21,0.56,0.74c-0.19,0.75-0.05,0.88,0.72,0.71
			c0.27-0.06,0.55-0.11,0.83-0.13c0.53-0.03,0.68,0.1,0.67,0.64c-0.03,1.53-0.07,3.05-0.12,4.58c-0.08,2.33-0.17,4.67-0.24,7
			c-0.11,3.47-0.21,6.94-0.32,10.42c-0.02,0.53-0.13,1.01-0.47,1.44c-0.12,0.15-0.23,0.34-0.28,0.53c-0.16,0.66-0.46,1.25-0.86,1.8
			c-0.29,0.4-0.24,0.76,0.09,1.13c1.32,1.47,1.78,3.26,1.76,5.18c-0.02,1.51-0.14,3.02-0.24,4.52c-0.06,0.88,0.06,1.73,0.35,2.57
			c0.38,1.11,0.12,1.39-1.05,1.23c-0.03,0-0.06-0.01-0.09-0.01c-1.73-0.3-1.31,0.01-2.48-1.41c-1.25-1.5-2.46-3.02-3.64-4.57
			c-0.51-0.68-1.21-0.89-1.98-0.98c-0.44-0.05-0.76,0.22-1.08,0.49c-0.73,0.6-0.86,0.62-1.62,0.06c-0.37-0.27-0.75-0.35-1.19-0.25
			c-0.37,0.08-0.74,0.1-1.11-0.01c-0.29-0.08-0.51-0.24-0.59-0.54c-0.04-0.14-0.11-0.26-0.21-0.36c-0.14-0.14-0.34-0.38-0.49-0.28
			c-0.18,0.11-0.21,0.42-0.12,0.65c0.15,0.34,0.34,0.66,0.51,1c0.18,0.35,0.37,0.73,0.05,1.08c-0.3,0.33-0.71,0.43-1.16,0.31
			c-0.46-0.13-0.64-0.46-0.66-0.91C291.77,124.74,291.74,124.45,291.59,124.17z"/>
		<path class="st0" d="M197.58,77.59c-0.19-0.31-0.38-0.56-0.48-0.85c-0.08-0.22-0.07-0.45,0.17-0.5c0.59-0.11,1.09-0.45,1.68-0.55
			c0.67-0.11,1.27-0.02,1.82,0.37c0.42,0.3,0.86,0.46,1.4,0.36c0.46-0.09,0.65,0.13,0.67,0.6c0.04,0.99-0.48,1.71-1.15,2.35
			c-0.27,0.26-0.6,0.24-0.92,0.14c-0.33-0.1-0.66-0.2-0.97-0.33c-0.67-0.29-1.21-0.07-1.68,0.4c-0.74,0.73-1.5,1.45-2.12,2.29
			c-0.62,0.85-1.43,1.46-2.44,1.81c-0.35,0.12-0.69,0.29-1,0.49c-0.65,0.42-1.37,0.66-2.13,0.79c-0.21,0.04-0.41,0.06-0.47,0.3
			c-0.07,0.27,0.17,0.35,0.32,0.45c0.4,0.26,0.82,0.51,1.24,0.74c1.08,0.57,1.64,1.46,1.67,2.67c0.01,0.54,0.26,0.83,0.75,0.99
			c0.87,0.28,1.47,0.85,1.85,1.67c0.31,0.67,0.11,1.01-0.62,1.04c-0.33,0.01-0.65,0-0.98,0.02c-0.29,0.01-0.32,0.14-0.13,0.34
			c0.37,0.41,0.81,0.72,1.24,1.06c0.53,0.42,0.6,0.66,0.34,1.29c-0.12,0.29-0.14,0.46,0.23,0.59c0.89,0.31,0.96,0.45,0.79,1.38
			c-0.11,0.6-0.11,0.6,0.48,0.63c0.15,0.01,0.31,0.03,0.46,0.07c0.68,0.18,0.87,0.63,0.53,1.24c-0.29,0.53-0.71,0.94-1.31,1.05
			c-1.31,0.25-2.42,0.79-3.3,1.84c-0.42,0.51-1.05,0.71-1.73,0.62c-0.14-0.02-0.28-0.02-0.42,0c-1.61,0.16-2.87-1.39-2.38-2.95
			c0.11-0.35,0.25-0.71,0.41-1.04c0.17-0.36,0.14-0.69-0.06-1.02c-0.46-0.78-1.08-1.41-1.78-1.96c-0.9-0.71-1.14-1.38-0.76-2.45
			c0.25-0.69,0.28-1.33-0.01-2.03c-0.3-0.73-0.43-1.51,0.07-2.23c0.11-0.16,0.09-0.33-0.02-0.48c-0.76-1.02-0.35-1.04-1.58-0.5
			c-0.72,0.32-1.19,0.8-1.58,1.44c-0.39,0.64-0.73,1.3-1.2,1.89c-0.2,0.25-0.13,0.53-0.04,0.8c0.21,0.62,0.56,1.18,0.84,1.77
			c0.33,0.69,0.63,1.38,0.69,2.16c0.05,0.63-0.18,1.09-0.77,1.35c-0.13,0.06-0.25,0.13-0.37,0.2c-0.32,0.2-0.42,0.47-0.17,0.78
			c0.87,1.07,0.88,2.28,0.65,3.55c-0.04,0.24-0.13,0.45-0.25,0.65c-0.21,0.33-0.35,0.69-0.46,1.07c-0.1,0.32-0.03,0.57,0.26,0.77
			c0.8,0.53,0.82,1.35,0.7,2.17c-0.07,0.47-0.5,0.7-1.03,0.66c-0.39-0.03-0.75-0.19-1.13-0.29c-0.28-0.08-0.48-0.07-0.57,0.31
			c-0.24,1.02-1.15,1.26-1.89,0.51c-0.54-0.55-1.14-1.02-1.72-1.51c-0.57-0.48-0.8-1.09-0.86-1.8c-0.03-0.36,0.07-0.63,0.37-0.85
			c0.52-0.38,0.8-0.85,0.57-1.52c-0.19-0.56-0.1-1.11,0.12-1.64c0.18-0.44,0.28-0.89,0.28-1.36c-0.01-0.56,0.21-1.06,0.38-1.58
			c0.24-0.72,0.22-0.78-0.38-1.21c-1.11-0.78-2.24-1.51-3.59-1.85c-0.88-0.22-1.15-0.63-1.22-1.54c-0.05-0.58-0.31-1.07-0.68-1.51
			c-0.32-0.38-0.68-0.73-1-1.11c-0.37-0.43-0.28-0.77,0.26-0.96c0.41-0.15,0.84-0.24,1.25-0.38c0.61-0.21,1.1-0.57,1.41-1.15
			c0.33-0.61,0.79-1.12,1.31-1.57c1-0.85,1.26-1.92,0.96-3.16c-0.18-0.76-0.34-1.52-0.32-2.3c0.02-0.86,0.31-1.61,1.05-2.08
			c1.25-0.8,1.83-2.08,2.47-3.32c0.24-0.48,0.14-0.72-0.34-1c-0.48-0.29-0.99-0.52-1.47-0.81c-0.66-0.41-0.69-0.81-0.13-1.34
			c0.23-0.21,0.46-0.42,0.7-0.62c0.38-0.33,0.59-0.74,0.61-1.26c0.02-0.58,0.31-1.08,0.67-1.51c0.51-0.61,1.05-1.2,1.59-1.78
			c0.4-0.43,0.95-0.58,1.5-0.7c0.38-0.08,0.74-0.21,1.1-0.38c0.85-0.41,1.32-1.02,1.31-2.01c-0.01-0.63,0.24-0.81,0.88-0.81
			c0.82,0.01,1.65,0.07,2.47-0.12c0.38-0.09,0.69,0.13,0.97,0.38c0.35,0.31,0.69,0.63,1.02,0.96c0.18,0.17,0.3,0.17,0.51,0.02
			c1.23-0.95,2.37-0.97,3.65-0.07c0.79,0.56,1.6,1.08,2.51,1.42c0.69,0.26,1.4,0.38,2.1,0.15c1.83-0.61,3.72-0.87,5.61-1.2
			c0.61-0.11,1.15-0.36,1.65-0.73c0.96-0.71,1.97-1.3,3.11-1.67c0.52-0.17,0.92-0.5,1.25-0.93c0.62-0.81,1.56-0.83,2.24-0.07
			c0.2,0.22,0.29,0.47,0.26,0.77c-0.07,0.66-0.22,1.28-0.67,1.81c-0.32,0.38-0.47,0.84-0.57,1.31c-0.13,0.6-0.49,0.95-1.08,1.09
			c-0.22,0.06-0.46,0.12-0.65,0.24c-0.52,0.33-0.83,0.74-0.7,1.43c0.1,0.55-0.11,1.03-0.53,1.42c-1.27,1.2-2.72,1.81-4.51,1.53
			c-0.81-0.13-1.65-0.19-2.4,0.31c-0.14,0.09-0.32,0.13-0.48,0.18c-0.9,0.3-1.13,0.22-1.52-0.54c-0.1-0.19-0.25-0.36-0.4-0.52
			c-0.33-0.37-0.63-0.61-1.24-0.53c-0.9,0.12-1.83,0.07-2.74-0.16c-0.85-0.22-1.71-0.15-2.55,0c-0.53,0.1-1.02,0.03-1.51-0.15
			c-0.68-0.25-1.31-0.29-2.07-0.09c-1.18,0.31-2.43,0.36-3.58-0.29c-0.76-0.43-2-0.05-2.42,0.71c-0.25,0.44-0.58,0.81-0.88,1.2
			c-0.48,0.64-0.74,1.31-0.46,2.13c0.33,0.97,0.13,1.95-0.12,2.9c-0.2,0.76,0.4,1.16,0.65,1.71c0.06,0.13,0.26,0.07,0.39,0.07
			c0.47,0,0.93,0,1.4,0.1c0.77,0.16,0.99,0.52,0.75,1.27c-0.09,0.3-0.21,0.59-0.28,0.89c-0.09,0.38,0.01,0.64,0.45,0.69
			c0.56,0.06,1.11,0.12,1.66,0.25c0.26,0.07,0.39-0.07,0.4-0.31c0.02-0.37,0.03-0.75,0.04-1.12c0.01-0.43,0.13-0.83,0.37-1.19
			c0.33-0.48,0.77-0.65,1.34-0.51c1.61,0.41,3.16,0.31,4.7-0.35c0.85-0.36,1.76-0.52,2.7-0.31C197.08,77.6,197.3,77.58,197.58,77.59
			z"/>
		<path class="st0" d="M137.28,119.36c2,0.11,3.91,0.25,5.82,0.01c0.68-0.09,1.35-0.22,2.03-0.33c0.62-0.1,0.85,0.09,0.84,0.7
			c0,0.3-0.06,0.59-0.18,0.86c-0.3,0.66-0.24,1.31,0.06,1.94c0.39,0.81,0.79,1.62,1.19,2.43c0.26,0.53,0.53,1.06,0.65,1.64
			c0.06,0.29,0.14,0.62-0.14,0.83c-0.3,0.22-0.56-0.01-0.8-0.18c-1.1-0.82-2.23-1.6-3.41-2.29c-0.58-0.34-1.15-0.7-1.84-0.74
			c-0.12-0.01-0.25-0.07-0.34-0.15c-0.63-0.53-1.36-0.48-2.09-0.35c-1.08,0.19-2.1,0.56-3.13,0.91c-1.39,0.47-2.81,0.53-4.16-0.04
			c-1.45-0.62-3-0.63-4.51-0.91c-1.16-0.21-2.32-0.48-3.49-0.62c-0.39-0.04-0.7-0.27-0.97-0.53c-1.27-1.19-2.77-1.99-4.37-2.63
			c-0.88-0.35-1.72-0.47-2.63-0.17c-0.99,0.32-2.03,0.3-3.06,0.29c-0.57,0-1.07,0.1-1.59,0.4c-0.95,0.54-2.03,0.46-3.06,0.32
			c-1.59-0.22-3.04-0.79-4.17-2c-0.23-0.25-0.54-0.29-0.86-0.3c-1.28-0.03-2.55-0.05-3.83-0.09c-0.65-0.02-1.31-0.1-1.94-0.28
			c-0.32-0.09-0.65-0.22-0.72-0.59c-0.07-0.37,0.19-0.62,0.45-0.81c0.28-0.22,0.6-0.39,0.91-0.57c0.2-0.12,0.2-0.22,0-0.32
			c-0.34-0.16-0.69-0.29-1.02-0.45c-2.12-0.97-4.39-1.24-6.67-1.43c-0.4-0.03-0.75,0.17-1.12,0.29c-0.18,0.05-0.35,0.12-0.54,0.16
			c-0.12,0.03-0.26,0.02-0.32-0.12c-0.05-0.11-0.03-0.22,0.05-0.3c0.59-0.62,1.13-1.3,1.89-1.72c0.4-0.22,0.84-0.19,1.27-0.02
			c0.33,0.13,0.66,0.28,1.01,0.36c0.48,0.12,0.65-0.02,0.75-0.51c0.1-0.46,0.03-0.93,0.13-1.39c0.25-1.29,1.15-2.11,2.05-2.92
			c0.21-0.19,0.51-0.17,0.76-0.08c1.2,0.45,2.49,0.75,3.28,1.93c0.19,0.29,0.49,0.24,0.76,0.13c0.46-0.19,0.9-0.42,1.35-0.63
			c0.24-0.11,0.48-0.22,0.72-0.33c0.98-0.45,1.87-0.36,2.54,0.54c1.05,1.41,2.5,1.04,3.89,0.9c0.23-0.02,0.42-0.19,0.55-0.4
			c0.17-0.26,0.39-0.28,0.57-0.05c0.63,0.82,1.39,1.58,1.55,2.67c0.06,0.4,0.34,0.53,0.65,0.64c1.58,0.57,3.2,1.01,4.86,1.31
			c1.59,0.29,3.18,0.34,4.79,0.31c0.84-0.02,1.34-0.4,1.6-1.17c0.2-0.57,0.41-1.14,0.74-1.66c0.21-0.33,0.44-0.64,0.76-0.88
			c0.69-0.52,1.45-0.23,1.63,0.62c0.23,1.09,1.09,1.68,2.18,1.59c1.02-0.08,2.01,0.18,3,0.36c0.09,0.02,0.18,0.07,0.24,0.14
			c0.82,0.94,1.99,1.06,3.1,1.21c1.18,0.16,1.52,0.41,1.66,1.81c0.03,0.29,0.01,0.59,0.03,0.89c0.02,0.41,0.2,0.75,0.48,1.03
			C137.3,118.8,137.45,119.03,137.28,119.36z"/>
		<path class="st0" d="M230.13,91.2c-0.02-1.07,0.25-1.24,1.21-0.78c0.18,0.09,0.37,0.14,0.57,0.19c0.6,0.12,1.14,0.39,1.66,0.71
			c0.22,0.13,0.42,0.53,0.77,0.06c0.12-0.17,0.59-0.11,0.9-0.1c0.77,0.03,1.47-0.19,2.16-0.49c0.16-0.07,0.33-0.11,0.48-0.18
			c0.95-0.45,1.83-0.38,2.65,0.32c0.14,0.12,0.32,0.2,0.47,0.3c0.32,0.21,0.58,0.36,0.95-0.02c0.32-0.32,0.82-0.27,1.24-0.12
			c0.63,0.22,1.25,0.47,1.88,0.7c0.43,0.16,0.64,0.46,0.64,0.93c0,0.39,0.06,0.78,0.05,1.16c0,0.3,0.14,0.43,0.4,0.53
			c0.84,0.31,0.93,0.44,0.91,1.34c-0.01,0.48,0.02,0.96-0.08,1.44c-0.13,0.59-0.43,0.77-1.01,0.62c-0.27-0.07-0.54-0.13-0.82-0.17
			c-0.77-0.1-1.42-0.43-1.95-1.01c-0.17-0.18-0.38-0.32-0.58-0.47c-0.44-0.32-0.98-0.55-1.32-0.95c-0.84-1-1.76-0.39-2.66-0.23
			c-0.09,0.02-0.18,0.11-0.3,0.09c-0.95-0.15-1.93-0.01-2.88-0.24c-0.29-0.07-0.61-0.14-0.85,0.18c-0.07,0.09-0.25,0.15-0.38,0.15
			c-0.8,0.02-1.59-0.06-2.24-0.62c-0.18-0.15-0.36-0.3-0.56-0.41c-0.8-0.45-1.23-1.12-1.24-2.05
			C230.2,91.78,230.16,91.49,230.13,91.2z"/>
		<path class="st0" d="M183.26,136.8c-0.2,0-0.41-0.01-0.61,0c-0.72,0.06-1.24-0.24-1.77-0.73c-0.96-0.88-1.95-1.73-2.91-2.62
			c-0.22-0.21-0.46-0.26-0.77-0.19c-0.66,0.13-1.33,0.07-2,0.03c-0.24-0.02-0.44-0.13-0.61-0.31c-0.4-0.43-0.81-0.86-1.21-1.3
			c-0.38-0.42-0.3-0.7,0.23-0.82c0.37-0.08,0.62-0.33,0.93-0.48c0.57-0.28,1.19-0.35,1.82-0.35c0.7,0.01,1.36-0.11,1.99-0.43
			c0.76-0.39,1.56-0.2,2.34-0.12c0.33,0.03,0.39,0.3,0.33,0.6c-0.25,1.24-0.25,1.24,0.98,1.25c0.55,0,1.09,0.07,1.62,0.18
			c0.33,0.07,0.48,0.22,0.38,0.59c-0.16,0.58,0,1.1,0.41,1.55c0.37,0.4,0.75,0.79,1.11,1.2c0.69,0.79,0.4,1.62-0.62,1.83
			C184.35,136.8,183.8,136.77,183.26,136.8z"/>
		<path class="st0" d="M46.81,65.15c0.01,0.55-0.21,0.97-0.52,1.35c-0.34,0.42-0.74,0.76-1.21,1.01c-0.57,0.31-1.09,0.27-1.46-0.26
			c-0.52-0.74-1.19-1.39-1.45-2.31c-0.2-0.72-0.81-1.18-1.41-1.57c-0.57-0.36-0.9-0.89-1.25-1.42c-0.09-0.14-0.17-0.31-0.04-0.47
			c0.13-0.15,0.29-0.14,0.47-0.1c0.33,0.08,0.66,0.17,1,0.23c0.39,0.07,0.67-0.09,0.79-0.48c0.14-0.45,0.32-0.82,0.89-0.75
			c0.51,0.06,1.06,0.54,1.06,1.09c0,0.56,0.24,0.79,0.73,0.95c1.06,0.35,1.61,1.28,2.23,2.1C46.79,64.71,46.82,64.95,46.81,65.15z"
			/>
		<path class="st0" d="M231.3,70.14c-0.51,0.07-1.14,0.16-1.77,0.26c-0.25,0.04-0.37,0.16-0.26,0.42c0.05,0.13,0.09,0.27,0.15,0.39
			c0.61,1.15,1.05,2.35,1.24,3.65c0.11,0.77,0.47,1.44,0.98,2.03c0.35,0.41,0.7,0.84,0.95,1.33c0.14,0.27,0.27,0.56,0.03,0.83
			c-0.23,0.26-0.55,0.2-0.83,0.09c-1.29-0.5-2.25-1.41-2.84-2.64c-0.42-0.86-0.72-1.78-1.3-2.57c-0.36-0.49-0.26-1.07,0.06-1.54
			c0.49-0.73,0.33-1.33-0.19-1.94c-0.27-0.32-0.52-0.66-0.69-1.05c-0.13-0.32-0.21-0.65-0.13-1c0.12-0.49,0.03-0.95-0.21-1.4
			c-0.32-0.61-0.6-1.23-0.89-1.85c-0.13-0.28-0.18-0.56,0.16-0.77c0.22-0.14,0.25-0.39,0.24-0.63c-0.04-1.12,0.42-2.02,1.19-2.79
			c0.45-0.46,0.87-0.93,1.19-1.49c0.17-0.3,0.5-0.35,0.82-0.34c0.17,0,0.35,0.07,0.42,0.25c0.08,0.19-0.03,0.33-0.19,0.43
			c-0.23,0.14-0.21,0.36-0.2,0.58c0.06,0.65,0.28,1.24,0.56,1.82c0.13,0.27,0.27,0.53,0.37,0.81c0.23,0.65,0.1,1.09-0.44,1.53
			c-0.08,0.07-0.17,0.14-0.26,0.2c-0.97,0.58-1.06,1.35-0.56,2.42c0.05,0.11,0.1,0.27,0.24,0.26c0.14,0,0.17-0.17,0.2-0.28
			c0.12-0.39,0.18-0.79,0.2-1.19c0.02-0.69,0.28-1.23,0.91-1.57c0.56-0.3,0.96-0.79,1.39-1.24c0.52-0.55,1.13-0.85,1.89-0.9
			c0.79-0.06,1.21,0.34,1.09,1.11c-0.2,1.29-0.74,2.38-1.98,2.98c-0.68,0.33-0.91,1-1.21,1.6c-0.15,0.3,0.13,0.44,0.37,0.53
			c0.56,0.22,1.16,0.25,1.73,0.36c0.94,0.18,1.09,0.33,1.25,1.28c0.09,0.52,0.32,0.97,0.64,1.38c0.14,0.19,0.31,0.4,0.14,0.63
			c-0.17,0.23-0.44,0.13-0.65,0.05c-0.92-0.36-1.76-0.86-2.49-1.53C232.31,70.28,231.9,70.15,231.3,70.14z"/>
		<path class="st0" d="M181.37,124.37c0.09-0.98,0.42-1.21,1.35-1.12c1.47,0.14,2.86,0.56,4.22,1.1c0.29,0.12,0.58,0.22,0.88,0.32
			c0.88,0.3,0.88,0.3,1.34-0.47c0.59-0.96,1.4-1.06,2.19-0.26c0.38,0.39,0.67,0.86,1,1.29c0.34,0.46,0.67,0.54,1.17,0.29
			c0.48-0.24,0.94-0.54,1.21-1c0.35-0.59,0.72-1.12,1.47-1.25c-0.49-0.61-0.49-0.61,0.17-1c0.21-0.13,0.4-0.3,0.62-0.42
			c1.05-0.56,2-0.02,2.09,1.16c0.05,0.59-0.13,1.1-0.49,1.56c-0.21,0.27-0.47,0.5-0.74,0.71c-0.4,0.32-0.79,0.62-1.06,1.1
			c-0.2,0.36-0.66,0.44-1.05,0.54c-0.52,0.14-1.05,0.1-1.58,0.06c-0.42-0.03-0.84-0.05-1.26-0.04c-0.38,0-0.7,0.03-0.89,0.5
			c-0.22,0.54-0.79,0.76-1.29,0.49c-1.22-0.66-2.36-0.33-3.51,0.16c-0.64,0.27-1.32,0.34-2,0.43c-0.26,0.04-0.48-0.03-0.67-0.24
			c-0.58-0.63-1.36-0.9-2.12-1.23c-0.11,0.58-0.39,0.85-1,0.89c-0.85,0.07-1.68-0.11-2.49-0.32c-0.38-0.1-0.46-0.37-0.2-0.67
			c0.29-0.33,0.42-0.69,0.45-1.14c0.07-0.89,0.8-1.29,1.43-1.72C180.88,123.94,181.1,124.28,181.37,124.37z"/>
		<path class="st0" d="M36.41,55.91c-0.87-0.14-1.75-0.25-2.62-0.42c-0.33-0.06-0.61-0.3-0.88-0.51c-0.64-0.52-1.22-1.11-1.79-1.71
			c-0.57-0.61-0.46-1.06,0.31-1.38c0.37-0.15,0.72-0.29,0.96-0.68c0.2-0.33,0.57-0.33,0.92-0.15c0.34,0.18,0.58,0.47,0.82,0.75
			c0.95,1.11,1.97,2.15,3.22,2.95c0.2,0.13,0.39,0.28,0.36,0.55c-0.04,0.3-0.29,0.39-0.53,0.46C36.94,55.86,36.68,55.92,36.41,55.91
			z"/>
		<path class="st0" d="M168.55,125.11c-1.02-0.33-1.5-1.06-1.84-1.91c-0.2-0.48-0.04-0.76,0.48-0.81c0.37-0.04,0.74-0.08,1.1-0.17
			c0.27-0.07,0.52,0.07,0.74,0.23c0.34,0.25,0.67,0.51,0.99,0.79c0.26,0.23,0.45,0.29,0.6-0.11c0.1-0.25,0.28-0.44,0.5-0.6
			c0.45-0.32,0.64-0.31,1.04,0.09c0.33,0.32,0.7,0.3,1.08,0.13c0.2-0.09,0.31-0.07,0.42,0.11c0.33,0.56,0.69,1.11,1.02,1.67
			c0.35,0.6,0.57,1.24,0.59,1.95c0.01,0.48-0.19,0.8-0.67,0.86c-0.87,0.12-1.7,0.32-2.53,0.63c-0.48,0.18-0.9,0-1.21-0.46
			c-0.48-0.71-0.62-0.76-1.25-0.17c-0.92,0.86-1.99,1.22-3.22,1.29c-0.98,0.05-1.96,0.13-2.94,0.2c-0.68,0.05-1.36,0.13-2.05,0.19
			c-0.28,0.02-0.5-0.03-0.51-0.38c-0.01-0.24-0.2-0.38-0.37-0.52c-0.2-0.15-0.41-0.29-0.59-0.46c-0.34-0.32-0.36-0.68-0.06-1.03
			c0.29-0.33,0.55-0.66,0.69-1.09c0.11-0.34,0.42-0.53,0.76-0.64c0.55-0.17,1.1-0.31,1.53-0.75c0.18-0.19,0.44-0.13,0.66-0.03
			c0.7,0.3,1.42,0.44,2.19,0.4c0.38-0.02,0.62,0.17,0.7,0.54c0.08,0.34,0.25,0.64,0.48,0.9c0.35,0.4,0.46,0.4,0.79-0.01
			C167.92,125.65,168.12,125.34,168.55,125.11z"/>
		<path class="st0" d="M93.7,82.16c-0.1-0.49-0.21-0.97-0.29-1.46c-0.04-0.25-0.14-0.56,0.18-0.7c0.28-0.13,0.47,0.09,0.64,0.27
			c0.77,0.79,1.33,1.72,1.69,2.76c0.15,0.44,0.04,0.93,0.15,1.38c0.1,0.41,0.25,0.79,0.5,1.14c0.82,1.14,1.73,2.17,3.18,2.53
			c0.2,0.05,0.43,0.14,0.46,0.41c0.03,0.3-0.22,0.38-0.42,0.5c-0.09,0.06-0.19,0.11-0.28,0.16c-0.52,0.32-0.54,0.36-0.28,0.91
			c0.15,0.33,0.27,0.66,0.31,1.02c0.05,0.43-0.2,0.64-0.55,0.42c-1.36-0.86-2.86-1.43-4.3-2.14c-0.43-0.21-0.61-0.55-0.48-1.04
			c0.12-0.45,0.2-0.91,0.16-1.38c-0.02-0.23-0.08-0.32-0.35-0.23c-0.78,0.24-1.22-0.08-1.3-0.9c-0.09-0.83-0.21-0.95-1.06-0.9
			c-0.65,0.04-1.27-0.01-1.85-0.35c-0.39-0.23-0.47-0.51-0.41-0.97c0.1-0.77,0.53-1.13,1.22-1.33c0.31-0.09,0.6-0.24,0.87-0.45
			c0.56-0.44,0.95-0.44,1.52-0.03c0.2,0.14,0.39,0.29,0.59,0.44C93.64,82.2,93.67,82.18,93.7,82.16z"/>
		<path class="st0" d="M218.09,92c1.01,0.12,2.03,0.21,3.06,0.1c0.36-0.04,0.69-0.16,1.04-0.24c0.77-0.18,1.45-0.04,2,0.56
			c0.65,0.71,1.32,1.4,1.96,2.13c0.56,0.64,0.44,1.03-0.35,1.3c-0.57,0.2-1.16,0.36-1.69,0.66c-0.3,0.17-0.51,0.37-0.63,0.71
			c-0.09,0.26-0.23,0.51-0.39,0.74c-0.36,0.54-0.85,0.69-1.35,0.27c-1-0.86-2.08-1.56-3.25-2.15c-0.4-0.2-0.7-0.56-1-0.91
			c-0.24-0.28-0.38-0.6-0.36-0.98c0.01-0.21-0.04-0.4-0.12-0.59C216.62,92.69,217.07,91.99,218.09,92z"/>
		<path class="st0" d="M109.31,89.27c0.04,0.5-0.08,0.96-0.33,1.39c-0.28,0.49-0.55,0.97-0.84,1.45c-0.27,0.45-0.57,0.43-0.82-0.04
			c-0.17-0.31-0.18-0.79-0.53-0.89c-0.34-0.09-0.62,0.29-0.94,0.44c-0.45,0.21-0.89,0.45-1.38,0.55c-0.53,0.11-0.74-0.1-0.63-0.62
			c0.03-0.17,0.08-0.33,0.14-0.49c0.25-0.64,0.32-1.29,0.22-1.97c-0.07-0.43,0.04-0.8,0.35-1.11c0.09-0.09,0.17-0.18,0.24-0.28
			c0.28-0.36,0.45-0.86,0.99-0.92c0.86-0.1,1.74-0.24,2.58,0.11c0.53,0.22,0.74,0.69,0.82,1.22
			C109.24,88.5,109.27,88.89,109.31,89.27z"/>
		<path class="st0" d="M54.27,81.96c0.01,1.09-0.21,1.3-1.15,1.23c-0.22-0.02-0.43-0.06-0.65-0.06c-0.46,0-0.78-0.22-0.96-0.62
			c-0.32-0.7-0.75-1.31-1.26-1.89c-0.65-0.73-0.48-1.64-0.37-2.49c0.05-0.44,0.22-0.88,0.42-1.28c0.47-0.94,1.22-1,1.84-0.16
			c0.37,0.5,0.65,1.06,0.87,1.64c0.42,1.07,0.99,2.07,1.21,3.21C54.25,81.73,54.26,81.92,54.27,81.96z"/>
		<path class="st0" d="M94.48,100.34c0,0.61,0,1.22,0,1.83c-0.02,0-0.03,0-0.05,0c0-0.62,0-1.23,0-1.85
			C94.45,100.33,94.46,100.33,94.48,100.34z"/>
		<path class="st0" d="M67.78,90.62c-0.26-0.27-0.53-0.55-0.79-0.82c-0.02,0.02-0.05,0.04-0.07,0.06c0.27,0.27,0.54,0.54,0.81,0.8
			C67.75,90.65,67.77,90.63,67.78,90.62z"/>
		<path class="st0" d="M80.16,73.93c-0.42,0-0.83,0-1.25,0c0-0.02,0-0.03,0-0.05c0.42,0,0.85,0,1.27,0
			C80.18,73.9,80.17,73.92,80.16,73.93z"/>
		<path class="st0" d="M33.13,35.95c0.3,0.15,0.5,0.39,0.69,0.66C33.51,36.46,33.31,36.21,33.13,35.95z"/>
		<ellipse class="st0" cx="64.53" cy="59.5" rx="0.03" ry="0.85"/>
		<path class="st0" d="M30.6,34.95c-0.3,0-0.61,0-0.91,0c0-0.02,0-0.03,0-0.05c0.3,0,0.6,0,0.89,0
			C30.59,34.91,30.6,34.93,30.6,34.95z"/>
		<path class="st0" d="M85.81,108.18c0.28,0,0.56,0,0.84,0c0,0.02,0,0.03,0,0.05c-0.28,0-0.56,0-0.84,0
			C85.81,108.21,85.81,108.2,85.81,108.18z"/>
		<ellipse class="st0" cx="81.27" cy="70.2" rx="0.03" ry="0.53"/>
		<path class="st0" d="M42.29,52.36c0,0.24,0,0.48,0,0.72c-0.01,0-0.03,0-0.04,0c0-0.23,0-0.47,0-0.7
			C42.26,52.37,42.28,52.37,42.29,52.36z"/>
		<path class="st0" d="M94.3,98.37c0,0.21,0,0.41,0,0.62c-0.02,0-0.03,0-0.05,0c0-0.21,0-0.41,0-0.62
			C94.27,98.36,94.29,98.37,94.3,98.37z"/>
		<path class="st0" d="M86.85,106.46c0-0.18,0-0.35,0-0.53c0.02,0,0.03,0,0.05,0c0,0.18,0,0.35,0,0.53
			C86.88,106.46,86.87,106.46,86.85,106.46z"/>
		<path class="st0" d="M74.98,69.94c0.18,0,0.35,0,0.65,0C75.33,70.05,75.15,70.01,74.98,69.94z"/>
		<path class="st0" d="M87.75,85.73c0,0.18,0,0.36,0,0.53c-0.01,0-0.03,0-0.04,0.01c0-0.17,0-0.34,0-0.52
			C87.72,85.74,87.74,85.73,87.75,85.73z"/>
		<path class="st0" d="M78.09,74.38c0.05,0.19,0.07,0.35-0.01,0.54C78.03,74.72,78.02,74.57,78.09,74.38z"/>
		<path class="st0" d="M63.52,83.86c0,0.15,0,0.29,0,0.44c-0.01,0-0.03,0-0.04,0.01c0-0.14,0-0.29,0-0.43
			C63.5,83.87,63.51,83.87,63.52,83.86z"/>
		<path class="st0" d="M94.34,99.92c0-0.15,0-0.29,0-0.44c0.01,0,0.03,0,0.04,0c0,0.14,0,0.29,0,0.43
			C94.37,99.92,94.35,99.92,94.34,99.92z"/>
		<path class="st0" d="M31.1,34.98c0.15,0,0.29,0,0.55,0C31.4,35.08,31.25,35.06,31.1,34.98z"/>
		<path class="st0" d="M38.02,36.95c0.15,0,0.29,0,0.44,0c0,0.01,0,0.03,0,0.04c-0.14,0-0.29,0-0.43,0
			C38.02,36.98,38.02,36.96,38.02,36.95z"/>
		<path class="st0" d="M35.94,37.27c0.26-0.08,0.41-0.07,0.56,0C36.35,37.27,36.21,37.27,35.94,37.27z"/>
		<path class="st0" d="M88.25,87.8c0.12,0,0.23,0,0.43,0C88.49,87.91,88.37,87.88,88.25,87.8z"/>
		<path class="st0" d="M94.16,105.65c0.09,0.11,0.07,0.23,0.04,0.35C94.05,105.89,94.19,105.76,94.16,105.65z"/>
		<path class="st0" d="M70.76,63.76c0-0.12,0-0.24,0-0.38C70.89,63.5,70.83,63.62,70.76,63.76z"/>
		<path class="st0" d="M75.83,69.88c0.19-0.06,0.31-0.06,0.46,0C76.14,69.95,76.02,69.93,75.83,69.88z"/>
		<path class="st0" d="M42.14,37.58c0.11-0.11,0.23-0.1,0.48-0.02C42.37,37.57,42.26,37.57,42.14,37.58z"/>
		<path class="st0" d="M87.85,87.81c-0.11,0.08-0.23,0.08-0.36,0.04C87.61,87.7,87.74,87.83,87.85,87.81z"/>
		<path class="st0" d="M63.6,85.06c-0.07-0.1-0.08-0.19-0.02-0.29C63.68,84.87,63.62,84.97,63.6,85.06z"/>
		<path class="st0" d="M63.4,83.5c-0.06-0.1-0.06-0.2,0-0.32C63.47,83.3,63.47,83.39,63.4,83.5z"/>
		<path class="st0" d="M93.64,104.36c-0.1-0.12-0.05-0.21-0.07-0.39C93.69,104.14,93.66,104.24,93.64,104.36z"/>
		<path class="st0" d="M86.96,106.91c0.1,0.13,0.05,0.22,0.05,0.36C86.9,107.15,86.93,107.05,86.96,106.91z"/>
		<path class="st0" d="M92.12,107.9c-0.07-0.1-0.06-0.19,0-0.32C92.19,107.69,92.19,107.79,92.12,107.9z"/>
		<path class="st0" d="M76.61,69.79c0.13-0.08,0.22-0.05,0.35-0.02C76.84,69.86,76.74,69.84,76.61,69.79z"/>
		<path class="st0" d="M70.72,62.91c-0.1-0.09-0.05-0.18-0.06-0.3C70.8,62.71,70.71,62.81,70.72,62.91z"/>
		<path class="st0" d="M95.74,92.84c0-0.1,0-0.19,0-0.32C95.86,92.64,95.79,92.74,95.74,92.84z"/>
		<path class="st0" d="M37.46,37.02c0.08,0.01,0.24,0.01,0.24,0.02c0.01,0.11-0.09,0.05-0.14,0.06c-0.04,0.01-0.08-0.02-0.12-0.03
			C37.45,37.07,37.45,37.05,37.46,37.02z"/>
		<path class="st0" d="M39.64,36.99c0.14-0.07,0.24-0.08,0.34-0.02C39.89,37.06,39.8,37.02,39.64,36.99z"/>
		<path class="st0" d="M28.7,35.97c0.06,0.1,0.06,0.2,0,0.33C28.64,36.18,28.63,36.08,28.7,35.97z"/>
		<path class="st0" d="M205.64,135.83c-0.52-0.21-0.99-0.22-1.45,0.2c-0.35,0.32-0.78,0.56-1.18,0.83c-0.15-0.07-0.31-0.07-0.46,0
			c-0.44-0.17-0.96-0.26-1-0.88c-0.02-0.31,0.04-0.63,0.17-0.9c0.47-0.96,0.57-1.91,0.07-2.89c-0.11-0.14,0.02-0.33-0.09-0.47
			c0.36-0.42,0.9-0.47,1.36-0.67c0.49-0.21,0.95-0.45,1.4-0.74c0.67-0.43,1.41-0.57,2.17-0.68c0.88-0.13,1.74-0.38,2.55-0.74
			c0.38-0.16,0.6-0.53,0.74-0.92c0.12-0.32,0.28-0.62,0.38-0.95c0.18-0.57,0.58-0.75,1.13-0.73c0.4,0.07,0.81,0.08,1.21,0
			c0.56-0.15,1.13-0.31,1.69-0.46c0.24,0.07,0.49,0.07,0.73,0c0.1,0.03,0.19,0.06,0.29,0.09c0.49,0.1,0.98,0.05,1.47,0.04
			c0.97-0.01,1.94,0.06,2.91-0.04c0.07,0,0.13,0,0.2,0c0.56,0.07,1.12,0.08,1.68,0c0.53-0.09,0.84-0.33,0.86-0.93
			c0.01-0.35,0.59-0.56,0.87-0.34c0.3,0.23,0.62,0.41,0.97,0.54c0.25,0.09,0.34,0.24,0.14,0.49c-0.41,0.52-0.94,0.9-1.48,1.26
			c-1.03,0.69-1.88,1.6-2.84,2.38c-0.27,0.22-0.56,0.39-0.87,0.53c-0.21-0.12-0.45,0.03-0.66-0.09c-0.73-0.29-1.48-0.54-2.24-0.75
			c-0.25-0.07-0.5-0.08-0.75,0.01c-0.42,0.6-1.12,0.68-1.74,0.9c-0.44,0.15-0.9,0.23-1.35,0.31c-0.34,0.06-0.53,0.31-0.74,0.53
			c-1.17,1.22-2.14,2.61-3.31,3.83c-0.59,0.62-1.41,0.94-2.21,1.25C206.07,135.75,205.86,135.75,205.64,135.83z"/>
		<path class="st0" d="M219.76,125.92c-0.08,0.1-0.19,0.09-0.3,0.09c-1.27,0-2.53,0-3.8,0c-0.11,0-0.22,0.01-0.3-0.09
			C216.83,125.92,218.29,125.92,219.76,125.92z"/>
		<path class="st0" d="M221.63,125.92c-0.56,0.16-1.12,0.15-1.68,0C220.51,125.92,221.07,125.92,221.63,125.92z"/>
		<path class="st0" d="M212.65,126.29c-0.4,0.16-0.81,0.15-1.21,0C211.84,126.3,212.25,126.3,212.65,126.29z"/>
		<path class="st0" d="M215.08,125.83c-0.24,0.14-0.49,0.14-0.73,0C214.59,125.83,214.83,125.83,215.08,125.83z"/>
		<path class="st0" d="M215.64,129.01c0.25-0.15,0.5-0.14,0.75-0.01C216.14,129,215.89,129.01,215.64,129.01z"/>
		<path class="st0" d="M218.63,129.75c0.22,0.04,0.46-0.09,0.66,0.09C219.07,129.81,218.83,129.93,218.63,129.75z"/>
		<path class="st0" d="M205.64,135.83c0.22-0.14,0.43-0.15,0.65,0C206.07,135.83,205.86,135.83,205.64,135.83z"/>
		<path class="st0" d="M201.71,131.72c0.16,0.13,0.07,0.31,0.09,0.47C201.65,132.06,201.73,131.88,201.71,131.72z"/>
		<path class="st0" d="M202.55,136.86c0.15-0.14,0.31-0.13,0.46,0C202.86,136.86,202.71,136.86,202.55,136.86z"/>
		<ellipse class="st0" cx="124.48" cy="90.63" rx="1.76" ry="0.02"/>
		<path class="st0" d="M158.39,45.32c-0.55,0-1.1,0-1.65,0c0-0.01,0-0.02,0-0.04c0.55,0,1.1,0,1.65,0
			C158.39,45.29,158.39,45.3,158.39,45.32z"/>
		<path class="st0" d="M120.73,88.81c0-0.52,0-1.04,0-1.56c0.01,0,0.02,0,0.04,0c0,0.52,0,1.04,0,1.56
			C120.75,88.81,120.74,88.81,120.73,88.81z"/>
		<path class="st0" d="M127.69,90.75c-0.42,0-0.85,0-1.27,0c0-0.02,0-0.03,0-0.05c0.43,0,0.85,0,1.28,0
			C127.7,90.72,127.69,90.74,127.69,90.75z"/>
		<path class="st0" d="M163.38,78.62c0-0.37,0-0.73,0-1.1c0.01,0,0.03,0,0.04,0c0,0.37,0,0.73,0,1.1
			C163.4,78.62,163.39,78.62,163.38,78.62z"/>
		<path class="st0" d="M137.09,92.88c0-0.32,0-0.64,0-0.97C137.18,92.25,137.17,92.58,137.09,92.88z"/>
		<path class="st0" d="M160.52,45.22c-0.3,0-0.6,0-0.9,0c0-0.02,0-0.03,0-0.05c0.3,0,0.61,0,0.91,0
			C160.53,45.19,160.53,45.21,160.52,45.22z"/>
		<path class="st0" d="M162.7,45.04c-0.27,0-0.54,0-0.82,0c0-0.01,0-0.03,0-0.04c0.27,0,0.55,0,0.82,0
			C162.7,45.01,162.7,45.02,162.7,45.04z"/>
		<path class="st0" d="M130.99,65.13c-0.28,0-0.56,0-0.84,0c0-0.01,0-0.03,0-0.04c0.28,0,0.56,0,0.84,0
			C130.99,65.11,130.99,65.12,130.99,65.13z"/>
		<path class="st0" d="M172.62,66.4c0.28,0,0.55,0,0.83,0c0,0.01,0,0.03,0,0.04c-0.28,0-0.55,0-0.83,0
			C172.62,66.43,172.62,66.41,172.62,66.4z"/>
		<path class="st0" d="M123.97,65.09c0.22,0,0.43,0,0.65,0c0,0.02,0,0.03,0,0.05c-0.22,0-0.43,0-0.65,0
			C123.97,65.12,123.97,65.11,123.97,65.09z"/>
		<ellipse class="st0" cx="166.02" cy="70.54" rx="0.03" ry="0.46"/>
		<path class="st0" d="M168.43,65.83c0.21,0,0.41,0,0.62,0c0,0.02,0,0.03,0,0.05c-0.21,0-0.41,0-0.62,0
			C168.43,65.86,168.43,65.84,168.43,65.83z"/>
		<path class="st0" d="M166.77,54.05c0.03,0.19,0.08,0.37-0.01,0.56C166.69,54.41,166.73,54.22,166.77,54.05z"/>
		<path class="st0" d="M141.54,93.21c-0.1-0.29-0.07-0.48-0.05-0.77C141.59,92.74,141.56,92.92,141.54,93.21z"/>
		<path class="st0" d="M116.78,59.48c0.28,0.07,0.13,0.28,0.15,0.43C116.82,59.79,116.89,59.6,116.78,59.48z"/>
		<path class="st0" d="M168.42,57.57c0-0.18,0-0.35,0-0.53c0.02,0,0.03,0,0.05,0c0,0.18,0,0.36,0,0.54
			C168.45,57.57,168.44,57.57,168.42,57.57z"/>
		<path class="st0" d="M173.65,66.32c0.28-0.05,0.47-0.06,0.74,0.02C174.11,66.38,173.93,66.39,173.65,66.32z"/>
		<path class="st0" d="M122.21,65.64c0.15,0,0.3,0,0.44,0c0,0.02,0,0.03,0,0.05c-0.15,0-0.3,0-0.44,0
			C122.21,65.67,122.21,65.66,122.21,65.64z"/>
		<path class="st0" d="M172.14,66.36c-0.27,0.01-0.42,0.05-0.58-0.04C171.74,66.26,171.9,66.25,172.14,66.36z"/>
		<path class="st0" d="M165.74,72.66c-0.07-0.18-0.07-0.34-0.01-0.52C165.81,72.32,165.8,72.48,165.74,72.66z"/>
		<path class="st0" d="M165.74,73.79c-0.08-0.18-0.07-0.34-0.01-0.52C165.81,73.45,165.8,73.6,165.74,73.79z"/>
		<path class="st0" d="M113.79,74.5c0-0.15,0-0.3,0-0.44c0.01,0,0.03,0,0.04,0c0,0.15,0,0.3,0,0.45
			C113.82,74.5,113.81,74.5,113.79,74.5z"/>
		<path class="st0" d="M158.33,89.53c0.08,0.28,0.08,0.43,0,0.58C158.33,89.96,158.33,89.81,158.33,89.53z"/>
		<path class="st0" d="M140.65,92.14c0.22-0.08,0.36-0.06,0.52,0C141.03,92.14,140.88,92.14,140.65,92.14z"/>
		<path class="st0" d="M133.06,93.06c-0.28,0.06-0.42,0.07-0.62,0.01C132.64,93,132.79,93.01,133.06,93.06z"/>
		<path class="st0" d="M135.77,93.22c0.15,0,0.29,0,0.47,0C136.07,93.36,135.92,93.25,135.77,93.22z"/>
		<path class="st0" d="M167.86,60.2c0-0.15,0-0.29,0-0.44c0.01,0,0.03,0,0.04-0.01c0,0.14,0,0.29,0,0.43
			C167.89,60.19,167.88,60.19,167.86,60.2z"/>
		<path class="st0" d="M147.36,97.52c0.12,0,0.24,0,0.39,0C147.61,97.65,147.49,97.58,147.36,97.52z"/>
		<path class="st0" d="M146.47,93.33c-0.18,0.09-0.3,0.06-0.48,0.03C146.17,93.27,146.3,93.3,146.47,93.33z"/>
		<path class="st0" d="M156.13,91.62c0,0.12,0,0.23,0,0.37C155.98,91.87,156.11,91.74,156.13,91.62z"/>
		<path class="st0" d="M148,94.61c0,0.12,0,0.23,0,0.37C147.87,94.86,147.93,94.74,148,94.61z"/>
		<path class="st0" d="M112.7,68.23c0.08,0.14,0.07,0.27,0.01,0.41C112.63,68.5,112.64,68.37,112.7,68.23z"/>
		<path class="st0" d="M144.2,92.79c-0.15,0.06-0.27,0.07-0.42-0.01C143.93,92.72,144.05,92.71,144.2,92.79z"/>
		<path class="st0" d="M151.65,95.94c-0.2,0.09-0.32,0.08-0.46,0.04C151.31,95.86,151.43,95.93,151.65,95.94z"/>
		<path class="st0" d="M119.62,82.99c-0.05-0.21-0.06-0.33-0.01-0.46C119.7,82.67,119.68,82.79,119.62,82.99z"/>
		<path class="st0" d="M112.75,66.13c-0.01,0.12-0.01,0.23-0.03,0.4C112.62,66.34,112.66,66.21,112.75,66.13z"/>
		<path class="st0" d="M137.71,64.58c-0.12,0-0.24,0-0.36,0c0-0.02,0-0.03,0-0.05c0.12,0,0.24,0,0.36,0
			C137.71,64.55,137.71,64.57,137.71,64.58z"/>
		<path class="st0" d="M114.13,62.55c0,0.12,0,0.24,0,0.43C114.03,62.79,114.05,62.67,114.13,62.55z"/>
		<path class="st0" d="M165.83,74.47c-0.06-0.19-0.06-0.31,0-0.46C165.91,74.16,165.88,74.28,165.83,74.47z"/>
		<path class="st0" d="M147.68,60.18c-0.05-0.21-0.07-0.33-0.01-0.46C147.77,59.86,147.74,59.98,147.68,60.18z"/>
		<path class="st0" d="M154.33,54.85c-0.06-0.19-0.06-0.31,0-0.46C154.4,54.53,154.38,54.65,154.33,54.85z"/>
		<path class="st0" d="M155.9,47.22c0.09,0.2,0.08,0.32,0.04,0.46C155.82,47.56,155.89,47.44,155.9,47.22z"/>
		<path class="st0" d="M161.45,45.11c-0.19,0.06-0.31,0.07-0.46,0C161.14,45.03,161.26,45.06,161.45,45.11z"/>
		<path class="st0" d="M145.61,93.44c-0.14,0.06-0.23,0.05-0.34,0C145.39,93.37,145.49,93.37,145.61,93.44z"/>
		<path class="st0" d="M157.99,90.79c-0.14,0.11-0.24,0.06-0.38,0.07C157.75,90.72,157.84,90.79,157.99,90.79z"/>
		<path class="st0" d="M130.1,91.86c0.06,0.14,0.05,0.23,0,0.34C130.03,92.08,130.04,91.99,130.1,91.86z"/>
		<path class="st0" d="M118.51,78.22c0.12-0.1,0.22-0.05,0.41-0.07C118.73,78.27,118.63,78.24,118.51,78.22z"/>
		<path class="st0" d="M156.82,90.87c0.08,0.01,0.24,0.01,0.24,0.03c0.01,0.12-0.09,0.05-0.14,0.06c-0.04,0.01-0.08-0.02-0.12-0.03
			C156.81,90.91,156.82,90.89,156.82,90.87z"/>
		<path class="st0" d="M129.99,91.25c0.08,0.09,0.08,0.18,0.03,0.28C129.91,91.44,129.99,91.34,129.99,91.25z"/>
		<path class="st0" d="M170.54,66.18c-0.08-0.01-0.24-0.01-0.24-0.02c-0.01-0.11,0.09-0.05,0.14-0.06c0.04-0.01,0.08,0.02,0.12,0.03
			C170.56,66.14,170.55,66.16,170.54,66.18z"/>
		<path class="st0" d="M146.41,61.84c0.1-0.06,0.19-0.06,0.32,0C146.61,61.91,146.51,61.91,146.41,61.84z"/>
		<path class="st0" d="M116.99,60.34c0.07,0.14,0.08,0.24,0.02,0.34C116.92,60.59,116.96,60.5,116.99,60.34z"/>
		<path class="st0" d="M154.75,50.84c0.01-0.08,0.01-0.24,0.03-0.24c0.11-0.01,0.05,0.09,0.06,0.14c0.01,0.04-0.02,0.08-0.03,0.12
			C154.79,50.85,154.77,50.85,154.75,50.84z"/>
		<path class="st0" d="M124.99,65.02c0.1-0.07,0.19-0.06,0.32,0C125.18,65.08,125.09,65.09,124.99,65.02z"/>
		<path class="st0" d="M142.57,64.92c0.1-0.06,0.2-0.06,0.32,0C142.77,64.99,142.68,65,142.57,64.92z"/>
		<path class="st0" d="M171.23,66.23c-0.1,0.07-0.19,0.06-0.32,0C171.03,66.17,171.12,66.16,171.23,66.23z"/>
		<path class="st0" d="M133.97,93.29c-0.08-0.01-0.24-0.01-0.24-0.02c-0.01-0.12,0.09-0.05,0.14-0.06c0.04-0.01,0.08,0.02,0.12,0.03
			C133.98,93.25,133.97,93.27,133.97,93.29z"/>
		<path class="st0" d="M248.83,82.37c0.72,0,1.44,0,2.17,0c0,0.02,0,0.03,0,0.05c-0.73,0-1.46,0-2.18,0
			C248.82,82.4,248.83,82.38,248.83,82.37z"/>
		<ellipse class="st0" cx="308.58" cy="91.34" rx="0.03" ry="1.56"/>
		<ellipse class="st0" cx="307.92" cy="111.48" rx="0.03" ry="1.5"/>
		<ellipse class="st0" cx="308.49" cy="94.37" rx="0.03" ry="1.37"/>
		<path class="st0" d="M308.18,103.75c0-0.65,0-1.29,0-1.94c0.02,0,0.03,0,0.05,0c0,0.64,0,1.28,0,1.92
			C308.21,103.74,308.2,103.75,308.18,103.75z"/>
		<path class="st0" d="M308.32,99.01c0,0.65,0,1.29,0,1.94c-0.02,0-0.03,0-0.05,0c0-0.64,0-1.28,0-1.92
			C308.29,99.02,308.31,99.02,308.32,99.01z"/>
		<path class="st0" d="M307.99,109.45c0-0.65,0-1.29,0-1.94c0.02,0,0.03,0,0.05,0c0,0.64,0,1.28,0,1.93
			C308.02,109.44,308.01,109.45,307.99,109.45z"/>
		<path class="st0" d="M308.41,96.23c0,0.64,0,1.28,0,1.92c-0.02,0-0.03,0-0.05,0c0-0.65,0-1.29,0-1.94
			C308.38,96.22,308.4,96.22,308.41,96.23z"/>
		<path class="st0" d="M308.09,106.55c0-0.61,0-1.23,0-1.84c0.02,0,0.03,0,0.05,0c0,0.61,0,1.22,0,1.83
			C308.12,106.55,308.1,106.55,308.09,106.55z"/>
		<path class="st0" d="M307.95,126.41c0,0.61,0,1.22,0,1.83c-0.02,0-0.03,0-0.05,0c0-0.61,0-1.23,0-1.84
			C307.92,126.41,307.94,126.41,307.95,126.41z"/>
		<path class="st0" d="M254.39,92.57c0.58,0,1.17,0,1.75,0c0,0.02,0,0.03,0,0.05c-0.58,0-1.17,0-1.75,0
			C254.39,92.6,254.39,92.59,254.39,92.57z"/>
		<path class="st0" d="M266.87,78.51c-0.38,0-0.77,0-1.15,0c0-0.02,0-0.03,0-0.05c0.39,0,0.78,0,1.18,0
			C266.89,78.48,266.88,78.5,266.87,78.51z"/>
		<path class="st0" d="M257.58,76.2c0.38,0,0.77,0,1.15,0c0,0.02,0,0.03,0,0.05c-0.39,0-0.78,0-1.17,0
			C257.57,76.23,257.58,76.22,257.58,76.2z"/>
		<path class="st0" d="M261.96,87.52c0.4,0,0.79,0,1.19,0c0,0.02,0,0.03,0,0.05c-0.39,0-0.78,0-1.18,0
			C261.97,87.55,261.97,87.54,261.96,87.52z"/>
		<path class="st0" d="M261.87,78.83c0.33,0,0.67,0,1,0c0,0.02,0,0.03,0,0.05c-0.33,0-0.67,0-1,0
			C261.88,78.86,261.88,78.85,261.87,78.83z"/>
		<path class="st0" d="M258.76,87.94c-0.33,0-0.67,0-1,0C258.09,87.85,258.43,87.87,258.76,87.94z"/>
		<path class="st0" d="M308.05,124.91c0,0.27,0,0.53,0,0.8c-0.02,0-0.03,0-0.05,0c0-0.27,0-0.54,0-0.81
			C308.02,124.91,308.03,124.91,308.05,124.91z"/>
		<path class="st0" d="M276.09,94.94c0-0.26,0-0.52,0-0.78C276.19,94.43,276.17,94.7,276.09,94.94z"/>
		<path class="st0" d="M308.14,123.53c0,0.26,0,0.52,0,0.78C308.04,124.04,308.06,123.77,308.14,123.53z"/>
		<path class="st0" d="M294.6,123.7c0.28,0,0.55,0,0.83,0c0,0.01,0,0.03,0,0.04c-0.28,0-0.55,0-0.83,0
			C294.6,123.73,294.6,123.72,294.6,123.7z"/>
		<ellipse class="st0" cx="308.21" cy="122.32" rx="0.03" ry="0.58"/>
		<path class="st0" d="M294.2,118.16c0,0.27,0,0.54,0,0.82c-0.01,0-0.03,0-0.04,0c0-0.27,0-0.54,0-0.82
			C294.17,118.16,294.19,118.16,294.2,118.16z"/>
		<path class="st0" d="M258.98,91.26c0.24,0,0.47,0,0.71,0c0,0.02,0,0.03,0,0.05c-0.24,0-0.48,0-0.72,0
			C258.97,91.29,258.98,91.28,258.98,91.26z"/>
		<path class="st0" d="M250.09,79.82c0-0.21,0-0.42,0-0.62c0.02,0,0.03,0,0.05,0c0,0.21,0,0.42,0,0.63
			C250.12,79.82,250.1,79.82,250.09,79.82z"/>
		<path class="st0" d="M276.74,101.54c0.21,0,0.41,0,0.62,0c0,0.02,0,0.03,0,0.05c-0.21,0-0.41,0-0.62,0
			C276.75,101.57,276.74,101.55,276.74,101.54z"/>
		<path class="st0" d="M290.4,109.45c0-0.18,0-0.35,0-0.66C290.51,109.09,290.48,109.27,290.4,109.45z"/>
		<path class="st0" d="M292.61,85.12c-0.19,0.05-0.36,0.07-0.6,0C292.26,85.05,292.44,85.07,292.61,85.12z"/>
		<path class="st0" d="M267.2,88.23c0-0.18,0-0.35,0-0.53c0.02,0,0.03,0,0.05,0c0,0.17,0,0.35,0,0.52
			C267.23,88.23,267.22,88.23,267.2,88.23z"/>
		<path class="st0" d="M288.31,122.77c0,0.18,0,0.35,0,0.59C288.19,123.12,288.26,122.93,288.31,122.77z"/>
		<path class="st0" d="M297.02,87.27c0.27-0.06,0.41-0.07,0.61-0.01C297.43,87.33,297.28,87.32,297.02,87.27z"/>
		<path class="st0" d="M298.12,87.37c0.18-0.08,0.34-0.07,0.53-0.01C298.46,87.44,298.31,87.42,298.12,87.37z"/>
		<path class="st0" d="M261.46,87.63c-0.15,0.07-0.3,0.08-0.46,0.03C261.17,87.54,261.32,87.63,261.46,87.63z"/>
		<path class="st0" d="M259.17,87.84c0.22-0.08,0.36-0.07,0.52,0C259.55,87.84,259.4,87.84,259.17,87.84z"/>
		<path class="st0" d="M255.67,89.76c-0.18,0.08-0.26,0.17-0.33,0.3C255.28,89.82,255.35,89.73,255.67,89.76z"/>
		<path class="st0" d="M258.69,95.43c0-0.15,0-0.29,0-0.57C258.79,95.13,258.77,95.29,258.69,95.43z"/>
		<path class="st0" d="M290.56,108.17c0,0.15,0,0.3,0,0.44c-0.02,0-0.03,0-0.05,0c0-0.15,0-0.3,0-0.45
			C290.53,108.17,290.54,108.17,290.56,108.17z"/>
		<path class="st0" d="M289.84,124.95c0.15-0.07,0.3-0.08,0.46-0.03C290.14,125.04,289.98,124.95,289.84,124.95z"/>
		<path class="st0" d="M292.96,117.16c-0.18,0.09-0.3,0.06-0.48,0.03C292.66,117.1,292.79,117.14,292.96,117.16z"/>
		<path class="st0" d="M266.96,85.05c0.05,0.15,0.07,0.27-0.01,0.42C266.89,85.32,266.88,85.19,266.96,85.05z"/>
		<path class="st0" d="M277.74,93.09c-0.11-0.2-0.07-0.32-0.06-0.52C277.79,92.76,277.75,92.89,277.74,93.09z"/>
		<path class="st0" d="M264.31,96.34c-0.15,0.06-0.27,0.06-0.42,0C264.04,96.27,264.17,96.27,264.31,96.34z"/>
		<path class="st0" d="M267.92,82.91c-0.11-0.21-0.07-0.33-0.07-0.54C267.97,82.57,267.92,82.7,267.92,82.91z"/>
		<path class="st0" d="M293.55,120.07c0.15-0.06,0.27-0.06,0.42,0.01C293.82,120.14,293.69,120.15,293.55,120.07z"/>
		<path class="st0" d="M250.39,81.17c-0.05-0.15-0.07-0.28,0.01-0.42C250.46,80.89,250.47,81.02,250.39,81.17z"/>
		<path class="st0" d="M263.62,89.82c-0.12,0-0.24,0-0.44,0C263.38,89.72,263.5,89.74,263.62,89.82z"/>
		<path class="st0" d="M264.02,78.87c0.11-0.09,0.22-0.07,0.35-0.04C264.27,78.98,264.14,78.85,264.02,78.87z"/>
		<path class="st0" d="M264.98,88.36c-0.06-0.15-0.06-0.27,0.01-0.42C265.05,88.09,265.06,88.22,264.98,88.36z"/>
		<path class="st0" d="M260.09,87.75c0.2-0.09,0.32-0.08,0.46-0.04C260.43,87.83,260.3,87.77,260.09,87.75z"/>
		<path class="st0" d="M274.25,101.02c-0.16,0.04-0.25,0.07-0.34-0.02C274.01,100.94,274.11,100.95,274.25,101.02z"/>
		<path class="st0" d="M261.28,89.14c0.1-0.07,0.19-0.06,0.32,0C261.48,89.2,261.38,89.21,261.28,89.14z"/>
		<path class="st0" d="M256.73,76.29c0.08,0.01,0.24,0.01,0.24,0.02c0.01,0.11-0.09,0.05-0.14,0.06c-0.04,0.01-0.08-0.02-0.12-0.03
			C256.71,76.33,256.72,76.31,256.73,76.29z"/>
		<path class="st0" d="M294.36,119.69c-0.06-0.14-0.05-0.23,0-0.34C294.43,119.47,294.42,119.56,294.36,119.69z"/>
		<path class="st0" d="M289.44,124.83c-0.1,0.07-0.19,0.08-0.29,0.02C289.25,124.76,289.35,124.82,289.44,124.83z"/>
		<path class="st0" d="M292.19,124.9c0.1,0.09,0.05,0.18,0.06,0.3C292.11,125.1,292.2,125,292.19,124.9z"/>
		<path class="st0" d="M281.54,88.38c0.16-0.04,0.25-0.07,0.34,0.02C281.78,88.45,281.69,88.45,281.54,88.38z"/>
		<path class="st0" d="M282.21,88.3c0.14-0.06,0.24-0.07,0.34,0C282.45,88.37,282.35,88.35,282.21,88.3z"/>
		<path class="st0" d="M302.94,88.63c0.08,0.01,0.24,0.01,0.24,0.02c0.01,0.12-0.09,0.05-0.14,0.06c-0.04,0.01-0.08-0.02-0.12-0.03
			C302.92,88.67,302.93,88.65,302.94,88.63z"/>
		<path class="st0" d="M306.82,130.28c0.13-0.09,0.22-0.05,0.36-0.05C307.05,130.35,306.96,130.31,306.82,130.28z"/>
		<path class="st0" d="M307.49,130.37c0.09-0.09,0.19-0.06,0.29-0.03C307.69,130.46,307.6,130.41,307.49,130.37z"/>
		<path class="st0" d="M295.8,123.63c0.1-0.06,0.2-0.06,0.32,0C296,123.69,295.9,123.7,295.8,123.63z"/>
		<path class="st0" d="M308.11,121.45c-0.06-0.1-0.06-0.19,0-0.32C308.18,121.25,308.18,121.34,308.11,121.45z"/>
		<path class="st0" d="M258.32,91.15c0.08,0.01,0.24,0.01,0.24,0.02c0.01,0.11-0.09,0.05-0.14,0.06c-0.04,0.01-0.08-0.02-0.12-0.03
			C258.3,91.19,258.31,91.17,258.32,91.15z"/>
		<path class="st0" d="M192.05,78.88c-0.52,0-1.04,0-1.56,0c0-0.02,0-0.03,0-0.05c0.52,0,1.04,0,1.57,0
			C192.05,78.84,192.05,78.86,192.05,78.88z"/>
		<path class="st0" d="M187.65,63.93c-0.39,0-0.77,0-1.16,0c0-0.02,0-0.03,0-0.05c0.39,0,0.78,0,1.18,0
			C187.66,63.9,187.65,63.92,187.65,63.93z"/>
		<path class="st0" d="M176.47,81.89c0-0.4,0-0.79,0-1.19c0.01,0,0.03,0,0.04,0c0,0.4,0,0.8,0,1.19
			C176.5,81.89,176.49,81.89,176.47,81.89z"/>
		<path class="st0" d="M195.35,92.43c-0.37,0-0.73,0-1.1,0c0-0.01,0-0.03,0-0.04c0.37,0,0.73,0,1.1,0
			C195.35,92.4,195.35,92.42,195.35,92.43z"/>
		<path class="st0" d="M194.14,69.39c0.36,0,0.73,0,1.09,0c0,0.01,0,0.02,0,0.04c-0.36,0-0.73,0-1.09,0
			C194.14,69.41,194.14,69.4,194.14,69.39z"/>
		<path class="st0" d="M203.22,70.7c0.34,0,0.67,0,1.01,0c0,0.02,0,0.03,0,0.05c-0.33,0-0.67,0-1,0
			C203.23,70.73,203.22,70.71,203.22,70.7z"/>
		<path class="st0" d="M202.42,77.52c-0.15-0.25,0.12-0.59-0.34-0.74C202.49,76.84,202.49,76.84,202.42,77.52z"/>
		<path class="st0" d="M196.61,69.66c0.29,0,0.58,0,0.87,0C197.17,69.76,196.87,69.75,196.61,69.66z"/>
		<path class="st0" d="M198.06,66.72c0.28-0.06,0.51-0.1,0.85,0C198.56,66.72,198.31,66.72,198.06,66.72z"/>
		<path class="st0" d="M178.07,99.93c0-0.25,0-0.5,0-0.75c0.02,0,0.03,0,0.05,0c0,0.25,0,0.5,0,0.75
			C178.1,99.93,178.08,99.93,178.07,99.93z"/>
		<path class="st0" d="M177.59,102.07c0-0.21,0-0.41,0-0.62c0.02,0,0.03,0,0.05,0c0,0.21,0,0.41,0,0.62
			C177.62,102.07,177.61,102.07,177.59,102.07z"/>
		<path class="st0" d="M185.45,65.04c0-0.2,0-0.41,0-0.61c0.02,0,0.03,0,0.05,0c0,0.21,0,0.41,0,0.62
			C185.48,65.05,185.46,65.04,185.45,65.04z"/>
		<path class="st0" d="M204.72,70.78c0.21,0,0.41,0,0.62,0c0,0.02,0,0.03,0,0.05c-0.21,0-0.41,0-0.62,0
			C204.72,70.82,204.72,70.8,204.72,70.78z"/>
		<path class="st0" d="M176.81,104.44c0,0.21,0,0.41,0,0.62c-0.02,0-0.03,0-0.05,0c0-0.21,0-0.42,0-0.62
			C176.78,104.44,176.79,104.44,176.81,104.44z"/>
		<path class="st0" d="M193.08,69.61c-0.2,0.02-0.38,0.07-0.58-0.02C192.73,69.54,192.91,69.53,193.08,69.61z"/>
		<path class="st0" d="M209.3,68.6c0-0.17,0-0.35,0-0.66C209.4,68.24,209.38,68.42,209.3,68.6z"/>
		<path class="st0" d="M199.73,76.08c-0.18,0-0.35,0-0.53,0c0-0.02,0-0.03,0-0.05c0.18,0,0.35,0,0.53,0
			C199.73,76.05,199.73,76.06,199.73,76.08z"/>
		<path class="st0" d="M184.46,78.57c-0.25,0.07-0.43,0.05-0.69,0.01C184.03,78.51,184.21,78.51,184.46,78.57z"/>
		<path class="st0" d="M193.22,64.36c-0.18,0.08-0.34,0.07-0.53,0.01C192.88,64.29,193.04,64.3,193.22,64.36z"/>
		<path class="st0" d="M185.88,68.88c-0.15,0-0.29,0-0.49,0C185.58,68.75,185.74,68.83,185.88,68.88z"/>
		<path class="st0" d="M187.67,81.78c-0.15,0-0.29,0-0.44,0c0-0.01,0-0.03,0-0.04c0.14,0,0.29,0,0.43,0
			C187.66,81.75,187.66,81.77,187.67,81.78z"/>
		<path class="st0" d="M185.92,87.52c0.15,0,0.29,0,0.44,0C186.21,87.61,186.06,87.6,185.92,87.52z"/>
		<path class="st0" d="M189.88,98.71c-0.06-0.16-0.08-0.3-0.02-0.47C189.97,98.41,189.89,98.56,189.88,98.71z"/>
		<path class="st0" d="M182.96,101.49c0.06,0.19,0.07,0.34-0.01,0.52C182.89,101.83,182.88,101.68,182.96,101.49z"/>
		<path class="st0" d="M190.68,102.61c0.15-0.06,0.3-0.08,0.47-0.02C190.98,102.69,190.83,102.61,190.68,102.61z"/>
		<path class="st0" d="M173.34,93.66c-0.09-0.11-0.07-0.23-0.04-0.36C173.44,93.41,173.32,93.54,173.34,93.66z"/>
		<path class="st0" d="M187.51,69.42c-0.14,0.06-0.27,0.07-0.41-0.01C187.24,69.35,187.37,69.34,187.51,69.42z"/>
		<path class="st0" d="M184.6,68.96c0.12-0.07,0.24-0.08,0.37-0.02C184.84,69.05,184.72,68.96,184.6,68.96z"/>
		<path class="st0" d="M182.11,98.52c-0.04-0.14-0.08-0.26,0.01-0.38C182.19,98.28,182.15,98.41,182.11,98.52z"/>
		<path class="st0" d="M181.92,91.73c0.05,0.21,0.07,0.33,0.01,0.46C181.84,92.05,181.87,91.93,181.92,91.73z"/>
		<path class="st0" d="M186.03,81.57c0.18-0.07,0.3-0.07,0.46-0.02C186.34,81.64,186.22,81.61,186.03,81.57z"/>
		<path class="st0" d="M183.07,101.14c-0.09-0.2-0.08-0.32-0.04-0.46C183.14,100.8,183.08,100.92,183.07,101.14z"/>
		<path class="st0" d="M188.23,79.91c-0.11-0.11-0.1-0.23-0.02-0.48C188.22,79.68,188.23,79.8,188.23,79.91z"/>
		<path class="st0" d="M189.32,78.62c-0.12-0.01-0.23-0.01-0.4-0.03C189.11,78.49,189.24,78.54,189.32,78.62z"/>
		<path class="st0" d="M212.96,62c0.08,0.2,0.08,0.32,0.04,0.45C212.88,62.33,212.94,62.21,212.96,62z"/>
		<path class="st0" d="M212.17,61.46c-0.13,0.06-0.25,0.08-0.37,0.02C211.93,61.37,212.06,61.46,212.17,61.46z"/>
		<path class="st0" d="M181.94,73.25c-0.1-0.18-0.06-0.3-0.04-0.48C182,72.95,181.97,73.07,181.94,73.25z"/>
		<path class="st0" d="M192.74,89.27c0-0.12,0-0.23,0-0.37C192.88,89.02,192.81,89.14,192.74,89.27z"/>
		<path class="st0" d="M176.88,84.55c0.04,0.16,0.07,0.25-0.02,0.34C176.81,84.79,176.81,84.7,176.88,84.55z"/>
		<path class="st0" d="M176.85,83.54c0.1,0.12,0.05,0.21,0.07,0.39C176.8,83.76,176.83,83.66,176.85,83.54z"/>
		<path class="st0" d="M195.12,95.71c0.06,0.1,0.06,0.2,0,0.32C195.05,95.91,195.04,95.82,195.12,95.71z"/>
		<path class="st0" d="M185.42,81.47c0.11-0.06,0.2-0.06,0.31,0C185.62,81.54,185.52,81.54,185.42,81.47z"/>
		<path class="st0" d="M189.18,100.85c0.01-0.08,0.01-0.24,0.02-0.24c0.12-0.01,0.05,0.09,0.06,0.14c0.01,0.04-0.02,0.08-0.03,0.12
			C189.22,100.87,189.2,100.86,189.18,100.85z"/>
		<path class="st0" d="M196.49,77.88c0.08,0.01,0.24,0.01,0.24,0.02c0.01,0.11-0.09,0.05-0.14,0.06c-0.04,0.01-0.08-0.02-0.12-0.03
			C196.47,77.92,196.48,77.9,196.49,77.88z"/>
		<path class="st0" d="M181.24,106.81c-0.1,0.06-0.2,0.06-0.32,0C181.04,106.74,181.13,106.73,181.24,106.81z"/>
		<path class="st0" d="M181.82,76.61c0.07,0.14,0.08,0.24,0.02,0.34C181.75,76.86,181.78,76.76,181.82,76.61z"/>
		<path class="st0" d="M179.3,70.94c0.09,0.09,0.06,0.19,0.03,0.29C179.21,71.14,179.26,71.05,179.3,70.94z"/>
		<path class="st0" d="M206.4,70.82c-0.1,0.06-0.2,0.06-0.32,0C206.2,70.75,206.3,70.74,206.4,70.82z"/>
		<path class="st0" d="M193.42,69.54c0.14-0.11,0.24-0.06,0.37-0.07C193.66,69.6,193.56,69.53,193.42,69.54z"/>
		<path class="st0" d="M202.46,65.78c0.1-0.07,0.19-0.07,0.29-0.02C202.65,65.85,202.55,65.8,202.46,65.78z"/>
		<path class="st0" d="M203.43,65.67c-0.14,0.06-0.24,0.07-0.34,0C203.19,65.6,203.29,65.62,203.43,65.67z"/>
		<path class="st0" d="M203.74,65.59c0.13-0.08,0.23-0.05,0.35-0.02C203.96,65.65,203.87,65.64,203.74,65.59z"/>
		<path class="st0" d="M118.85,115.01c1.08,0,2.16,0,3.25,0c0,0.02,0,0.03,0,0.05c-1.08,0-2.17,0-3.25,0
			C118.85,115.04,118.85,115.02,118.85,115.01z"/>
		<path class="st0" d="M142.18,119.93c-1.01,0-2.02,0-3.02,0c0-0.02,0-0.03,0-0.05c1.01,0,2.03,0,3.04,0
			C142.2,119.89,142.19,119.91,142.18,119.93z"/>
		<path class="st0" d="M103.18,118.04c-0.99,0-1.98,0-2.97,0c0-0.02,0-0.03,0-0.05c0.99,0,1.98,0,2.97,0
			C103.19,118.01,103.18,118.03,103.18,118.04z"/>
		<path class="st0" d="M112.22,119.59c0.73,0,1.47,0,2.2,0c0,0.02,0,0.03,0,0.05c-0.74,0-1.48,0-2.22,0
			C112.21,119.62,112.21,119.6,112.22,119.59z"/>
		<path class="st0" d="M94.69,108.86c0.26-0.28,0.53-0.55,0.71-0.69C95.23,108.33,94.96,108.6,94.69,108.86z"/>
		<path class="st0" d="M133.25,124.54c0.42,0,0.85,0,1.27,0c0,0.01,0,0.03,0,0.04c-0.42,0-0.84,0-1.26,0
			C133.25,124.56,133.25,124.55,133.25,124.54z"/>
		<path class="st0" d="M138.44,119.83c-0.38,0-0.77,0-1.15,0c0-0.02,0-0.03,0-0.05c0.39,0,0.78,0,1.17,0
			C138.45,119.8,138.45,119.82,138.44,119.83z"/>
		<path class="st0" d="M136.2,116.49c0,0.37,0,0.73,0,1.1c-0.01,0-0.03,0-0.04,0c0-0.37,0-0.73,0-1.1
			C136.18,116.49,136.19,116.49,136.2,116.49z"/>
		<path class="st0" d="M140.32,123.28c-0.33,0-0.66,0-0.99,0c0-0.02,0-0.03,0-0.05c0.34,0,0.67,0,1.01,0
			C140.33,123.25,140.32,123.27,140.32,123.28z"/>
		<path class="st0" d="M128.57,113.51c0.27,0,0.54,0,0.8,0c0,0.01,0,0.03,0,0.04c-0.27,0-0.53,0-0.8,0
			C128.58,113.54,128.57,113.52,128.57,113.51z"/>
		<path class="st0" d="M128.76,123.51c0.27,0,0.54,0,0.82,0c0,0.02,0,0.03,0,0.05c-0.27,0-0.54,0-0.81,0
			C128.76,123.54,128.76,123.53,128.76,123.51z"/>
		<ellipse class="st0" cx="116.91" cy="119.14" rx="0.59" ry="0.03"/>
		<path class="st0" d="M98.72,117.9c0.25,0,0.5,0,0.74,0c0,0.02,0,0.03,0,0.05c-0.25,0-0.5,0-0.74,0
			C98.72,117.94,98.72,117.92,98.72,117.9z"/>
		<path class="st0" d="M105.94,110.64c0.18-0.07,0.35-0.07,0.6-0.01C106.29,110.71,106.11,110.68,105.94,110.64z"/>
		<path class="st0" d="M90.35,113.54c0.23-0.08,0.41-0.07,0.64-0.01C90.76,113.61,90.58,113.59,90.35,113.54z"/>
		<path class="st0" d="M93.02,112.97c-0.27,0.06-0.42,0.07-0.61,0.01C92.6,112.91,92.76,112.92,93.02,112.97z"/>
		<path class="st0" d="M92.1,113.69c0.15,0,0.29,0,0.48,0C92.39,113.82,92.24,113.73,92.1,113.69z"/>
		<path class="st0" d="M147.3,126.66c0.08,0.14,0.06,0.28,0.02,0.48C147.19,126.94,147.32,126.8,147.3,126.66z"/>
		<path class="st0" d="M145.09,119.42c0.23-0.04,0.35-0.08,0.46,0.04C145.42,119.52,145.32,119.47,145.09,119.42z"/>
		<path class="st0" d="M142.79,119.82c0.11-0.09,0.23-0.07,0.35-0.04C143.03,119.92,142.9,119.79,142.79,119.82z"/>
		<path class="st0" d="M108.46,120.36c-0.14,0.06-0.27,0.07-0.41-0.01C108.2,120.3,108.32,120.29,108.46,120.36z"/>
		<path class="st0" d="M124.3,122.68c-0.18,0.09-0.3,0.06-0.48,0.03C124,122.62,124.13,122.65,124.3,122.68z"/>
		<path class="st0" d="M103.66,108.84c-0.2,0.08-0.32,0.08-0.45,0.04C103.32,108.76,103.45,108.83,103.66,108.84z"/>
		<path class="st0" d="M100.08,110.15c-0.18,0.09-0.31,0.06-0.49,0.03C99.78,110.09,99.9,110.13,100.08,110.15z"/>
		<path class="st0" d="M93.72,111.26c-0.07-0.14-0.07-0.27-0.01-0.41C93.79,110.99,93.77,111.12,93.72,111.26z"/>
		<path class="st0" d="M91.78,113.61c-0.2,0.08-0.32,0.08-0.45,0.04C91.44,113.52,91.57,113.59,91.78,113.61z"/>
		<path class="st0" d="M93.45,113.86c-0.12-0.01-0.23-0.01-0.4-0.03C93.23,113.73,93.36,113.77,93.45,113.86z"/>
		<path class="st0" d="M118.38,114.94c-0.15,0.06-0.27,0.07-0.41-0.01C118.11,114.87,118.24,114.86,118.38,114.94z"/>
		<path class="st0" d="M108.28,110.6c0.08,0,0.17,0,0.26,0C108.45,110.75,108.35,110.64,108.28,110.6z"/>
		<path class="st0" d="M125.62,111.11c-0.16,0.04-0.26,0.07-0.35-0.02C125.37,111.04,125.47,111.04,125.62,111.11z"/>
		<path class="st0" d="M89.1,113.8c-0.06,0.02-0.1,0-0.08-0.06c0.01-0.04,0.05-0.08,0.08-0.09c0.03-0.01,0.1,0.02,0.11,0.04
			C89.23,113.77,89.14,113.76,89.1,113.8z"/>
		<path class="st0" d="M130.3,113.74c0.12-0.1,0.22-0.05,0.39-0.07C130.52,113.8,130.42,113.76,130.3,113.74z"/>
		<path class="st0" d="M131.25,113.86c-0.08-0.01-0.23-0.01-0.24-0.02c-0.01-0.11,0.09-0.05,0.14-0.06
			c0.04-0.01,0.08,0.02,0.12,0.03C131.27,113.82,131.26,113.84,131.25,113.86z"/>
		<path class="st0" d="M117.35,114.8c0.08,0.01,0.24,0.01,0.24,0.02c0.01,0.12-0.09,0.05-0.14,0.06c-0.04,0.01-0.08-0.02-0.12-0.03
			C117.33,114.84,117.34,114.82,117.35,114.8z"/>
		<path class="st0" d="M135.34,115.3c-0.14,0.08-0.24,0.07-0.34,0.02C135.09,115.23,135.18,115.27,135.34,115.3z"/>
		<path class="st0" d="M143.48,119.71c0.14-0.06,0.24-0.07,0.34,0C143.72,119.77,143.63,119.76,143.48,119.71z"/>
		<path class="st0" d="M124.52,122.79c0.1-0.07,0.19-0.06,0.32,0C124.72,122.85,124.62,122.86,124.52,122.79z"/>
		<path class="st0" d="M128.06,123.45c0.13-0.08,0.23-0.05,0.35-0.02C128.29,123.51,128.19,123.5,128.06,123.45z"/>
		<path class="st0" d="M115.07,119.56c-0.08-0.01-0.24-0.01-0.24-0.02c-0.01-0.11,0.09-0.05,0.14-0.06
			c0.04-0.01,0.08,0.02,0.12,0.03C115.09,119.52,115.08,119.54,115.07,119.56z"/>
		<path class="st0" d="M110.16,120.34c-0.12,0.1-0.21,0.05-0.4,0.07C109.95,120.28,110.04,120.32,110.16,120.34z"/>
		<path class="st0" d="M246.63,96.92c0-0.58,0-1.17,0-1.75c0.02,0,0.03,0,0.05,0c0,0.58,0,1.17,0,1.75
			C246.66,96.92,246.65,96.92,246.63,96.92z"/>
		<path class="st0" d="M245.31,94c0-0.42,0-0.83,0-1.25c0.02,0,0.03,0,0.05,0c0,0.43,0,0.86,0,1.29
			C245.35,94.03,245.33,94.01,245.31,94z"/>
		<path class="st0" d="M230.54,91.87c0-0.4,0-0.79,0-1.19c0.02,0,0.03,0,0.05,0c0,0.4,0,0.8,0,1.2
			C230.58,91.87,230.56,91.87,230.54,91.87z"/>
		<path class="st0" d="M235.01,91.64c0.34,0,0.67,0,1.01,0C235.68,91.73,235.35,91.72,235.01,91.64z"/>
		<path class="st0" d="M236.26,94.53c0.27,0,0.53,0,0.8,0c0,0.01,0,0.03,0,0.04c-0.28,0-0.56,0-0.84,0
			C236.24,94.56,236.25,94.55,236.26,94.53z"/>
		<path class="st0" d="M233.52,94.72c0.25,0,0.5,0,0.75,0c0,0.02,0,0.03,0,0.05c-0.25,0-0.5,0-0.75,0
			C233.52,94.75,233.52,94.74,233.52,94.72z"/>
		<path class="st0" d="M239.4,90.75c-0.22,0-0.44,0-0.65,0c0-0.02,0-0.03,0-0.05c0.22,0,0.44,0,0.65,0
			C239.4,90.72,239.4,90.73,239.4,90.75z"/>
		<path class="st0" d="M235.28,94.4c-0.18,0-0.35,0-0.53,0c0-0.01,0-0.03,0-0.04c0.17,0,0.35,0,0.52,0
			C235.27,94.37,235.28,94.38,235.28,94.4z"/>
		<path class="st0" d="M239.58,94.36c-0.1,0.06-0.19,0.09-0.28,0C239.4,94.29,239.5,94.34,239.58,94.36z"/>
		<path class="st0" d="M245.63,97.26c-0.14,0.08-0.23,0.08-0.34,0.02C245.38,97.19,245.47,97.22,245.63,97.26z"/>
		<path class="st0" d="M234.25,92.08c-0.08-0.01-0.24-0.01-0.24-0.02c-0.01-0.12,0.09-0.05,0.14-0.06c0.04-0.01,0.08,0.02,0.12,0.03
			C234.26,92.04,234.25,92.06,234.25,92.08z"/>
		<path class="st0" d="M179.86,134.64c-0.35-0.35-0.69-0.7-1.04-1.05c-0.03,0.03-0.07,0.06-0.1,0.1c0.34,0.36,0.68,0.71,1.02,1.07
			C179.78,134.71,179.82,134.68,179.86,134.64z"/>
		<path class="st0" d="M182.77,131.79c-0.6,0-1.21,0-1.81,0c0-0.02,0-0.03,0-0.05c0.62,0,1.23,0,1.85,0
			C182.79,131.76,182.78,131.78,182.77,131.79z"/>
		<path class="st0" d="M180.25,129.83c-0.42,0-0.85,0-1.27,0c0-0.02,0-0.03,0-0.05c0.43,0,0.86,0,1.29,0
			C180.27,129.8,180.26,129.81,180.25,129.83z"/>
		<path class="st0" d="M183.63,136.46c-0.37,0-0.73,0-1.1,0c0-0.02,0-0.03,0-0.05c0.37,0,0.73,0,1.1,0
			C183.63,136.43,183.63,136.44,183.63,136.46z"/>
		<path class="st0" d="M175.71,130.46c0.27-0.08,0.46-0.06,0.74-0.02C176.17,130.52,175.98,130.51,175.71,130.46z"/>
		<path class="st0" d="M184.71,136.34c-0.18,0.08-0.34,0.07-0.52,0.01C184.37,136.27,184.52,136.28,184.71,136.34z"/>
		<path class="st0" d="M175.57,132.88c-0.18,0.07-0.3,0.07-0.46,0.02C175.26,132.81,175.38,132.84,175.57,132.88z"/>
		<path class="st0" d="M183.49,132.2c0.08,0.21,0.07,0.33,0.04,0.46C183.41,132.53,183.48,132.41,183.49,132.2z"/>
		<path class="st0" d="M176.81,132.88c0.1-0.06,0.19-0.06,0.32,0C177.01,132.95,176.91,132.95,176.81,132.88z"/>
		<path class="st0" d="M41.38,62.06c-0.27,0.01-0.43,0.05-0.58-0.04C40.97,61.97,41.13,61.95,41.38,62.06z"/>
		<path class="st0" d="M44.63,67.29c-0.12,0-0.24,0-0.4,0C44.39,67.18,44.52,67.21,44.63,67.29z"/>
		<path class="st0" d="M43.3,61.4c0.06,0.14,0.07,0.27-0.01,0.41C43.23,61.67,43.22,61.54,43.3,61.4z"/>
		<path class="st0" d="M228.93,60.76c0.17,0.91,0.75,1.66,0.97,2.56c0.08,0.3,0.02,0.52-0.18,0.72c-0.18,0.17-0.36,0.34-0.57,0.48
			c-0.45,0.3-0.72,0.71-0.88,1.21c-0.07,0.21-0.07,0.43,0,0.64c0.19,0.48,0.33,0.99,0.66,1.4c0.16,0.09,0.31,0.09,0.47,0
			c0.25-0.3,0.35-0.67,0.47-1.02c0.07-0.15,0.07-0.31,0-0.46c0.03-0.13,0.06-0.25,0.09-0.38c0.11-0.14-0.02-0.32,0.09-0.46
			c-0.01-0.21,0.05-0.43,0.23-0.53c0.85-0.47,1.5-1.17,2.17-1.85c0.33-0.34,0.76-0.38,1.16-0.53c0.18,0.07,0.37,0.07,0.55,0
			c0.15,0.08,0.28,0.18,0.28,0.37c0.11,0.14-0.02,0.33,0.09,0.46c-0.2,0.69-0.46,1.34-0.9,1.92c-0.23,0.3-0.52,0.48-0.84,0.63
			c-0.85,0.38-1.13,1.2-1.5,1.94c-0.13,0.25,0.03,0.54,0.27,0.69c0.43,0.27,0.92,0.37,1.41,0.49c0.37,0.09,0.75,0.04,1.11,0.15
			c0.3,0.1,0.54,0.27,0.57,0.65c0.04,0.53,0.19,1.03,0.51,1.47c0.09,0.12,0.19,0.25,0.11,0.38c-0.12,0.17-0.25,0-0.36-0.05
			c-0.81-0.37-1.55-0.86-2.2-1.46c-0.18-0.17-0.42-0.19-0.59-0.35c-0.19-0.08-0.37-0.08-0.56,0c-0.06,0-0.13,0-0.19,0
			c-0.25-0.08-0.49-0.08-0.74,0c-0.25,0.06-0.51,0.12-0.76,0.18c-0.15-0.07-0.3-0.07-0.46,0c-0.53,0.3-0.64,0.56-0.39,1.08
			c0.63,1.28,1.17,2.59,1.36,4.03c0.13,0.98,0.79,1.7,1.38,2.44c0.2,0.25,0.37,0.53,0.55,0.8c0.08,0.13,0.1,0.25,0.01,0.39
			c-0.1,0.16-0.23,0.06-0.33,0.04c-0.24-0.05-0.47-0.14-0.68-0.28c-1.14-0.73-1.95-1.71-2.36-3.01c-0.17-0.54-0.44-1.02-0.79-1.46
			c-0.35-0.45-0.48-0.93-0.14-1.46c0.54-0.82,0.47-1.59-0.18-2.34c-0.32-0.37-0.59-0.8-0.77-1.26c0.07-0.21,0.07-0.43,0-0.64
			c0.03-0.07,0.06-0.13,0.09-0.2c0.07-0.18,0.07-0.37,0-0.56c-0.38-0.8-0.76-1.59-1.13-2.39c-0.11-0.24-0.19-0.46,0.1-0.68
			c0.15-0.12,0.19-0.38,0.28-0.58c0.08-0.31,0.07-0.61,0-0.92c0.18-0.85,0.71-1.5,1.29-2.1c0.36-0.37,0.67-0.77,0.95-1.19
			c0.06-0.09,0.12-0.2,0.25-0.14c0.13,0.06,0.06,0.15,0.03,0.24C228.85,60.14,228.85,60.45,228.93,60.76z"/>
		<path class="st0" d="M228.93,60.76c-0.15-0.31-0.14-0.62,0-0.93C228.93,60.14,228.93,60.45,228.93,60.76z"/>
		<path class="st0" d="M226.41,63.02c0.14,0.31,0.15,0.61,0,0.92C226.41,63.63,226.41,63.33,226.41,63.02z"/>
		<path class="st0" d="M230.62,69.83c0.25-0.15,0.49-0.14,0.74,0C231.11,69.83,230.86,69.83,230.62,69.83z"/>
		<path class="st0" d="M228.27,66.37c-0.14-0.21-0.14-0.43,0-0.64C228.27,65.94,228.27,66.15,228.27,66.37z"/>
		<path class="st0" d="M227.06,68.34c0.14,0.21,0.15,0.43,0,0.64C227.06,68.77,227.06,68.56,227.06,68.34z"/>
		<path class="st0" d="M227.15,67.59c0.14,0.19,0.14,0.37,0,0.56C227.15,67.96,227.15,67.78,227.15,67.59z"/>
		<path class="st0" d="M234.16,62.54c-0.18,0.14-0.37,0.14-0.55,0C233.8,62.54,233.98,62.54,234.16,62.54z"/>
		<path class="st0" d="M231.55,69.83c0.19-0.14,0.37-0.14,0.56,0C231.92,69.83,231.74,69.83,231.55,69.83z"/>
		<path class="st0" d="M229.4,70.02c0.15-0.13,0.3-0.14,0.46,0C229.7,70.02,229.55,70.02,229.4,70.02z"/>
		<path class="st0" d="M229.4,67.77c-0.16,0.15-0.31,0.15-0.47,0C229.08,67.77,229.24,67.77,229.4,67.77z"/>
		<path class="st0" d="M229.86,66.28c0.14,0.15,0.14,0.31,0,0.46C229.86,66.59,229.86,66.44,229.86,66.28z"/>
		<path class="st0" d="M230.05,65.44c-0.02,0.16,0.06,0.33-0.09,0.46C229.98,65.75,229.89,65.57,230.05,65.44z"/>
		<path class="st0" d="M234.54,63.38c-0.16-0.13-0.07-0.31-0.09-0.46C234.6,63.05,234.52,63.22,234.54,63.38z"/>
		<path class="st0" d="M192.07,126.66c-0.16,0.14-0.34,0.22-0.31,0.53c0.03,0.3-0.5,0.59-0.83,0.47c-0.58-0.22-1.17-0.38-1.76-0.53
			c-0.16-0.08-0.31-0.07-0.47,0c-1.12,0.59-2.31,0.95-3.58,1.02c-0.09,0.01-0.21-0.01-0.26-0.07c-0.67-0.72-1.59-0.99-2.43-1.43
			c-0.16-0.07-0.32-0.08-0.47,0.01c0,0.36,0.19,0.79-0.37,0.92c-0.15-0.07-0.31-0.07-0.46,0c-0.03,0-0.07,0-0.1,0
			c-0.22-0.07-0.43-0.08-0.65,0c-0.38-0.08-0.75-0.15-1.13-0.23c-0.24-0.05-0.35-0.15-0.11-0.35c0.23-0.19,0.27-0.48,0.39-0.72
			c0.08-0.19,0.08-0.37,0-0.56c0.15-0.61,0.71-0.86,1.12-1.25c0.15-0.13,0.25,0.05,0.36,0.12c0.51,0.28,0.76,0.15,0.76-0.43
			c0-0.31,0.09-0.5,0.38-0.6c0.19,0.08,0.37,0.08,0.56,0c0.08,0,0.15,0.02,0.19,0.1c0.15,0.06,0.31,0.07,0.46,0
			c0.2,0.24,0.48,0.13,0.73,0.16c1.16,0.13,2.17,0.71,3.26,1.04c0.35,0.11,0.71,0.23,1.06,0.34c0.39,0.13,0.66-0.01,0.83-0.37
			c0.19-0.41,0.38-0.82,0.86-0.98c0.16-0.07,0.32-0.07,0.47,0c0.36,0.05,0.54,0.32,0.76,0.57c0.45,0.54,0.72,1.24,1.39,1.58
			c0.22,0.07,0.43,0.07,0.65,0c0.83-0.44,1.58-0.96,2-1.84c0.13-0.26,0.41-0.36,0.67-0.48c0.15-0.07,0.31-0.13,0.46-0.21
			c0.29-0.15,0.31-0.35,0.03-0.51c-0.3-0.17-0.21-0.25,0.02-0.39c0.34-0.21,0.63-0.5,1.04-0.59c0.15,0.07,0.3,0.07,0.46,0
			c0.8,0.41,0.94,1.62,0.26,2.4c-0.23,0.27-0.48,0.52-0.78,0.72c-0.39,0.26-0.74,0.56-0.97,0.98c-0.22,0.41-0.69,0.38-1.03,0.56
			c-0.5-0.07-0.99-0.08-1.49,0c-0.47-0.13-0.94-0.13-1.41,0C192.45,126.59,192.26,126.6,192.07,126.66z"/>
		<path class="st0" d="M194.04,126.67c0.49-0.15,0.99-0.15,1.49,0C195.03,126.67,194.54,126.67,194.04,126.67z"/>
		<path class="st0" d="M193.38,126.02c-0.22,0.14-0.43,0.14-0.65,0C192.95,126.02,193.16,126.02,193.38,126.02z"/>
		<path class="st0" d="M180.38,127.6c0.22-0.15,0.43-0.14,0.65,0C180.81,127.6,180.6,127.6,180.38,127.6z"/>
		<path class="st0" d="M182.71,123.58c-0.19,0.14-0.37,0.14-0.56,0C182.34,123.58,182.53,123.58,182.71,123.58z"/>
		<path class="st0" d="M179.54,125.74c0.14,0.19,0.14,0.37,0,0.56C179.54,126.11,179.54,125.92,179.54,125.74z"/>
		<path class="st0" d="M192.07,126.66c0.19-0.14,0.37-0.14,0.56,0C192.45,126.67,192.26,126.67,192.07,126.66z"/>
		<path class="st0" d="M198.05,122c-0.15,0.13-0.31,0.13-0.46,0C197.75,122,197.9,122,198.05,122z"/>
		<path class="st0" d="M181.97,126.68c0.15-0.16,0.31-0.15,0.47-0.01C182.28,126.67,182.12,126.68,181.97,126.68z"/>
		<path class="st0" d="M188.7,127.14c0.15-0.14,0.31-0.14,0.47,0C189.01,127.14,188.86,127.14,188.7,127.14z"/>
		<path class="st0" d="M181.13,127.6c0.15-0.13,0.31-0.14,0.46,0C181.44,127.6,181.29,127.6,181.13,127.6z"/>
		<path class="st0" d="M183.37,123.68c-0.15,0.14-0.31,0.13-0.46,0C183.06,123.68,183.21,123.68,183.37,123.68z"/>
		<path class="st0" d="M190.58,123.86c-0.16,0-0.32,0-0.47,0C190.26,123.73,190.42,123.72,190.58,123.86z"/>
		<path class="st0" d="M32.31,53.9c-0.36-0.24-0.66-0.54-0.9-0.9C31.76,53.24,32.07,53.54,32.31,53.9z"/>
		<path class="st0" d="M36.77,55.51c-0.24,0-0.48,0-0.71,0c0-0.02,0-0.03,0-0.05c0.24,0,0.48,0,0.73,0
			C36.77,55.48,36.77,55.49,36.77,55.51z"/>
		<path class="st0" d="M34.18,55.18c0.18,0,0.35,0,0.53,0c0,0.01,0,0.03,0.01,0.04c-0.17,0-0.34,0-0.52,0
			C34.19,55.2,34.18,55.19,34.18,55.18z"/>
		<path class="st0" d="M170.09,126.57c-0.45,0.32-0.91,0.63-1.34,0.99c-0.42,0.35-0.93,0.55-1.49,0.58
			c-0.18,0.01-0.38,0.01-0.54,0.12c-0.28-0.07-0.55-0.07-0.83,0c-0.13,0.03-0.25,0.06-0.38,0.09c-0.34-0.07-0.68-0.07-1.02,0
			c-0.1,0.03-0.2,0.06-0.29,0.09c-0.28-0.07-0.55-0.07-0.83,0c-0.1,0.03-0.19,0.06-0.29,0.1c-0.22-0.08-0.43-0.07-0.65,0
			c-0.07,0.03-0.13,0.06-0.2,0.09c-0.25-0.07-0.49-0.07-0.73,0c-0.29,0.02-0.24-0.28-0.38-0.41c-0.29-0.28-0.59-0.55-0.9-0.81
			c-0.26-0.21-0.23-0.42-0.02-0.62c0.32-0.31,0.56-0.66,0.7-1.08c0.11-0.33,0.42-0.45,0.73-0.52c0.49-0.12,0.95-0.31,1.33-0.64
			c0.2-0.17,0.4-0.16,0.6-0.06c0.62,0.29,1.26,0.43,1.94,0.38c0.34-0.03,0.58,0.11,0.66,0.49c0.08,0.41,0.37,0.71,0.66,0.99
			c0.35,0.34,0.81,0.32,1.07-0.08c0.28-0.43,0.63-0.76,1.07-1c0.09-0.12,0.07-0.25,0-0.37c-0.93-0.27-1.6-0.81-1.87-1.77
			c-0.18-0.54,0.33-0.22,0.46-0.38c0.8-0.32,1.44-0.02,2,0.54c0.11,0.11,0.23,0.21,0.35,0.3c0.5,0.35,0.61,0.32,0.93-0.21
			c0.1-0.16,0.2-0.32,0.33-0.45c0.25-0.28,0.53-0.4,0.8-0.02c0.12,0.16,0.32,0.17,0.45,0.31c0.22,0.07,0.43,0.07,0.65,0
			c0.16-0.09,0.29-0.15,0.42,0.07c0.32,0.55,0.66,1.09,1,1.63c0.29,0.46,0.31,1,0.44,1.51c0.08,0.31-0.16,0.51-0.45,0.61
			c-0.15-0.07-0.3-0.07-0.46,0c-0.07,0.03-0.13,0.06-0.2,0.09c-0.15-0.07-0.3-0.07-0.46,0c-0.44,0.16-0.88,0.3-1.31,0.47
			c-0.41,0.16-0.69,0-0.91-0.32c-0.18-0.25-0.35-0.51-0.59-0.7C170.4,126.5,170.25,126.5,170.09,126.57z"/>
		<path class="st0" d="M164.48,128.35c0.34-0.14,0.68-0.15,1.02,0C165.16,128.35,164.82,128.35,164.48,128.35z"/>
		<path class="st0" d="M167.56,122.74c-0.11,0.18-0.54-0.03-0.46,0.38C166.85,122.51,167.37,122.83,167.56,122.74z"/>
		<path class="st0" d="M165.88,128.26c0.28-0.15,0.55-0.15,0.83,0C166.44,128.26,166.16,128.26,165.88,128.26z"/>
		<path class="st0" d="M163.36,128.44c0.28-0.14,0.55-0.14,0.83,0C163.91,128.44,163.64,128.44,163.36,128.44z"/>
		<path class="st0" d="M161.49,128.63c0.24-0.15,0.49-0.15,0.73,0C161.98,128.63,161.73,128.63,161.49,128.63z"/>
		<path class="st0" d="M173.08,123.21c-0.22,0.15-0.43,0.14-0.65,0C172.65,123.21,172.86,123.21,173.08,123.21z"/>
		<path class="st0" d="M162.42,128.54c0.22-0.14,0.43-0.15,0.65,0C162.86,128.54,162.64,128.54,162.42,128.54z"/>
		<path class="st0" d="M168.97,124.89c0.11,0.13,0.19,0.25,0,0.37C168.96,125.14,168.96,125.02,168.97,124.89z"/>
		<path class="st0" d="M170.09,126.57c0.16-0.14,0.31-0.14,0.47,0C170.4,126.58,170.25,126.57,170.09,126.57z"/>
		<path class="st0" d="M174.02,127.04c0.15-0.13,0.3-0.14,0.46,0C174.33,127.04,174.18,127.04,174.02,127.04z"/>
		<path class="st0" d="M173.37,127.13c0.15-0.14,0.3-0.14,0.46,0C173.67,127.13,173.52,127.13,173.37,127.13z"/>
		<path class="st0" d="M94.7,87.41c0-0.16,0-0.32,0-0.48c0.07-0.16,0.07-0.31,0-0.46c-0.25-0.19-0.48-0.26-0.8-0.1
			c-0.41,0.21-0.59,0.07-0.7-0.4c-0.06-0.27-0.14-0.54-0.23-0.8c-0.18-0.52-0.63-0.79-1.22-0.64c-0.41,0.11-0.78,0.04-1.15-0.05
			c-0.31-0.07-0.75-0.12-0.8-0.51c-0.09-0.7,0.11-1.05,0.66-1.26c0.51-0.2,1-0.43,1.44-0.76c0.26-0.2,0.51-0.18,0.77,0.01
			c0.27,0.2,0.57,0.38,0.83,0.6c0.27,0.24,0.43,0.2,0.55-0.11c0.08-0.18,0.07-0.37,0-0.55c-0.09-0.39-0.19-0.78-0.28-1.16
			c-0.02-0.09-0.01-0.19,0.07-0.25c0.08-0.07,0.15,0,0.2,0.05c0.65,0.77,1.25,1.57,1.5,2.57c0.13,0.3-0.04,0.63,0.09,0.93
			c0.19,1.36,1.1,2.28,1.96,3.23c0.45,0.49,1.02,0.75,1.62,0.97c0.2,0.08,0.39,0.16,0.64,0.26c-0.31,0.27-0.66,0.41-0.91,0.68
			c-0.24,0.25-0.29,0.49-0.13,0.79c0.12,0.23,0.21,0.48,0.3,0.73c0.04,0.1,0.12,0.21,0.01,0.3c-0.11,0.09-0.23,0.03-0.34-0.03
			c-0.35-0.2-0.69-0.42-1.05-0.59c-0.84-0.4-1.69-0.78-2.53-1.18c-0.8-0.38-0.8-0.4-0.49-1.23C94.77,87.78,94.77,87.6,94.7,87.41z"
			/>
		<path class="st0" d="M95.63,84.03c-0.19-0.29-0.05-0.62-0.09-0.93C95.73,83.4,95.59,83.73,95.63,84.03z"/>
		<path class="st0" d="M94.7,87.41c0.14,0.18,0.14,0.37,0,0.55C94.7,87.78,94.7,87.6,94.7,87.41z"/>
		<path class="st0" d="M94.04,81.9c0.14,0.19,0.14,0.37,0,0.55C94.04,82.27,94.04,82.08,94.04,81.9z"/>
		<path class="st0" d="M94.69,86.47c0.14,0.15,0.14,0.31,0,0.46C94.69,86.78,94.69,86.63,94.69,86.47z"/>
		<path class="st0" d="M223.22,92.18c0.5,0.19,0.83,0.57,1.16,0.98c0.46,0.57,1.03,1.02,1.49,1.6c0.37,0.47,0.35,0.63-0.23,0.8
			c-0.57,0.16-1.12,0.36-1.65,0.63c-0.42,0.21-0.69,0.52-0.84,0.95c-0.09,0.25-0.19,0.49-0.37,0.69c-0.26,0.29-0.57,0.38-0.85,0.11
			c-1.01-0.99-2.3-1.56-3.47-2.31c-0.37-0.24-0.74-0.52-0.84-1.01c-0.12-0.21,0.03-0.45-0.09-0.65c-0.11-0.33-0.33-0.63-0.28-1
			c0.04-0.28,0.11-0.52,0.47-0.5c0.23-0.12,0.5,0.03,0.74-0.09c0.04,0.03,0.07,0.06,0.11,0.09c0.4,0.07,0.81,0.07,1.21,0
			c0.32,0,0.63,0,0.95,0c0.25,0.07,0.49,0.08,0.74,0c0.28-0.09,0.56-0.19,0.84-0.28C222.6,92.25,222.91,92.25,223.22,92.18z"/>
		<path class="st0" d="M219.75,92.46c-0.4,0.15-0.81,0.15-1.21,0C218.95,92.46,219.35,92.46,219.75,92.46z"/>
		<path class="st0" d="M223.22,92.18c-0.31,0.14-0.62,0.15-0.93,0C222.6,92.17,222.91,92.18,223.22,92.18z"/>
		<path class="st0" d="M218.44,92.37c-0.23,0.18-0.49,0.05-0.74,0.09C217.93,92.27,218.2,92.4,218.44,92.37z"/>
		<path class="st0" d="M221.44,92.46c-0.25,0.15-0.49,0.14-0.74,0C220.95,92.46,221.2,92.46,221.44,92.46z"/>
		<path class="st0" d="M217.52,93.96c0.18,0.2,0.06,0.44,0.09,0.65C217.43,94.41,217.55,94.17,217.52,93.96z"/>
		<path class="st0" d="M108.91,89.18c0.2,0.38,0.04,0.74-0.11,1.06c-0.3,0.61-0.66,1.19-1.04,1.86c-0.14-0.28-0.25-0.51-0.37-0.73
			c-0.34-0.66-0.58-0.72-1.21-0.34c-0.54,0.33-1.11,0.62-1.72,0.81c-0.28,0.08-0.35,0.02-0.26-0.26c0.15-0.46,0.28-0.92,0.41-1.38
			c0.07-0.28,0.07-0.55,0-0.83c-0.2-0.41-0.1-0.78,0.18-1.12c0.1-0.12,0.23-0.22,0.29-0.36c0.25-0.59,0.77-0.74,1.31-0.86
			c0.4,0.07,0.8,0.07,1.21,0c0.87,0.06,1.2,0.64,1.31,1.41C108.84,88.69,108.84,88.93,108.91,89.18z"/>
		<path class="st0" d="M107.6,87.03c-0.4,0.15-0.8,0.15-1.21,0C106.8,87.04,107.2,87.03,107.6,87.03z"/>
		<path class="st0" d="M104.61,89.38c0.15,0.28,0.15,0.55,0,0.83C104.61,89.93,104.61,89.65,104.61,89.38z"/>
		<path class="st0" d="M108.91,89.18c-0.14-0.24-0.14-0.49,0-0.73C108.91,88.69,108.91,88.93,108.91,89.18z"/>
		<path class="st0" d="M53.82,82.64c-0.03,0.26-0.23,0.17-0.38,0.19c-0.28-0.07-0.56-0.07-0.83,0c-0.49-0.04-0.77-0.34-0.95-0.77
			c-0.26-0.62-0.64-1.16-1.13-1.63c-0.2-0.19-0.25-0.46-0.36-0.69c0.08-0.5,0.08-0.99,0-1.49c0.13-0.38,0.22-0.78,0.39-1.14
			c0.33-0.74,0.89-0.8,1.35-0.13c0.54,0.78,0.87,1.68,1.23,2.55c0.28,0.69,0.6,1.36,0.77,2.09C53.78,81.95,53.94,82.31,53.82,82.64z
			"/>
		<path class="st0" d="M50.17,78.25c0.15,0.5,0.15,0.99,0,1.49C50.17,79.24,50.17,78.75,50.17,78.25z"/>
		<path class="st0" d="M53.82,82.64c0.05-0.34-0.11-0.7,0.09-1.02C53.86,81.96,54.02,82.31,53.82,82.64z"/>
		<path class="st0" d="M52.6,82.82c0.28-0.15,0.56-0.15,0.83,0C53.16,82.82,52.88,82.82,52.6,82.82z"/>
	</g>
</g>
</svg>
