<?xml version="1.0" encoding="utf-8"?>
<!-- Generator: Adobe Illustrator 25.1.0, SVG Export Plug-In . SVG Version: 6.00 Build 0)  -->
<svg version="1.1" xmlns="http://www.w3.org/2000/svg" xmlns:xlink="http://www.w3.org/1999/xlink" x="0px" y="0px"
	 viewBox="0 0 95 112" style="enable-background:new 0 0 95 112;" xml:space="preserve">
<style type="text/css">
	.st0{fill:#F1921A;}
	.st1{fill:#5E2A00;}
	.st2{fill:none;stroke:#000000;stroke-width:6;stroke-miterlimit:10;}
	.st3{fill:none;stroke:#5E2A00;stroke-miterlimit:10;}
	.st4{fill:none;stroke:#5E2A00;stroke-width:2;stroke-miterlimit:10;}
	.st5{fill:#FFFFFF;stroke:#F1921A;stroke-miterlimit:10;}
	.st6{fill:#F1921A;stroke:#FFFFFF;stroke-miterlimit:10;}
	.st7{fill:none;stroke:#F1921A;stroke-miterlimit:10;}
	.st8{fill:none;stroke:#F1921A;stroke-width:2;stroke-miterlimit:10;}
	.st9{fill:#F1921A;stroke:#F1921A;stroke-width:2;stroke-miterlimit:10;}
	.st10{fill:#FEFEFE;}
</style>
<g id="Layer_1">
	<g>
		<g>
			<path class="st1" d="M64.46,64.23c0-1.03,0-2.07,0-3.1c0-0.94,0-1.87,0-2.81c0-0.61,0-1.22,0-1.83c0-0.69,0-1.39,0-2.08
				c0-0.37,0-0.74,0-1.11c0-0.55,0-1.11,0-1.66c0-0.57,0-1.13,0-1.7c0-0.51,0-1.02,0-1.53c0-0.52,0-1.05,0-1.57
				c0-0.43,0-0.85,0-1.28c0.02-0.33,0-0.65-0.04-0.98l0,0c-0.02-0.39-0.06-0.77-0.14-1.15l0,0l0,0c-0.1-0.67-0.27-1.33-0.55-1.95
				c-0.16-0.42-0.37-0.82-0.63-1.19v0c-0.19-0.33-0.41-0.63-0.68-0.9v0c-0.33-0.42-0.72-0.78-1.15-1.1
				c-0.47-0.38-0.98-0.7-1.54-0.93c-0.42-0.2-0.85-0.38-1.32-0.47c0,0,0,0,0,0c-0.75-0.23-1.52-0.32-2.29-0.34l0,0
				c-0.57-0.06-1.14-0.08-1.71-0.07h0l0,0c-0.08,0-0.17-0.01-0.25-0.01c-2.39,0-4.77,0-7.16,0c-0.15,0-0.3,0-0.45,0.01
				c-0.12,0-0.23,0-0.35,0h0l0,0c-0.04,0-0.07-0.01-0.11-0.01c-3.11,0-6.23,0-9.34,0c-0.22,0-0.45-0.03-0.67,0.03
				c-1.02-0.01-2.03,0.08-3.03,0.32c-0.77,0.18-1.51,0.46-2.19,0.89l0,0c-0.55,0.31-1.06,0.68-1.5,1.13v0l0,0
				c-0.42,0.37-0.78,0.8-1.06,1.28h0c-0.3,0.39-0.53,0.82-0.71,1.28l0,0h0c-0.19,0.39-0.33,0.8-0.42,1.23h0
				c-0.16,0.56-0.25,1.12-0.28,1.7c0,0,0,0,0,0l0,0c-0.04,0.15-0.04,0.31-0.03,0.46c-0.01,0.01-0.01,0.02,0,0.03
				c-0.07,0.34-0.03,0.69-0.05,1.03c0,0,0,0,0,0l0,0c-0.01,0.31-0.01,0.63-0.02,0.94c0.01,0.01,0.02,0.03,0.02,0.05
				c-0.01-0.02-0.01-0.03-0.02-0.05c0,0.44,0,0.88,0,1.31c0.02-0.02,0.04-0.03,0.06-0.03c-0.02,0.01-0.04,0.02-0.06,0.03
				c0,0.31,0,0.62,0,0.94c0,0.4,0,0.79,0,1.19c0,0.4,0,0.79,0,1.19c0,0.35,0,0.71,0,1.06l0,0c0,0.26,0,0.51,0,0.77
				c0,0.33,0,0.65,0,0.98c0,0.14,0,0.28,0,0.42c0-0.02,0.01-0.03,0.01-0.05c0,0.02-0.01,0.03-0.01,0.05c0,0.2,0,0.4,0,0.6
				c0,0.14,0,0.29,0,0.43c0,0.28,0,0.57,0,0.85c0,0.21,0,0.43,0,0.64c0,0.28,0,0.57,0,0.85c0,0.28,0,0.57,0,0.85
				c0,0.31,0,0.62,0,0.93c0,0.35,0,0.71,0,1.06c0,0.25,0,0.51,0,0.76c0,0.28,0,0.57,0,0.85c0,0.52,0,1.05,0.01,1.57
				c0.01,0.24-0.04,0.49,0.02,0.73c0,0,0,0,0,0c-0.04,0.11,0,0.22,0.01,0.33c-0.01,0.44,0.02,0.88,0.08,1.32
				c0.01,0.34,0.07,0.68,0.14,1.02h0c0.05,0.32,0.12,0.64,0.24,0.94l0,0c0.1,0.43,0.28,0.84,0.48,1.23c0.05,0.13,0.1,0.26,0.2,0.35
				l0,0c0.06,0.19,0.18,0.35,0.3,0.5c0.07,0.12,0.13,0.25,0.25,0.34c0.11,0.21,0.28,0.38,0.44,0.55c0,0,0,0,0,0c0,0,0,0,0,0
				c0.06,0.11,0.15,0.19,0.24,0.26c0,0,0,0,0,0c0.11,0.12,0.21,0.25,0.35,0.33c0.08,0.1,0.19,0.18,0.29,0.26
				c0.1,0.11,0.21,0.19,0.33,0.26l0,0c0.09,0.09,0.19,0.15,0.3,0.21c0,0,0,0,0,0c0.13,0.1,0.26,0.21,0.42,0.26c0,0,0,0,0,0
				c0.17,0.13,0.36,0.23,0.56,0.3l0,0c0.15,0.09,0.31,0.16,0.47,0.21h0c0.12,0.06,0.24,0.12,0.37,0.13l0,0
				c0.23,0.1,0.47,0.18,0.72,0.21c0.25,0.08,0.51,0.14,0.77,0.16c0.39,0.09,0.79,0.13,1.19,0.13c0.3,0.08,0.6,0.06,0.9,0.07
				c1.95,0.02,3.91,0.01,5.86,0.01l0,0c0.23,0,0.45,0,0.68,0c0,0,0,0,0,0c0.42,0,0.85,0,1.27,0v0h0c0.33,0,0.65,0,0.98,0
				c0.38,0,0.77,0,1.15,0l0,0c0,0,0,0,0,0c0.45,0,0.91,0,1.36,0v0l0,0c0.34,0,0.68,0,1.02,0l0,0l0,0c0.33,0,0.65,0,0.98,0
				c0.06,0.01,0.13,0.01,0.21,0c0,0,0,0,0,0l0,0h0c0.16,0,0.31,0,0.47,0c0.41,0,0.82,0,1.23,0l0,0v0c0.4,0,0.79,0,1.19,0l0,0h0
				c0.24,0,0.48,0,0.72,0c0.28,0,0.57,0,0.85,0c0.37,0,0.73,0.02,1.1-0.01c0.05,0,0.1,0,0.15-0.02c0.05,0,0.1,0,0.16,0l0,0
				c0,0,0,0,0,0c0.29,0,0.58,0.02,0.86-0.04c0,0,0,0,0,0c0.18,0,0.37,0.02,0.54-0.05l0,0c0.19,0.02,0.37-0.02,0.55-0.05l0,0
				c0.29-0.03,0.57-0.06,0.85-0.16c0.19-0.01,0.37-0.07,0.55-0.13c0.25-0.06,0.49-0.14,0.72-0.25c0.27-0.08,0.52-0.21,0.77-0.35v0
				l0,0c0.32-0.16,0.64-0.33,0.9-0.58l0,0h0c0.04-0.02,0.09-0.05,0.13-0.07c0.26-0.18,0.51-0.37,0.72-0.61l0,0
				c0.2-0.19,0.41-0.36,0.57-0.59c0.11-0.1,0.21-0.22,0.28-0.35c0.6-0.75,1.02-1.59,1.28-2.5l0,0c0.01-0.03,0.02-0.05,0.03-0.08
				C64.42,66.99,64.5,65.62,64.46,64.23z M61.07,38.33C61.07,38.33,61.07,38.33,61.07,38.33C61.07,38.33,61.07,38.33,61.07,38.33
				C61.07,38.33,61.07,38.33,61.07,38.33z M60.98,71.27c-0.01,0-0.02-0.01-0.02-0.01c-0.05-0.04,0.01-0.08,0.03-0.13
				c0.01-0.02,0.02-0.03,0.04-0.04C60.95,71.2,60.93,71.24,60.98,71.27z M41.68,37.15C41.68,37.15,41.68,37.15,41.68,37.15
				C41.68,37.15,41.68,37.15,41.68,37.15z M46.44,37.4c0.02,0.01,0.03,0.02,0.04,0.03c-0.01,0-0.03,0.01-0.04,0.01
				C46.44,37.44,46.44,37.42,46.44,37.4z M61.8,66.24c0-0.01,0-0.01,0-0.02c0,0,0,0,0,0C61.81,66.23,61.8,66.24,61.8,66.24z
				 M55.05,73.59C55.05,73.59,55.05,73.59,55.05,73.59c0-0.01,0-0.01,0-0.02C55.05,73.58,55.05,73.59,55.05,73.59z M29.09,69.05
				C29.09,69.04,29.09,69.04,29.09,69.05C29.09,69.04,29.09,69.04,29.09,69.05C29.09,69.04,29.09,69.04,29.09,69.05z M59.51,62.1
				c0-0.02,0-0.03,0-0.05c0.02,0.04,0.01,0.09-0.01,0.13c0,0,0-0.01,0-0.01C59.52,62.14,59.51,62.12,59.51,62.1z M59.44,62.19
				c-0.03,0.21-0.07,0.43-0.11,0.64c-0.23,1.25-0.68,2.41-1.45,3.44c-0.23,0.26-0.46,0.51-0.69,0.77h0
				c-0.19,0.17-0.37,0.33-0.56,0.5h0c-0.09,0.04-0.16,0.1-0.22,0.17h0c-0.21,0.13-0.41,0.27-0.62,0.4l0,0
				c-0.06,0.04-0.13,0.07-0.19,0.11c0,0,0,0,0,0c-0.61,0.29-1.24,0.53-1.9,0.71v0l0,0c-0.33,0.06-0.65,0.13-0.98,0.19
				c-0.21,0.03-0.43,0.05-0.64,0.08l0,0v0c-0.34,0.02-0.68,0.04-1.02,0.06c-0.33,0.01-0.65,0.03-0.98,0.04c0,0,0,0,0,0s0,0,0,0
				c-0.42,0-0.83-0.01-1.25,0.03c-0.65,0-1.29,0-1.94,0.01c-0.6,0-1.19,0-1.79,0c-0.6,0-1.19,0-1.79,0l0,0h0
				c-0.01-0.01-0.03-0.01-0.04,0c-0.07,0-0.14,0-0.21,0h0c-0.22,0-0.45,0-0.67,0c0,0-0.01,0-0.01,0c0-0.01,0-0.02,0-0.04
				c-0.08-0.07-0.19-0.06-0.28-0.06c-0.86,0.01-1.71-0.03-2.56-0.08c-0.94-0.06-1.85-0.21-2.75-0.5c-0.07-0.02-0.14-0.05-0.21-0.01
				c0-0.01,0-0.01,0-0.02c-0.23-0.16-0.5-0.24-0.75-0.35c-0.04-0.02-0.08-0.02-0.11,0.01c0,0,0-0.01,0.01-0.01
				c-0.24-0.21-0.51-0.36-0.8-0.49c-0.02,0-0.03,0-0.05-0.01c-0.26-0.21-0.52-0.43-0.78-0.64c-0.17-0.17-0.34-0.35-0.5-0.52h0
				c-0.1-0.12-0.2-0.25-0.3-0.37c-0.05-0.11-0.13-0.2-0.21-0.29h0c-0.18-0.32-0.37-0.64-0.55-0.97h0c-0.13-0.33-0.25-0.66-0.38-1
				c0,0,0,0,0,0c-0.05-0.2-0.11-0.39-0.16-0.59c0.02-0.14-0.08-0.26-0.09-0.4c-0.04-0.41-0.11-0.81-0.17-1.21h0
				c-0.01-0.2,0.01-0.41-0.04-0.61c0-0.15-0.01-0.3-0.01-0.46l0,0c-0.02-0.45-0.03-0.91-0.05-1.36c-0.01,0-0.02,0.01-0.03,0.01
				c0.01,0,0.02-0.01,0.03-0.01c0-0.46,0-0.92,0-1.38c0-0.17,0.03-0.34-0.02-0.5c0.02-0.36,0.02-0.73,0-1.09c0-0.58,0-1.16,0-1.74
				c0,0,0,0,0,0c0,0,0,0,0,0c0.01-0.03,0.02-0.05,0.02-0.08c0-1.08,0.01-2.16,0.01-3.24l0,0l0,0c0.01-0.38,0.02-0.76,0.04-1.14
				c0.04-0.55,0.07-1.11,0.11-1.66c0.09-0.51,0.17-1.02,0.3-1.53h0c0.05-0.18,0.11-0.35,0.16-0.53c0.01-0.01,0.03-0.02,0.04-0.02
				c0.08-0.1,0.14-0.2,0.11-0.34c0,0-0.01,0-0.01-0.01c0.06-0.09,0.09-0.19,0.12-0.29c0.01,0,0.02,0,0.03,0
				c0.18-0.18,0.24-0.42,0.36-0.64c0.2-0.36,0.49-0.67,0.7-1.03c0-0.01,0-0.02,0-0.02c0.14-0.04,0.2-0.14,0.24-0.28
				c0.12,0.01,0.18-0.09,0.25-0.16c0.37-0.37,0.78-0.7,1.23-0.97c1.3-0.78,2.72-1.11,4.22-1.2c0.21-0.01,0.42-0.03,0.63-0.08
				c0.01-0.01,0.01-0.02,0.02-0.02c0.18,0,0.36,0.02,0.54-0.03c0.11,0,0.23-0.01,0.34-0.01c0.39,0,0.78,0,1.17-0.01
				c0.28-0.01,0.56,0.02,0.84-0.02c0,0,0,0,0,0l0,0l0.01,0l0.01-0.01c0.12,0.04,0.24,0.04,0.36,0c0,0,0,0,0,0
				c1.38,0,2.75,0.01,4.13,0.01c0.22,0,0.43,0.03,0.65-0.01c0,0,0,0,0,0c0,0,0,0,0,0c0.66,0.04,1.31,0.03,1.97,0.03
				c0.08,0,0.17,0,0.25,0.01c0.33,0.05,0.67,0.04,1.01,0.04c0.06,0.02,0.13,0.02,0.2,0.02c0.55,0.05,1.09,0.1,1.63,0.19l0,0
				c0.08,0.02,0.16,0.05,0.24,0.06c0.67,0.15,1.3,0.39,1.92,0.66c0.08,0.04,0.15,0.08,0.23,0.12v0c0.8,0.46,1.49,1.06,2.09,1.75
				c0,0.02,0.01,0.03,0.01,0.05c0.11,0.21,0.23,0.42,0.43,0.57c0.01,0,0.01,0.01,0.02,0.01c0.29,0.48,0.52,0.98,0.73,1.49
				c0.23,0.68,0.4,1.38,0.49,2.09c0,0,0,0,0,0c0.02,0.26,0.03,0.52,0.07,0.78c0.05,0.36,0.01,0.73,0.07,1.09c0,0,0,0,0,0
				c0.01,0.59,0,1.19,0.04,1.78l0,0l0,0c-0.01,0.24-0.02,0.48,0.01,0.71c0,0.07-0.01,0.14-0.01,0.21c0,1.58,0,3.17,0,4.75
				c0,0.27,0,0.54,0,0.81c-0.01,0.03-0.02,0.07-0.02,0.1C59.58,59.85,59.54,61.02,59.44,62.19z M60.34,64.74
				C60.34,64.74,60.34,64.74,60.34,64.74C60.34,64.74,60.34,64.74,60.34,64.74C60.34,64.74,60.34,64.74,60.34,64.74
				C60.34,64.73,60.34,64.74,60.34,64.74z M40.15,41.3c-0.01,0-0.02,0-0.03,0c0.01-0.01,0.02-0.01,0.03-0.02l0,0c0,0,0,0,0,0
				C40.15,41.29,40.15,41.29,40.15,41.3z M54.98,38.13c0,0,0.01,0,0.01,0c0,0,0,0,0,0.01C54.99,38.14,54.98,38.13,54.98,38.13z
				 M60.23,66.09c-0.01-0.01-0.01-0.03,0-0.04C60.23,66.07,60.23,66.08,60.23,66.09z M41.62,69.36
				C41.62,69.36,41.63,69.36,41.62,69.36c-0.03,0-0.07,0-0.11,0C41.55,69.36,41.58,69.36,41.62,69.36z M51.78,69.97
				c0,0.01-0.01,0.01-0.02,0.01C51.77,69.98,51.77,69.98,51.78,69.97z M47.21,70.26c0.01,0.01,0.02,0.02,0.03,0.03
				c-0.01,0.01-0.02,0.01-0.04,0.02C47.2,70.29,47.2,70.27,47.21,70.26z M48.02,69.79c0,0-0.01,0-0.01,0
				C48.02,69.79,48.02,69.79,48.02,69.79z M38.15,71.1C38.15,71.1,38.15,71.1,38.15,71.1c0,0.01-0.01,0.01-0.01,0.02
				C38.15,71.11,38.15,71.1,38.15,71.1z M38.78,70.15c0.01,0,0.02,0,0.04,0C38.81,70.16,38.8,70.16,38.78,70.15z M35.06,70.15
				C35.06,70.15,35.06,70.15,35.06,70.15c-0.02,0-0.03-0.01-0.05-0.02C35.02,70.12,35.04,70.13,35.06,70.15z M37.89,69.72
				C37.89,69.72,37.89,69.72,37.89,69.72C37.89,69.72,37.89,69.72,37.89,69.72C37.89,69.72,37.89,69.72,37.89,69.72z M33.13,68.34
				c0.01-0.01,0.02-0.01,0.03-0.02C33.15,68.34,33.14,68.34,33.13,68.34z M29.96,67.41c-0.01,0.02-0.02,0.03-0.04,0.03
				c0.01,0,0.01-0.01,0.02-0.01C29.95,67.43,29.96,67.42,29.96,67.41z M36.12,39.67c0.01,0,0.02,0,0.03,0
				C36.14,39.67,36.13,39.67,36.12,39.67z M35.1,39.47c0-0.01,0-0.02,0.01-0.03c0,0.01,0,0.02,0.01,0.03
				C35.11,39.47,35.11,39.47,35.1,39.47z M31.05,51.5c0,0-0.01-0.01-0.02-0.01c0,0,0.01-0.01,0.02-0.01
				C31.05,51.48,31.05,51.49,31.05,51.5z M31.32,54.74c-0.01-0.01-0.01-0.01-0.02-0.02c0.01,0,0.01,0,0.02-0.01
				C31.32,54.72,31.32,54.73,31.32,54.74z M30.58,59.98c-0.01,0.01-0.02,0.01-0.03,0.02C30.55,59.98,30.55,59.96,30.58,59.98z
				 M30.45,57.9C30.45,57.9,30.45,57.9,30.45,57.9C30.45,57.9,30.45,57.9,30.45,57.9C30.45,57.9,30.45,57.9,30.45,57.9z
				 M30.62,55.56C30.62,55.56,30.62,55.56,30.62,55.56C30.62,55.56,30.62,55.55,30.62,55.56C30.62,55.56,30.62,55.56,30.62,55.56z
				 M31.07,55.7C31.07,55.71,31.07,55.71,31.07,55.7c-0.01,0-0.01,0-0.01-0.01C31.07,55.7,31.07,55.7,31.07,55.7z M29.51,58.07
				c0,0,0,0.01,0,0.01c0,0-0.01-0.01-0.01-0.01C29.5,58.07,29.51,58.07,29.51,58.07z M29.59,58.03c0,0.01,0,0.01,0,0.02
				c0-0.01,0-0.01-0.01-0.02C29.59,58.03,29.59,58.03,29.59,58.03z M30.35,60.19c0.01-0.02,0.03-0.04,0.04-0.06
				c0.01,0.02,0.01,0.04,0.02,0.05C30.39,60.19,30.37,60.19,30.35,60.19z M30.99,56.12c-0.01-0.03,0-0.05,0-0.08
				c0,0.03,0.01,0.05,0.02,0.08C31.03,56.11,30.99,56.15,30.99,56.12z M29.47,54.07c0,0.01,0,0.01,0,0.02c0,0,0,0-0.01,0
				C29.47,54.08,29.47,54.08,29.47,54.07z M30.96,63.41c0.02,0,0.05-0.01,0.08-0.01c-0.01,0.01-0.01,0.02-0.02,0.02
				C30.98,63.48,30.98,63.44,30.96,63.41z M30.93,59.11c0,0.01,0,0.02,0,0.04c0,0,0,0,0,0c0,0-0.01,0-0.01,0
				C30.92,59.13,30.92,59.12,30.93,59.11z M31.01,53.25c0.02,0,0.03-0.01,0.05-0.01c0,0.02-0.01,0.03-0.01,0.05
				C31.03,53.27,31.02,53.26,31.01,53.25z M30.04,51.4c0-0.01,0-0.01,0-0.02c0,0,0,0,0.01,0c0,0,0,0,0,0
				C30.04,51.39,30.04,51.4,30.04,51.4z M28.24,57.52c0,0.01-0.01,0.01-0.01,0.02C28.23,57.53,28.24,57.52,28.24,57.52
				C28.24,57.52,28.24,57.52,28.24,57.52z M29.08,50.9c0,0.02,0,0.03,0.01,0.05c-0.01,0-0.02,0-0.03,0
				C29.06,50.94,29.07,50.92,29.08,50.9z M28.49,55.39c0,0-0.01,0-0.01-0.01C28.48,55.38,28.49,55.38,28.49,55.39z M30.19,65.68
				c0.01-0.02,0.03-0.03,0.04-0.02C30.22,65.67,30.2,65.68,30.19,65.68z M31.41,56.74c0.01,0,0.02,0,0.02,0c-0.01,0-0.02,0-0.03,0
				C31.4,56.74,31.41,56.74,31.41,56.74z M31.3,48.2c0-0.01,0-0.02,0.01-0.03C31.31,48.18,31.31,48.19,31.3,48.2
				C31.31,48.2,31.31,48.2,31.3,48.2z M31.51,46.03c0,0-0.01-0.01-0.01-0.01c0.01-0.01,0.02-0.01,0.03-0.02
				C31.52,46.01,31.52,46.02,31.51,46.03z M34.09,41.7c0-0.01,0.02-0.01,0.03-0.01C34.11,41.69,34.1,41.69,34.09,41.7z M44.88,38.99
				c0,0,0.01,0,0.01,0c0,0.01-0.01,0.01-0.01,0.02C44.88,38.99,44.88,38.99,44.88,38.99z M58.91,42.87
				c0.02,0.01,0.03,0.02,0.05,0.03c-0.02,0.01-0.04,0.03-0.06,0.05C58.9,42.92,58.91,42.9,58.91,42.87z M60.44,50.85
				C60.44,50.85,60.44,50.85,60.44,50.85c0,0.01,0,0.02,0,0.03c0,0,0,0,0,0C60.43,50.87,60.43,50.86,60.44,50.85z M61.43,47.64
				C61.43,47.64,61.43,47.64,61.43,47.64C61.43,47.64,61.43,47.64,61.43,47.64C61.43,47.64,61.43,47.64,61.43,47.64z M61.97,47.06
				c0-0.01,0-0.02,0-0.03c0.01,0,0.02,0,0.03,0.01C61.99,47.05,61.98,47.06,61.97,47.06z M59.08,43.89
				C59.07,43.89,59.07,43.89,59.08,43.89C59.07,43.88,59.07,43.89,59.08,43.89z M59.79,45.36C59.79,45.36,59.79,45.36,59.79,45.36
				C59.79,45.36,59.79,45.36,59.79,45.36C59.79,45.36,59.79,45.36,59.79,45.36z M60.19,53.09c-0.06-0.01-0.13-0.01-0.19-0.01
				C60.07,53.02,60.14,53.03,60.19,53.09z M55.52,39.12C55.52,39.12,55.52,39.12,55.52,39.12C55.52,39.12,55.52,39.12,55.52,39.12z
				 M44.3,40.74c0.01,0,0.01,0.01,0.02,0.01C44.31,40.75,44.31,40.75,44.3,40.74C44.3,40.74,44.3,40.74,44.3,40.74z M51.61,40.26
				C51.61,40.26,51.61,40.27,51.61,40.26C51.61,40.27,51.61,40.27,51.61,40.26C51.61,40.26,51.61,40.26,51.61,40.26z M52.85,40.13
				c-0.01,0.02-0.03,0.02-0.05,0.01C52.82,40.14,52.84,40.13,52.85,40.13z M56.13,40.99c0,0,0.01,0,0.02,0
				C56.14,41,56.14,41,56.13,40.99C56.13,41,56.13,41,56.13,40.99z M58.34,41.91C58.34,41.91,58.34,41.92,58.34,41.91
				C58.34,41.92,58.34,41.92,58.34,41.91C58.34,41.91,58.34,41.91,58.34,41.91z M45.26,39.44c0-0.01,0.01-0.01,0.01-0.02
				c0,0,0.01-0.01,0.02-0.01C45.27,39.42,45.27,39.43,45.26,39.44z M41.49,39.8C41.49,39.8,41.49,39.8,41.49,39.8
				c0.01-0.01,0.01-0.01,0.02-0.01C41.5,39.8,41.5,39.8,41.49,39.8z M37.12,39.43c0.01,0,0.03,0,0.04,0.01
				C37.15,39.43,37.13,39.43,37.12,39.43z M29.65,65.96c0,0,0-0.01,0-0.01C29.65,65.95,29.65,65.95,29.65,65.96
				C29.65,65.96,29.65,65.96,29.65,65.96z M42.83,71.37C42.84,71.36,42.84,71.36,42.83,71.37c0.01,0,0.01,0,0.02,0.01
				C42.84,71.38,42.84,71.37,42.83,71.37z M42.8,70.07c-0.14-0.03-0.28-0.06-0.42-0.09C42.52,69.98,42.66,70.02,42.8,70.07z
				 M38.15,69.68C38.15,69.68,38.15,69.68,38.15,69.68C38.15,69.68,38.15,69.68,38.15,69.68C38.15,69.68,38.15,69.68,38.15,69.68
				C38.15,69.68,38.15,69.68,38.15,69.68z M35.3,68.82C35.31,68.81,35.31,68.81,35.3,68.82c0.01-0.01,0.01,0,0.01,0
				C35.31,68.82,35.31,68.82,35.3,68.82z M37.45,41.14c0,0-0.01,0.01-0.01,0.01c0-0.01,0-0.01,0-0.02
				C37.44,41.14,37.45,41.14,37.45,41.14z M37.96,40.85c0-0.01,0.01-0.01,0.03-0.01C37.98,40.84,37.97,40.84,37.96,40.85z
				 M42.08,40.28C42.08,40.28,42.09,40.28,42.08,40.28C42.08,40.29,42.08,40.29,42.08,40.28C42.08,40.28,42.08,40.28,42.08,40.28z
				 M57.35,41.75c-0.02,0.01-0.04,0-0.05-0.01C57.31,41.75,57.33,41.75,57.35,41.75z M60.66,55.83c0.01,0,0.01,0,0.01,0
				C60.67,55.83,60.66,55.83,60.66,55.83C60.66,55.83,60.66,55.83,60.66,55.83z M61.2,42.31C61.2,42.31,61.2,42.3,61.2,42.31
				c0-0.01,0.02-0.01,0.02-0.01c0,0,0,0,0,0C61.21,42.31,61.21,42.31,61.2,42.31z M47.35,38.99C47.35,38.99,47.35,38.98,47.35,38.99
				C47.35,38.98,47.35,38.98,47.35,38.99C47.35,38.98,47.35,38.99,47.35,38.99z M44.39,39.06c0,0.02-0.02,0.01-0.03,0
				c0.01,0,0.02-0.01,0.03-0.01C44.39,39.06,44.39,39.06,44.39,39.06z M28.68,65.13c-0.02,0.05-0.08,0.12-0.14,0.1
				C28.6,65.22,28.64,65.19,28.68,65.13z M28.98,66.34c0.01-0.01,0.03-0.02,0.05-0.02C29.01,66.33,29,66.34,28.98,66.34
				C28.98,66.35,28.98,66.35,28.98,66.34z M34.01,70.47c-0.01,0-0.03-0.01-0.04-0.02C33.99,70.46,34,70.46,34.01,70.47z
				 M31.38,59.17C31.38,59.17,31.38,59.17,31.38,59.17C31.38,59.16,31.38,59.16,31.38,59.17C31.38,59.16,31.38,59.16,31.38,59.17
				C31.38,59.17,31.38,59.17,31.38,59.17z M31.56,56.89c0,0,0-0.01,0-0.01C31.56,56.88,31.56,56.88,31.56,56.89
				C31.56,56.88,31.56,56.89,31.56,56.89z M31.52,53.22L31.52,53.22C31.52,53.22,31.52,53.22,31.52,53.22
				C31.52,53.22,31.52,53.22,31.52,53.22C31.52,53.22,31.52,53.22,31.52,53.22z M32.03,46.75c0,0.01-0.01,0.01-0.02,0.01
				C32.02,46.75,32.03,46.75,32.03,46.75z M40.74,41.23C40.73,41.23,40.73,41.23,40.74,41.23C40.73,41.23,40.73,41.23,40.74,41.23
				C40.73,41.23,40.73,41.23,40.74,41.23z M42.92,41.13C42.92,41.13,42.92,41.13,42.92,41.13c-0.01,0.01-0.03,0.01-0.04,0.01
				C42.89,41.13,42.9,41.13,42.92,41.13z M62.55,43.87c0,0-0.01-0.01-0.01-0.01c0.01,0,0.02-0.01,0.02-0.01
				C62.56,43.86,62.55,43.86,62.55,43.87z M61.67,42.49c-0.02-0.02-0.04-0.04-0.06-0.05C61.68,42.44,61.69,42.47,61.67,42.49z
				 M61.2,41.17c-0.01,0.01-0.03,0.01-0.04,0.02c0-0.02,0.01-0.05,0.01-0.08C61.18,41.14,61.19,41.16,61.2,41.17z M53,38.66
				c0,0.01-0.01,0.02-0.01,0.03c0-0.01,0-0.03,0-0.04C52.99,38.65,53,38.65,53,38.66z M38.36,37.45
				C38.36,37.45,38.36,37.45,38.36,37.45C38.36,37.45,38.36,37.45,38.36,37.45C38.36,37.45,38.36,37.45,38.36,37.45z M31.7,40.49
				C31.7,40.49,31.7,40.49,31.7,40.49C31.7,40.49,31.7,40.49,31.7,40.49C31.7,40.49,31.7,40.49,31.7,40.49z M34.06,71.64
				c-0.01,0-0.02,0-0.03,0C34.03,71.63,34.04,71.62,34.06,71.64z M41.41,71.78C41.41,71.79,41.41,71.79,41.41,71.78
				C41.41,71.79,41.41,71.79,41.41,71.78C41.41,71.79,41.41,71.79,41.41,71.78z M47.33,70.79C47.33,70.79,47.33,70.79,47.33,70.79
				C47.33,70.79,47.32,70.79,47.33,70.79C47.32,70.79,47.32,70.79,47.33,70.79z M54.17,68.89C54.17,68.89,54.16,68.89,54.17,68.89
				c0-0.01,0-0.02,0-0.03C54.17,68.88,54.17,68.88,54.17,68.89z M51.11,69.59c0,0-0.01,0-0.01,0C51.1,69.58,51.11,69.58,51.11,69.59
				z M33.34,43.91c0.01,0.01,0.01,0.03,0.02,0.04c-0.01,0-0.01,0-0.02,0.01C33.34,43.94,33.34,43.93,33.34,43.91z M46.44,41.23
				L46.44,41.23C46.44,41.23,46.44,41.23,46.44,41.23C46.44,41.23,46.44,41.23,46.44,41.23z M59.66,54.16
				c0.01,0,0.01,0.01,0.02,0.01c-0.01,0-0.01,0.01-0.02,0.02C59.66,54.17,59.66,54.17,59.66,54.16L59.66,54.16L59.66,54.16z
				 M62.66,59.12c-0.02-0.01-0.03-0.02-0.04-0.04C62.64,59.09,62.65,59.11,62.66,59.12z M38.36,37.45L38.36,37.45
				C38.36,37.45,38.36,37.45,38.36,37.45C38.36,37.45,38.36,37.45,38.36,37.45C38.36,37.45,38.36,37.45,38.36,37.45z M28.75,48.67
				c0,0-0.01,0.01-0.01,0.01c0,0,0,0,0,0C28.74,48.67,28.74,48.66,28.75,48.67C28.75,48.66,28.75,48.66,28.75,48.67z M28.47,48.91
				c-0.01,0-0.01-0.01-0.01-0.01c0.01-0.02,0.03-0.03,0.04-0.05C28.49,48.87,28.48,48.89,28.47,48.91z M28.94,68.74
				C28.95,68.75,28.95,68.75,28.94,68.74c0,0.01,0,0.01-0.01,0.02C28.94,68.76,28.94,68.75,28.94,68.74z M59.61,59.48
				c0.01,0.08,0.01,0.15,0.02,0.23c-0.01,0-0.01,0-0.02,0C59.61,59.64,59.61,59.56,59.61,59.48z M59.66,59.71
				C59.66,59.71,59.66,59.71,59.66,59.71C59.66,59.71,59.66,59.71,59.66,59.71C59.66,59.71,59.66,59.71,59.66,59.71z M59.9,66.55
				c0.01,0.05,0.02,0.09,0.03,0.13c-0.01-0.02-0.03-0.05-0.05-0.08C59.89,66.58,59.89,66.57,59.9,66.55z M63.56,55.81
				C63.55,55.81,63.55,55.81,63.56,55.81C63.55,55.81,63.55,55.81,63.56,55.81z M61.62,40.69c0.01-0.01,0.02-0.01,0.02-0.02
				c0,0.01,0,0.03-0.01,0.04C61.63,40.7,61.62,40.7,61.62,40.69z M41.18,38.42C41.18,38.42,41.18,38.42,41.18,38.42
				C41.18,38.42,41.18,38.42,41.18,38.42C41.18,38.42,41.18,38.42,41.18,38.42z M35.53,38.1c0.03-0.01,0.05-0.02,0.09-0.02
				C35.59,38.09,35.56,38.1,35.53,38.1z M35.17,38.06C35.17,38.06,35.17,38.06,35.17,38.06C35.17,38.06,35.17,38.06,35.17,38.06
				C35.17,38.06,35.17,38.06,35.17,38.06z M29.23,43.19c-0.02,0.02-0.04,0.03-0.06,0.05C29.18,43.21,29.2,43.19,29.23,43.19z
				 M30.89,70.18C30.89,70.18,30.9,70.18,30.89,70.18c-0.01,0.01-0.03,0.02-0.05,0.04C30.83,70.19,30.86,70.19,30.89,70.18z
				 M45.78,71.43c-0.01,0-0.02-0.01-0.03-0.01C45.76,71.42,45.77,71.43,45.78,71.43z M46.31,70.68c0,0.01,0,0.01,0,0.02
				c0,0,0,0-0.01,0C46.31,70.69,46.31,70.69,46.31,70.68z M57.47,67.03c0-0.01,0.01-0.01,0.01-0.02c0,0,0,0.01,0,0.01
				C57.48,67.02,57.47,67.03,57.47,67.03z M58.61,66.14c0.01-0.01,0.04-0.02,0.06-0.01C58.65,66.13,58.63,66.13,58.61,66.14z
				 M44.67,37.03c0,0,0-0.01,0-0.01c0,0,0,0,0,0C44.67,37.03,44.67,37.03,44.67,37.03z M44.08,37.6c0,0.01,0.01,0.01,0.01,0.02
				C44.08,37.61,44.07,37.61,44.08,37.6C44.07,37.6,44.07,37.6,44.08,37.6z M34.5,73.41c0,0.01,0,0.01,0,0.02
				C34.5,73.42,34.49,73.42,34.5,73.41C34.49,73.41,34.49,73.41,34.5,73.41z M35.46,73.08C35.46,73.08,35.46,73.08,35.46,73.08
				C35.46,73.08,35.46,73.08,35.46,73.08z M60.35,67.95C60.35,67.95,60.35,67.95,60.35,67.95C60.35,67.95,60.35,67.95,60.35,67.95z
				 M60.77,60.88C60.77,60.88,60.77,60.88,60.77,60.88c0,0.02,0,0.02-0.01,0.03C60.76,60.89,60.76,60.89,60.77,60.88z M61.91,59.62
				c0,0.01,0,0.01,0,0.02c0-0.01-0.01-0.02-0.01-0.02C61.9,59.62,61.91,59.62,61.91,59.62z M62.6,41.01c0.01,0,0.03,0.01,0.04,0.02
				C62.62,41.02,62.61,41.01,62.6,41.01z M62.23,40.71c0,0-0.01-0.01-0.01-0.01c0.01,0,0.01,0,0.02-0.01
				C62.23,40.7,62.23,40.71,62.23,40.71z M44.76,36.99c0,0-0.01-0.01-0.01-0.01C44.76,36.98,44.76,36.98,44.76,36.99
				C44.76,36.98,44.76,36.99,44.76,36.99z M41.81,37.92c0.02,0,0.04-0.01,0.06-0.01C41.85,37.92,41.83,37.93,41.81,37.92z
				 M29.85,39.32c0,0,0-0.01,0-0.01c0.01-0.01,0.02-0.01,0.02,0C29.87,39.31,29.86,39.32,29.85,39.32z M36.33,73.38
				c-0.01,0.01-0.03,0.02-0.06,0.02C36.29,73.4,36.31,73.39,36.33,73.38z M46.38,72.49C46.38,72.49,46.38,72.48,46.38,72.49
				C46.38,72.48,46.38,72.48,46.38,72.49C46.38,72.48,46.38,72.49,46.38,72.49z M54.86,70.8C54.86,70.8,54.86,70.8,54.86,70.8
				c0,0,0,0.01,0,0.01C54.86,70.81,54.86,70.81,54.86,70.8z M56,72.25C56,72.25,56.01,72.26,56,72.25C56.01,72.26,56,72.26,56,72.25
				C56,72.26,56,72.25,56,72.25z M57.27,37.58c0,0,0-0.01,0-0.01c0,0,0.01,0,0.01,0C57.27,37.57,57.27,37.58,57.27,37.58z
				 M52.25,36.99c0,0,0-0.01,0-0.01c0,0,0,0,0.01,0C52.25,36.98,52.25,36.98,52.25,36.99z M50.55,37.24c0.01,0,0.02-0.01,0.03-0.01
				C50.57,37.24,50.56,37.25,50.55,37.24z M42.81,37.25c0-0.01,0-0.01-0.01-0.02c0,0,0.01,0,0.01,0
				C42.81,37.24,42.81,37.25,42.81,37.25z M30.84,38.94C30.84,38.94,30.84,38.94,30.84,38.94C30.84,38.94,30.84,38.94,30.84,38.94
				C30.84,38.94,30.84,38.94,30.84,38.94C30.84,38.94,30.84,38.94,30.84,38.94z M30.08,39.07C30.08,39.07,30.08,39.07,30.08,39.07
				c0,0,0.01,0,0.01,0C30.09,39.07,30.09,39.07,30.08,39.07z M27.21,54.15C27.21,54.15,27.21,54.15,27.21,54.15
				C27.21,54.15,27.21,54.15,27.21,54.15z M41.7,73.82C41.7,73.82,41.7,73.82,41.7,73.82C41.7,73.82,41.7,73.83,41.7,73.82
				C41.7,73.83,41.7,73.82,41.7,73.82z M46.21,72.38c-0.01,0-0.01,0.01-0.02,0.01c0-0.01,0-0.02,0-0.03
				C46.19,72.37,46.2,72.37,46.21,72.38z M56.56,69.85C56.56,69.84,56.56,69.84,56.56,69.85C56.56,69.84,56.56,69.85,56.56,69.85
				C56.56,69.85,56.56,69.85,56.56,69.85z M58.03,72.25C58.03,72.26,58.03,72.26,58.03,72.25c-0.01-0.02-0.03-0.05-0.04-0.08
				C58.03,72.18,58.06,72.2,58.03,72.25z M57.71,37.49C57.71,37.49,57.7,37.49,57.71,37.49C57.7,37.49,57.7,37.49,57.71,37.49
				C57.7,37.49,57.71,37.49,57.71,37.49z M32.55,37.44C32.55,37.44,32.55,37.44,32.55,37.44C32.55,37.44,32.55,37.44,32.55,37.44
				C32.55,37.44,32.55,37.44,32.55,37.44z M32.36,37.48C32.36,37.48,32.36,37.48,32.36,37.48C32.35,37.48,32.36,37.48,32.36,37.48
				C32.36,37.48,32.36,37.48,32.36,37.48z M29.22,39.3c-0.01,0-0.01,0.01-0.02,0.01C29.2,39.31,29.21,39.3,29.22,39.3z M28.37,40.11
				c-0.01,0.01-0.03,0.02-0.05,0.02C28.34,40.11,28.35,40.11,28.37,40.11z M46.16,73.29c-0.01-0.03-0.02-0.05-0.03-0.08
				c0.02,0.01,0.04,0.03,0.05,0.04C46.18,73.27,46.18,73.28,46.16,73.29z M48.9,74.02c0.01,0.02,0.02,0.03,0.04,0.04
				C48.93,74.05,48.91,74.03,48.9,74.02z M52.65,73.48c0.02,0.04,0.04,0.08,0.06,0.11c0,0,0,0-0.01,0
				C52.69,73.55,52.67,73.52,52.65,73.48z M54.29,73.57c0.02,0.01,0.04,0.02,0.06,0.02c-0.01,0.01-0.03,0.01-0.05,0.01
				C54.29,73.59,54.29,73.58,54.29,73.57z M58.8,73.53C58.8,73.53,58.8,73.53,58.8,73.53c0-0.01,0.01,0,0.01,0
				C58.81,73.53,58.8,73.53,58.8,73.53z"/>
			<path class="st1" d="M57.04,50.25c0-0.02,0-0.04-0.01-0.06c0-0.65-0.04-1.31-0.17-1.95c-0.08-0.58-0.26-1.14-0.54-1.66
				c0,0,0,0,0,0c-0.25-0.54-0.62-0.98-1.08-1.36c-0.02-0.03-0.04-0.05-0.07-0.08c-1.06-0.87-2.32-1.15-3.66-1.2h0c0,0,0,0,0,0
				c-0.86-0.08-1.73-0.1-2.59-0.09l0,0c-0.05-0.03-0.11-0.02-0.17-0.02c-2.15,0-4.29,0-6.44,0.01c-0.22,0-0.45-0.05-0.66,0.06l0,0h0
				c-0.08-0.08-0.18-0.03-0.27-0.03c-0.56,0-1.11,0.02-1.67,0.08c-1.07,0.03-2.1,0.23-3.03,0.77c-0.86,0.5-1.51,1.19-1.89,2.13l0,0
				c-0.25,0.51-0.39,1.05-0.46,1.61c-0.05,0.31-0.11,0.62-0.09,0.93c-0.06,0.57-0.08,1.13-0.08,1.7l0,0
				c-0.01,0.32-0.03,0.64-0.01,0.97c-0.01,0.09-0.02,0.17-0.01,0.25c-0.03,0.68-0.02,1.37-0.01,2.05c0,0,0.02,0,0.02,0
				c0,0,0,0.01,0,0.01c-0.01,0-0.01-0.01-0.02-0.01c0,0.56-0.02,1.11-0.01,1.67c0.01,0.83-0.03,1.66,0.03,2.5h0
				c-0.02,0.2-0.02,0.4,0.01,0.6c-0.01,0.41-0.01,0.82,0.04,1.23c0,0,0,0,0,0c0.01,0.23-0.01,0.46,0.02,0.69
				c0,0.02,0,0.04,0.01,0.07c0,0.02,0.01,0.04,0.01,0.06c0,0,0,0,0,0c0,0.08,0.01,0.16,0.01,0.24c-0.01,0.09-0.01,0.18,0.03,0.27
				c0,0,0,0,0,0c0,0.12-0.01,0.23,0.04,0.34c0,0,0,0,0,0c0.02,0.38,0.1,0.74,0.22,1.09c0.1,0.39,0.25,0.76,0.46,1.11h0l0,0
				c0.04,0.13,0.13,0.24,0.22,0.34c0.18,0.3,0.41,0.54,0.68,0.77h0c0.2,0.21,0.42,0.38,0.67,0.51l0,0c0.23,0.17,0.49,0.3,0.77,0.38
				l0,0c0.21,0.11,0.44,0.18,0.67,0.22c0,0,0,0,0,0c0.33,0.13,0.69,0.17,1.03,0.21c1.2,0.14,2.41,0.14,3.62,0.16
				c1.66,0.02,3.31,0.01,4.97,0.01c0.54,0,1.07,0.02,1.61-0.03c0,0,0,0,0,0c0.25-0.01,0.51-0.01,0.76-0.02
				c-0.04,0-0.08-0.01-0.11-0.02c0.04,0,0.08,0.01,0.11,0.02c0.52,0,1.03-0.02,1.54-0.07c0.16,0,0.32,0.01,0.47-0.04h0
				c0.52-0.03,1.03-0.12,1.52-0.3c0.13-0.01,0.23-0.07,0.34-0.12c0.27-0.1,0.54-0.2,0.76-0.39c0.35-0.15,0.61-0.4,0.86-0.67
				c0.39-0.36,0.69-0.78,0.89-1.27l0,0c0.08-0.12,0.13-0.25,0.17-0.4c0.02-0.03,0.03-0.06,0.05-0.09c0.33-0.96,0.42-1.95,0.43-2.96
				l0,0c0.06-0.45,0.04-0.91,0.04-1.36c0.04-0.06,0.02-0.12,0.02-0.19c0-1.44,0.01-2.88,0.01-4.31c0-1.3,0.01-2.59-0.05-3.89
				C57.06,50.56,57.07,50.41,57.04,50.25z M57,60.23c0.01,0.03,0,0.06,0,0.08C57,60.29,57,60.26,57,60.23z M56.98,58.33
				C56.98,58.33,56.98,58.33,56.98,58.33C56.98,58.33,56.98,58.33,56.98,58.33C56.98,58.33,56.98,58.33,56.98,58.33z M35.95,46.36
				C35.95,46.36,35.95,46.36,35.95,46.36C35.96,46.37,35.95,46.37,35.95,46.36C35.95,46.37,35.95,46.36,35.95,46.36z M34.72,50.88
				c-0.01,0-0.02-0.01-0.02-0.01C34.7,50.87,34.71,50.88,34.72,50.88z M52.13,52.29L52.13,52.29c0.23,0.53,0.4,1.07,0.53,1.63
				c0,0.03,0.01,0.05,0.02,0.07c0.01,0.19,0.03,0.37,0.08,0.56c0.02,0.45,0.03,0.9,0.01,1.35l0,0v0c-0.09,0.97-0.36,1.9-0.8,2.77
				c-0.17,0.28-0.35,0.56-0.52,0.85l0,0c-0.16,0.2-0.31,0.4-0.47,0.6c-0.2,0.2-0.4,0.4-0.6,0.6c-0.24,0.19-0.48,0.37-0.72,0.56
				c-0.42,0.27-0.86,0.51-1.32,0.71l0,0h0c-0.53,0.2-1.07,0.35-1.62,0.45c-0.07,0-0.13-0.01-0.2-0.03c-0.2,0.01-0.41,0.03-0.61,0.03
				c-0.4-0.01-0.8,0.01-1.2-0.02c-0.03,0.02-0.06,0.03-0.07,0.05c-0.15-0.03-0.3-0.05-0.46-0.08l0,0c-0.95-0.21-1.83-0.57-2.63-1.12
				c-0.3-0.21-0.57-0.45-0.86-0.67c-0.29-0.33-0.59-0.67-0.88-1c-0.25-0.38-0.49-0.77-0.7-1.18h0l0,0
				c-0.11-0.27-0.22-0.54-0.33-0.81h0l0,0c-0.09-0.34-0.17-0.68-0.26-1.02c0-0.08,0-0.16-0.04-0.23c0,0,0,0,0,0
				c-0.05-0.46-0.06-0.92-0.06-1.38c0,0,0,0,0,0l0,0c0.02-0.22,0.04-0.45,0.06-0.67l0,0l0,0c0.03-0.07,0.04-0.15,0.04-0.22
				c0.06-0.25,0.12-0.51,0.18-0.76l0,0h0c0.15-0.46,0.34-0.91,0.55-1.35l0,0c0.45-0.81,1.03-1.53,1.74-2.14
				c0.16-0.12,0.32-0.24,0.48-0.35c0.69-0.5,1.47-0.84,2.29-1.09l0,0v0c0.39-0.07,0.77-0.14,1.16-0.21c1.28-0.09,2.51,0.1,3.69,0.62
				c0.54,0.26,1.05,0.59,1.53,0.95c0.24,0.23,0.49,0.45,0.72,0.69C51.39,50.97,51.79,51.61,52.13,52.29z M56.74,50.57
				C56.74,50.57,56.74,50.57,56.74,50.57C56.74,50.58,56.74,50.58,56.74,50.57C56.74,50.58,56.74,50.58,56.74,50.57
				C56.74,50.58,56.74,50.58,56.74,50.57C56.74,50.57,56.74,50.57,56.74,50.57z M46.61,66.36C46.61,66.36,46.61,66.36,46.61,66.36
				c0,0,0,0.01-0.01,0.02C46.6,66.37,46.6,66.37,46.61,66.36z M50.28,61.05C50.28,61.05,50.28,61.06,50.28,61.05
				C50.27,61.04,50.28,61.05,50.28,61.05z M53.97,54.67C53.97,54.67,53.97,54.67,53.97,54.67C53.97,54.67,53.97,54.67,53.97,54.67
				C53.97,54.67,53.97,54.67,53.97,54.67z M55.68,53.7C55.68,53.7,55.68,53.7,55.68,53.7C55.69,53.69,55.69,53.69,55.68,53.7
				C55.69,53.7,55.68,53.7,55.68,53.7z M56.08,53.52C56.08,53.52,56.08,53.52,56.08,53.52C56.08,53.52,56.08,53.52,56.08,53.52
				C56.08,53.52,56.08,53.52,56.08,53.52z M53.09,56.79c0,0,0.01,0.01,0.01,0.01c-0.01,0.01-0.02,0.01-0.03,0.02
				C53.08,56.81,53.09,56.8,53.09,56.79z M52.66,61.49c-0.02-0.01-0.04-0.03-0.06-0.05C52.62,61.45,52.64,61.47,52.66,61.49z
				 M55.44,57.68c0-0.01,0-0.02,0-0.03c0.01,0.01,0.02,0.02,0.02,0.03C55.45,57.68,55.44,57.68,55.44,57.68z M55.75,57.53
				c0,0,0-0.01,0-0.01C55.75,57.52,55.75,57.53,55.75,57.53C55.75,57.53,55.75,57.53,55.75,57.53z M55.4,50.8
				C55.4,50.8,55.4,50.8,55.4,50.8C55.4,50.8,55.41,50.8,55.4,50.8C55.41,50.8,55.41,50.8,55.4,50.8
				C55.41,50.8,55.41,50.8,55.4,50.8C55.41,50.8,55.41,50.8,55.4,50.8z M52.05,62.6c-0.01,0.01-0.03,0.01-0.04-0.03
				C52.03,62.58,52.04,62.59,52.05,62.6z M52.81,61.61C52.81,61.61,52.81,61.61,52.81,61.61C52.81,61.61,52.81,61.61,52.81,61.61
				C52.81,61.61,52.81,61.61,52.81,61.61z M54.72,50C54.72,50,54.72,50,54.72,50C54.72,50,54.72,50,54.72,50L54.72,50
				C54.72,50,54.72,50,54.72,50z M54.48,51.79c0-0.01-0.01-0.01-0.01-0.02c0.01,0,0.02,0,0.02,0C54.5,51.78,54.49,51.78,54.48,51.79
				z M38.66,53.31C38.66,53.31,38.66,53.31,38.66,53.31C38.66,53.31,38.66,53.31,38.66,53.31C38.66,53.31,38.66,53.31,38.66,53.31
				C38.66,53.31,38.66,53.31,38.66,53.31z M34.98,53.86C34.98,53.86,34.98,53.86,34.98,53.86c0,0.01,0,0.02,0,0.03
				C34.98,53.88,34.98,53.87,34.98,53.86z M39.79,61.84C39.79,61.84,39.79,61.84,39.79,61.84C39.8,61.84,39.79,61.84,39.79,61.84
				C39.79,61.84,39.79,61.84,39.79,61.84z M38.42,60.88C38.42,60.88,38.42,60.88,38.42,60.88c-0.01-0.01-0.01-0.01-0.01-0.02
				C38.42,60.87,38.42,60.87,38.42,60.88z M37.14,50.65C37.15,50.65,37.15,50.65,37.14,50.65C37.15,50.65,37.15,50.65,37.14,50.65
				C37.15,50.65,37.15,50.65,37.14,50.65C37.14,50.65,37.14,50.65,37.14,50.65z M36.53,51.46c0-0.01,0-0.02,0-0.03
				c0,0,0.01,0.01,0.01,0.01C36.53,51.45,36.53,51.45,36.53,51.46z M37.16,54.95C37.16,54.95,37.16,54.95,37.16,54.95
				c0.01-0.02,0.01-0.01,0.02-0.01C37.17,54.95,37.17,54.95,37.16,54.95z M36.76,55.06c0.02,0,0.04,0,0.06,0c-0.04,0-0.08,0-0.12,0
				C36.72,55.07,36.74,55.07,36.76,55.06z M37.26,52.61c0.01-0.01,0.02-0.01,0.03,0C37.28,52.62,37.27,52.61,37.26,52.61z
				 M36.98,50.61c-0.01-0.01-0.01-0.02-0.02-0.04c0.01,0.01,0.02,0.01,0.03,0.02C36.98,50.6,36.98,50.61,36.98,50.61z M37.7,57.9
				c0.02,0,0.05,0,0.07,0C37.75,57.91,37.72,57.91,37.7,57.9z M37.85,52.54c0.02-0.05,0.03-0.04,0.05-0.01
				C37.88,52.53,37.86,52.54,37.85,52.54z M36.05,56.01c-0.02,0.01-0.04,0.02-0.06,0.03C36.01,56.02,36.02,56.01,36.05,56.01z
				 M36.55,56.92C36.55,56.92,36.55,56.92,36.55,56.92C36.56,56.93,36.56,56.93,36.55,56.92C36.55,56.93,36.55,56.93,36.55,56.92
				C36.55,56.93,36.55,56.93,36.55,56.92z M40.05,61.77C40.05,61.77,40.05,61.77,40.05,61.77C40.05,61.77,40.05,61.77,40.05,61.77
				C40.05,61.77,40.05,61.77,40.05,61.77z M38.16,50.11C38.16,50.12,38.16,50.12,38.16,50.11c0,0.01-0.01,0.01-0.01,0.01
				C38.15,50.12,38.15,50.12,38.16,50.11C38.15,50.12,38.16,50.12,38.16,50.11z M37.9,49.06c0-0.01,0.02,0,0.03,0.01
				c-0.01,0.01-0.03,0.02-0.04,0.03C37.89,49.08,37.9,49.07,37.9,49.06z M36.05,50.11C36.05,50.11,36.06,50.11,36.05,50.11
				C36.05,50.12,36.05,50.12,36.05,50.11C36.05,50.12,36.05,50.12,36.05,50.11z M35.72,56.11C35.72,56.11,35.72,56.11,35.72,56.11
				C35.72,56.11,35.72,56.11,35.72,56.11C35.72,56.11,35.72,56.11,35.72,56.11z M37.67,60.31C37.67,60.31,37.67,60.31,37.67,60.31
				c-0.02,0-0.04-0.01-0.05-0.04C37.64,60.29,37.66,60.3,37.67,60.31z M39.51,49.09c0-0.02,0-0.03,0.04-0.02c0,0,0,0,0,0
				C39.53,49.08,39.52,49.08,39.51,49.09z M37.79,48.29C37.79,48.29,37.79,48.29,37.79,48.29C37.79,48.29,37.79,48.28,37.79,48.29
				C37.79,48.28,37.79,48.29,37.79,48.29z M35.87,50.53c-0.01,0.01-0.02,0.01-0.02,0.02c0,0,0,0,0-0.01
				C35.84,50.54,35.86,50.54,35.87,50.53z M38.17,55.55c0,0.01,0,0.01,0,0.02c0,0,0,0,0,0C38.17,55.56,38.17,55.55,38.17,55.55z
				 M43.02,47.8c-0.03,0-0.05,0-0.07,0C42.97,47.76,42.99,47.78,43.02,47.8z M43.51,47.15c-0.01,0-0.02,0.01-0.02,0.01
				C43.49,47.16,43.5,47.15,43.51,47.15z M43.25,46.33c0.02-0.01,0.04-0.01,0.06-0.02C43.3,46.32,43.27,46.33,43.25,46.33z
				 M34.98,53.69C34.98,53.69,34.98,53.69,34.98,53.69C34.98,53.69,34.98,53.69,34.98,53.69C34.98,53.69,34.98,53.69,34.98,53.69z
				 M34.64,55.44C34.64,55.44,34.64,55.44,34.64,55.44C34.64,55.44,34.64,55.44,34.64,55.44c-0.01-0.01-0.01-0.02,0-0.02
				C34.64,55.42,34.64,55.43,34.64,55.44z M41.8,64.65C41.81,64.65,41.81,64.65,41.8,64.65C41.81,64.65,41.8,64.65,41.8,64.65z
				 M45.76,65.54C45.76,65.55,45.76,65.55,45.76,65.54C45.76,65.55,45.76,65.55,45.76,65.54C45.76,65.55,45.76,65.55,45.76,65.54z
				 M49.2,47.81C49.2,47.81,49.2,47.81,49.2,47.81c0.01-0.01,0.01,0,0.01,0C49.2,47.81,49.2,47.81,49.2,47.81z M48.5,46.15
				c0.01,0,0.01,0,0.02-0.01c0.01,0,0.03,0,0.04,0C48.53,46.15,48.51,46.15,48.5,46.15z M42.46,45.61c0.03,0,0.06,0.01,0.09,0.01
				C42.52,45.62,42.49,45.62,42.46,45.61z M36.53,48.21C36.53,48.21,36.53,48.21,36.53,48.21C36.53,48.21,36.53,48.21,36.53,48.21
				C36.53,48.21,36.53,48.21,36.53,48.21z M34.57,55.71c0,0.02,0.01,0.04,0.02,0.06c-0.02-0.01-0.04-0.01-0.05-0.02
				C34.55,55.74,34.56,55.73,34.57,55.71z M34.61,56.34C34.61,56.34,34.61,56.34,34.61,56.34C34.61,56.34,34.61,56.34,34.61,56.34
				C34.61,56.34,34.61,56.34,34.61,56.34z M38.64,52.59C38.64,52.59,38.64,52.58,38.64,52.59c0-0.01,0-0.01,0.01-0.01
				C38.64,52.58,38.64,52.58,38.64,52.59z M46.6,48.03c-0.03,0.01-0.06,0.01-0.08,0C46.54,48.03,46.57,48.03,46.6,48.03z
				 M46.15,65.93C46.15,65.93,46.16,65.93,46.15,65.93C46.16,65.94,46.16,65.94,46.15,65.93C46.15,65.93,46.15,65.93,46.15,65.93z
				 M56.02,61.78c0-0.01,0.01-0.01,0.01-0.02c0.01,0.01,0.01,0.02,0.02,0.02C56.04,61.78,56.03,61.78,56.02,61.78z M56.81,54.07
				C56.81,54.07,56.81,54.07,56.81,54.07C56.81,54.07,56.81,54.07,56.81,54.07C56.81,54.07,56.81,54.07,56.81,54.07z M55.92,49.43
				C55.92,49.43,55.92,49.43,55.92,49.43C55.92,49.43,55.92,49.43,55.92,49.43C55.92,49.43,55.92,49.43,55.92,49.43z M52.9,50.06
				c0,0,0.01-0.01,0.01-0.01C52.91,50.06,52.91,50.06,52.9,50.06z M47.33,45.49C47.33,45.49,47.33,45.49,47.33,45.49
				C47.33,45.48,47.33,45.49,47.33,45.49C47.33,45.49,47.33,45.49,47.33,45.49z M43.35,44.48C43.35,44.48,43.35,44.48,43.35,44.48
				C43.35,44.48,43.35,44.48,43.35,44.48C43.35,44.48,43.35,44.48,43.35,44.48z M35.39,49.82c0,0.01-0.01,0.02-0.01,0.03
				c-0.01-0.01-0.01-0.02-0.02-0.03C35.37,49.82,35.38,49.82,35.39,49.82z M42.02,65.07C42.01,65.07,42.01,65.07,42.02,65.07
				C42.01,65.07,42.01,65.07,42.02,65.07z M46.95,64.66c-0.01-0.01-0.03-0.02-0.04-0.03C46.93,64.63,46.94,64.64,46.95,64.66z
				 M47.66,66.44C47.66,66.44,47.66,66.44,47.66,66.44C47.66,66.44,47.66,66.44,47.66,66.44z M49.7,62.91c0,0-0.01-0.01-0.01-0.01
				C49.7,62.9,49.7,62.91,49.7,62.91z M53.16,63.89c0-0.01,0-0.01,0-0.02c0.02,0.02,0.04,0.05,0.06,0.07
				C53.18,63.94,53.16,63.9,53.16,63.89z M36.72,46.79c-0.01,0-0.02,0-0.02,0c0.01-0.01,0.03-0.02,0.04-0.03
				C36.74,46.77,36.73,46.78,36.72,46.79z M34.51,53.05c-0.02,0.01-0.03,0.02-0.05,0.01C34.48,53.06,34.49,53.06,34.51,53.05z
				 M36.49,62.62c0,0,0,0.01,0,0.01c0,0-0.01,0-0.01,0C36.48,62.62,36.49,62.62,36.49,62.62z M43.87,44.2c0-0.01,0-0.02,0-0.02
				c0,0,0,0,0,0c0,0,0,0,0,0C43.87,44.18,43.87,44.19,43.87,44.2z M43.62,44.49c-0.03-0.04-0.05-0.08-0.07-0.1
				c0.02,0,0.04,0.01,0.05,0.03c0.02,0.04,0.04,0.07,0.05,0.1C43.63,44.51,43.63,44.5,43.62,44.49z M34.85,47.85
				C34.85,47.85,34.85,47.85,34.85,47.85C34.85,47.85,34.85,47.85,34.85,47.85C34.85,47.85,34.85,47.85,34.85,47.85z M34.59,60.59
				C34.59,60.59,34.59,60.59,34.59,60.59c-0.07,0-0.11-0.01-0.14,0C34.48,60.56,34.52,60.56,34.59,60.59z M36.13,63
				C36.14,63,36.14,63,36.13,63C36.14,63,36.14,63,36.13,63C36.13,63,36.13,63,36.13,63C36.13,63,36.13,63,36.13,63z M43.01,66.06
				c0,0,0.01-0.01,0.02-0.01c0.01,0,0.02,0.01,0.02,0.02C43.04,66.07,43.02,66.07,43.01,66.06z M43.51,65.77
				c0-0.01,0-0.02,0.02-0.01c0.01,0.01,0.02,0.01,0.02,0.02C43.53,65.78,43.52,65.78,43.51,65.77z M51.62,65.05
				c0,0-0.01-0.01-0.01-0.01C51.62,65.04,51.62,65.05,51.62,65.05z M53.34,64.98c0,0-0.01-0.01-0.01-0.01c0.01,0,0.02,0,0.03-0.01
				C53.35,64.97,53.34,64.97,53.34,64.98z M53.5,46.28c0.04,0,0.04-0.02,0.03-0.05c0,0,0.01,0.01,0.01,0.01
				c0.01,0.04,0.03,0.06,0.07,0.08c0.51,0.21,0.84,0.59,1.05,1.09c0,0.01,0.01,0.01,0.01,0.02c-0.02,0.04-0.01,0.07,0.03,0.11
				c0.01,0,0.02,0,0.03,0c0,0.01,0,0.02,0,0.03c0.01,0.01,0.02,0.02,0.03,0.03c-0.01-0.01-0.03,0-0.07,0.01
				c-0.04,0.28-0.02,0.57-0.09,0.85c0,0.02,0.01,0.03,0.01,0.05c-0.09,0.03-0.11,0.13-0.15,0.2c-0.08,0.16-0.27,0.24-0.3,0.44
				c0,0,0,0,0,0c-0.3,0.23-0.64,0.37-1.02,0.41c-0.05,0-0.1,0-0.15,0l0,0c-0.31-0.04-0.59-0.13-0.86-0.29v0
				c-0.18-0.14-0.33-0.3-0.47-0.47c-0.07-0.14-0.14-0.29-0.21-0.43l0,0c-0.07-0.28-0.06-0.56-0.04-0.84h0
				c0.09-0.3,0.22-0.57,0.43-0.81h0l0,0c0.17-0.16,0.37-0.29,0.58-0.41c0.02,0.01,0.05,0.02,0.07,0.02
				C52.82,46.27,53.16,46.26,53.5,46.28z M52.21,45.26c0,0,0-0.01,0-0.01C52.21,45.25,52.21,45.26,52.21,45.26
				C52.22,45.26,52.21,45.26,52.21,45.26z M42.84,44.19c0,0,0-0.01,0-0.01c0,0,0,0,0.01,0C42.84,44.18,42.84,44.18,42.84,44.19z
				 M36.37,45.88c0.01-0.01,0.03-0.02,0.04-0.03C36.39,45.86,36.38,45.87,36.37,45.88z M35.84,46.17
				C35.84,46.16,35.84,46.16,35.84,46.17c0.02-0.01,0.04-0.02,0.06-0.03C35.88,46.17,35.86,46.19,35.84,46.17z M55.96,63.99
				c0,0,0.01,0.01,0.01,0.01C55.96,64,55.96,64,55.96,63.99C55.95,63.99,55.96,63.99,55.96,63.99z M56.27,46.61
				c0.01-0.01,0.03-0.01,0.04-0.02C56.3,46.6,56.29,46.6,56.27,46.61z M53.15,45.09c-0.01,0-0.02,0.01-0.04,0.01
				c0-0.02,0.01-0.03,0.01-0.04C53.13,45.07,53.14,45.08,53.15,45.09z M43.89,44.04C43.89,44.04,43.89,44.04,43.89,44.04
				C43.89,44.03,43.89,44.03,43.89,44.04C43.89,44.03,43.89,44.03,43.89,44.04z M43.71,44.17c0,0.01,0,0.01,0,0.02c0,0,0,0,0,0
				c0-0.01,0-0.01-0.01-0.02C43.7,44.17,43.71,44.17,43.71,44.17C43.71,44.17,43.71,44.17,43.71,44.17z M39.11,44.26
				C39.11,44.26,39.11,44.27,39.11,44.26c-0.01,0-0.01-0.01,0-0.02C39.11,44.25,39.11,44.26,39.11,44.26z M36.68,45.55
				c-0.02,0.01-0.04,0.01-0.06,0.01C36.64,45.54,36.66,45.54,36.68,45.55z M40.59,66.16C40.59,66.15,40.59,66.15,40.59,66.16
				c0.01,0,0.01,0,0.02,0C40.6,66.16,40.6,66.16,40.59,66.16z"/>
			<path class="st1" d="M49.12,52.25c-0.05-0.06-0.1-0.14-0.16-0.19c-1.38-1.32-2.99-1.72-4.82-1.16c-1.06,0.33-1.89,0.99-2.47,1.94
				c-0.26,0.38-0.45,0.79-0.55,1.23v0h0c-0.12,0.34-0.18,0.7-0.17,1.06c-0.04,0.59,0.03,1.15,0.25,1.7c0.12,0.43,0.33,0.83,0.6,1.18
				c0.65,0.94,1.54,1.54,2.64,1.83c0.87,0.23,1.73,0.22,2.59-0.08c0.44-0.12,0.84-0.31,1.2-0.59c0.26-0.15,0.48-0.33,0.68-0.56
				c0.41-0.39,0.73-0.84,0.94-1.36c0.05-0.08,0.1-0.17,0.11-0.26c0.27-0.64,0.37-1.31,0.3-2C50.21,53.95,49.82,53.03,49.12,52.25z
				 M42.44,56c0,0.01-0.01,0.02-0.02,0.03c-0.01-0.01-0.01-0.01-0.02-0.02C42.41,56.01,42.42,56.01,42.44,56z M46.44,55.04
				c-0.01-0.03-0.01-0.05-0.02-0.07C46.49,55,46.47,55.02,46.44,55.04z M45.53,54.26C45.53,54.26,45.54,54.25,45.53,54.26
				C45.54,54.25,45.54,54.25,45.53,54.26C45.54,54.25,45.53,54.26,45.53,54.26z M43.09,55.34c-0.03-0.01-0.08-0.01-0.13-0.02
				c0.01-0.02,0.02-0.04,0.05-0.04C43.03,55.29,43.06,55.32,43.09,55.34z M42.61,54.98C42.61,54.97,42.61,54.97,42.61,54.98
				C42.61,54.97,42.61,54.97,42.61,54.98C42.62,54.97,42.61,54.97,42.61,54.98z M48.32,55.65c0,0.01,0,0.02,0.01,0.03
				c-0.01-0.01-0.01-0.02-0.02-0.03C48.31,55.65,48.32,55.65,48.32,55.65z M44.83,52.76c0.01,0,0.01,0,0.02,0
				C44.85,52.76,44.84,52.76,44.83,52.76z M42.74,57.26C42.74,57.26,42.74,57.26,42.74,57.26c0-0.01,0-0.01,0.01-0.01
				C42.74,57.25,42.74,57.26,42.74,57.26z M44.95,52.48c0.01,0,0.02,0.01,0.03,0.01c-0.02,0-0.03,0-0.04,0
				C44.95,52.49,44.95,52.49,44.95,52.48z M42.26,54.5c0.02-0.01,0.04-0.02,0.06-0.01C42.3,54.5,42.28,54.5,42.26,54.5z
				 M48.39,57.53c0,0,0.01-0.01,0.01-0.01C48.39,57.52,48.39,57.52,48.39,57.53C48.39,57.52,48.39,57.53,48.39,57.53z M43.67,52.31
				c-0.02,0.02-0.04,0.03-0.05,0.03C43.63,52.33,43.65,52.32,43.67,52.31z"/>
		</g>
	</g>
</g>
<g id="Layer_2">
</g>
</svg>
