<?xml version="1.0" encoding="utf-8"?>
<!-- Generator: Adobe Illustrator 25.1.0, SVG Export Plug-In . SVG Version: 6.00 Build 0)  -->
<svg version="1.1" xmlns="http://www.w3.org/2000/svg" xmlns:xlink="http://www.w3.org/1999/xlink" x="0px" y="0px"
	 viewBox="0 0 119 112" style="enable-background:new 0 0 119 112;" xml:space="preserve">
<style type="text/css">
	.st0{fill:#F1921A;}
	.st1{fill:#5E2A00;}
	.st2{fill:none;stroke:#000000;stroke-width:6;stroke-miterlimit:10;}
	.st3{fill:none;stroke:#5E2A00;stroke-miterlimit:10;}
	.st4{fill:none;stroke:#5E2A00;stroke-width:2;stroke-miterlimit:10;}
	.st5{fill:#FFFFFF;stroke:#F1921A;stroke-miterlimit:10;}
	.st6{fill:#F1921A;stroke:#FFFFFF;stroke-miterlimit:10;}
	.st7{fill:none;stroke:#F1921A;stroke-miterlimit:10;}
	.st8{fill:none;stroke:#F1921A;stroke-width:2;stroke-miterlimit:10;}
	.st9{fill:#F1921A;stroke:#F1921A;stroke-width:2;stroke-miterlimit:10;}
	.st10{fill:#FEFEFE;}
</style>
<g id="Layer_1">
	<g>
		<path class="st1" d="M72.21,74.16c-10.62,0-21.23,0-31.85,0c-0.03-0.07-0.1-0.06-0.15-0.08c-0.87-0.2-1.56-0.66-2.09-1.37
			c-0.32-0.43-0.44-0.94-0.62-1.42c0-10.64,0-21.28,0-31.92c0.09-0.04,0.06-0.12,0.08-0.19c0.47-1.69,1.72-2.68,3.46-2.68
			c10.2,0,20.4,0,30.6,0c0.56,0,1.1,0.09,1.6,0.35c1.32,0.68,1.93,1.79,1.93,3.25c0,6.08,0,12.16,0,18.24c0,4.07,0,8.14,0,12.21
			c0,1.22-0.43,2.21-1.42,2.96C73.28,73.85,72.74,73.99,72.21,74.16z M58.15,52.65c0-0.41,0-0.82,0-1.24
			c-0.01-0.71-0.38-1.08-1.09-1.08c-1.32,0-2.65,0-3.97,0c-0.79,0-1.15,0.36-1.15,1.14c0,5.8,0,11.59,0,17.39
			c0,0.79,0.35,1.15,1.14,1.15c1.3,0,2.6,0,3.9,0c0.84,0,1.18-0.34,1.18-1.18c0-2.97,0-5.93,0-8.9c0-1.01,0.21-1.97,0.68-2.86
			c0.68-1.29,1.78-1.8,3.2-1.66c1.24,0.12,2.04,0.81,2.46,1.96c0.27,0.75,0.36,1.53,0.36,2.31c0.01,3.09,0,6.18,0,9.27
			c0,0.7,0.36,1.06,1.06,1.07c1.41,0.01,2.82,0.01,4.23,0c0.7,0,1.05-0.37,1.05-1.07c0-3.28,0.01-6.57-0.02-9.85
			c-0.02-1.71-0.17-3.4-0.8-5.01c-0.66-1.69-1.77-2.95-3.51-3.57c-1.4-0.5-2.85-0.54-4.32-0.36c-1.01,0.13-1.96,0.43-2.81,1
			C59.13,51.55,58.64,52.08,58.15,52.65z M49.14,60.14c0-2.88,0-5.76,0-8.64c0-0.8-0.38-1.17-1.17-1.17c-1.27,0-2.55,0-3.82,0
			c-0.84,0-1.21,0.37-1.21,1.21c0,5.75,0,11.49,0,17.24c0,0.86,0.36,1.23,1.23,1.23c1.23,0,2.45,0,3.68,0c0.97,0,1.3-0.33,1.3-1.3
			C49.14,65.85,49.14,63,49.14,60.14z M46.02,48.66c2.22,0.01,4.03-1.79,4.03-4c0-2.2-1.78-3.98-3.99-4.01
			c-2.19-0.02-4,1.77-4.02,3.97C42.02,46.85,43.79,48.65,46.02,48.66z"/>
	</g>
</g>
<g id="Layer_2">
</g>
</svg>
