<svg id="Layer_1" data-name="Layer 1" xmlns="http://www.w3.org/2000/svg" viewBox="0 0 175 182"><defs><style>.cls-1{fill:#5e2a00;}</style></defs><path class="cls-1" d="M106.49,47s-1.25,11.13-8.33,13.84h2.24l4.14-2.39L107,53.12V47Z"/><path class="cls-1" d="M84.65,36S85.51,55,93,57h0l-.18.69-5.26-2.25-3.1-4-.3-13.92L84.65,36"/><path class="cls-1" d="M116.12,69.8s-5.63,6.37-19.87,7-21.1-2.28-21.1-2.28l5,7.86L89.68,88l7.53.48,9-3.49,5.69-4.49,5-11.36Z"/><path class="cls-1" d="M116.18,70.07S96.74,90.85,77.65,78h0l2,3.33,7,5.77,8.74,1.39,9.12-1.71,8.27-7.42"/><rect class="cls-1" x="59.34" y="81.59" width="21.03" height="0.99"/><rect class="cls-1" x="110.01" y="81.6" width="18.87" height="0.99"/><path class="cls-1" d="M124.47,71.89a7.22,7.22,0,0,0-7.2-7.22H72.91C72.91,78.1,82.86,89,95.09,89A21.6,21.6,0,0,0,113,79.11h4.42A7.22,7.22,0,0,0,124.47,71.89ZM95.09,88c-11.38,0-20.69-10-21.17-22.38h42.34C115.79,78.09,106.47,88,95.09,88Zm22.16-9.92h-3.67a25.77,25.77,0,0,0,3.67-12.46,6.23,6.23,0,1,1,0,12.46Z"/><path class="cls-1" d="M97.67,61.86h-.5v-6A9.82,9.82,0,0,1,107,46h.5v6A9.82,9.82,0,0,1,97.67,61.86ZM106.49,47a8.83,8.83,0,0,0-8.33,8.81v5a8.82,8.82,0,0,0,8.33-8.8Z"/><path class="cls-1" d="M94,58h-.5a9.82,9.82,0,0,1-9.81-9.81V35h.5A9.82,9.82,0,0,1,94,44.78ZM84.65,36V48.23A8.82,8.82,0,0,0,93,57V44.78A8.82,8.82,0,0,0,84.65,36Z"/><path class="cls-1" d="M61.29,102.28a7.89,7.89,0,0,1,2.94-3,8.16,8.16,0,0,1,4.15-1.08,8.42,8.42,0,0,1,4.67,1.29A7.39,7.39,0,0,1,76,103.16H73.4a5.28,5.28,0,0,0-2-2.28,5.71,5.71,0,0,0-3.06-.79,6,6,0,0,0-3.08.79,5.65,5.65,0,0,0-2.14,2.27,7.33,7.33,0,0,0-.77,3.44,7.24,7.24,0,0,0,.77,3.41,5.59,5.59,0,0,0,2.14,2.27,6,6,0,0,0,3.08.8,5.71,5.71,0,0,0,3.06-.79,5.11,5.11,0,0,0,2-2.26H76a7.33,7.33,0,0,1-2.91,3.62,8.41,8.41,0,0,1-4.67,1.28,8.15,8.15,0,0,1-4.15-1.07,7.77,7.77,0,0,1-2.94-3,8.52,8.52,0,0,1-1.08-4.29A8.62,8.62,0,0,1,61.29,102.28Z"/><path class="cls-1" d="M79.13,104.84a5.81,5.81,0,0,1,2.19-2.31,6,6,0,0,1,3.11-.82,5.77,5.77,0,0,1,2.94.72,4.92,4.92,0,0,1,1.85,1.83v-2.34h2.16v12.86H89.22v-2.39a5,5,0,0,1-1.89,1.86,5.59,5.59,0,0,1-2.92.74,5.86,5.86,0,0,1-3.1-.84,6,6,0,0,1-2.18-2.37,7.32,7.32,0,0,1-.8-3.48A7.13,7.13,0,0,1,79.13,104.84Zm9.5,1a4.12,4.12,0,0,0-1.58-1.65,4.28,4.28,0,0,0-2.2-.58,4.39,4.39,0,0,0-2.18.56,4.1,4.1,0,0,0-1.57,1.65,5.22,5.22,0,0,0-.59,2.53,5.33,5.33,0,0,0,.59,2.57,4.09,4.09,0,0,0,1.57,1.67,4.3,4.3,0,0,0,2.18.57,4.37,4.37,0,0,0,2.2-.57,4.11,4.11,0,0,0,1.58-1.67,5.76,5.76,0,0,0,0-5.08Z"/><path class="cls-1" d="M100.23,103.68h-2.7v11.1H95.39v-11.1H93.73v-1.76h1.66V101a4.06,4.06,0,0,1,1.12-3.16,5.32,5.32,0,0,1,3.58-1v1.78a2.86,2.86,0,0,0-2,.55,2.42,2.42,0,0,0-.58,1.82v.92h2.7Z"/><path class="cls-1" d="M108,103.68h-2.7v11.1h-2.13v-11.1h-1.67v-1.76h1.67V101a4.06,4.06,0,0,1,1.11-3.16,5.32,5.32,0,0,1,3.58-1v1.78a2.86,2.86,0,0,0-2,.55,2.42,2.42,0,0,0-.58,1.82v.92H108Z"/><path class="cls-1" d="M122.11,109.15H111.83a4,4,0,0,0,4.17,4,4,4,0,0,0,2.32-.64,3.47,3.47,0,0,0,1.3-1.73h2.3a5.46,5.46,0,0,1-2.07,3A6.18,6.18,0,0,1,116,115a6.46,6.46,0,0,1-3.27-.82,5.88,5.88,0,0,1-2.27-2.34,7.27,7.27,0,0,1-.82-3.5,7.38,7.38,0,0,1,.8-3.5,5.61,5.61,0,0,1,2.24-2.31,6.66,6.66,0,0,1,3.32-.81,6.48,6.48,0,0,1,3.24.79,5.62,5.62,0,0,1,2.18,2.2,6.56,6.56,0,0,1,.76,3.16C122.18,108.26,122.15,108.69,122.11,109.15Zm-2.68-3.84A3.52,3.52,0,0,0,118,104a4.61,4.61,0,0,0-2-.46,4,4,0,0,0-2.76,1,4.2,4.2,0,0,0-1.3,2.86H120A4,4,0,0,0,119.43,105.31Z"/><path class="cls-1" d="M125.06,99.41a1.43,1.43,0,0,1-.42-1,1.41,1.41,0,0,1,.42-1,1.43,1.43,0,0,1,1-.42,1.32,1.32,0,0,1,1,.42,1.41,1.41,0,0,1,.42,1,1.43,1.43,0,0,1-.42,1,1.32,1.32,0,0,1-1,.42A1.43,1.43,0,0,1,125.06,99.41Zm2.07,2.51v12.86H125V101.92Z"/><path class="cls-1" d="M140.84,103.1a5.49,5.49,0,0,1,1.45,4.1v7.58h-2.11V107.5a4.13,4.13,0,0,0-1-2.94,3.44,3.44,0,0,0-2.63-1,3.54,3.54,0,0,0-2.69,1,4.36,4.36,0,0,0-1,3.08v7.11h-2.13V101.92h2.13v1.83a4.28,4.28,0,0,1,1.73-1.53,5.36,5.36,0,0,1,2.41-.54A5.24,5.24,0,0,1,140.84,103.1Z"/><path class="cls-1" d="M63.14,134.45h5.73v1.73H61V119.82h2.14Z"/><path class="cls-1" d="M71.21,120.81a1.49,1.49,0,0,1,0-2.07,1.43,1.43,0,0,1,1-.42,1.36,1.36,0,0,1,1,.42,1.51,1.51,0,0,1,0,2.07,1.36,1.36,0,0,1-1,.42A1.43,1.43,0,0,1,71.21,120.81Zm2.07,2.51v12.86H71.14V123.32Z"/><path class="cls-1" d="M87,124.51a5.45,5.45,0,0,1,1.46,4.09v7.58H86.33v-7.27a4.14,4.14,0,0,0-1-3,3.44,3.44,0,0,0-2.63-1A3.51,3.51,0,0,0,80.05,126a4.33,4.33,0,0,0-1,3.07v7.11H76.92V123.32h2.13v1.83a4.25,4.25,0,0,1,1.73-1.52,5.36,5.36,0,0,1,2.41-.54A5.2,5.2,0,0,1,87,124.51Z"/><path class="cls-1" d="M103.61,130.55H93.33a4,4,0,0,0,4.18,4,4,4,0,0,0,2.31-.65,3.38,3.38,0,0,0,1.3-1.72h2.3a5.5,5.5,0,0,1-2.06,3,6.23,6.23,0,0,1-3.85,1.17,6.5,6.5,0,0,1-3.28-.83A5.7,5.7,0,0,1,92,133.24a7.23,7.23,0,0,1-.83-3.51,7.38,7.38,0,0,1,.8-3.5,5.61,5.61,0,0,1,2.24-2.31,6.7,6.7,0,0,1,3.33-.81,6.49,6.49,0,0,1,3.24.8,5.57,5.57,0,0,1,2.17,2.19,6.48,6.48,0,0,1,.76,3.16A11.65,11.65,0,0,1,103.61,130.55Zm-2.68-3.84a3.53,3.53,0,0,0-1.46-1.33,4.55,4.55,0,0,0-2.06-.46,4,4,0,0,0-2.76,1,4.2,4.2,0,0,0-1.3,2.86h8.12A4,4,0,0,0,100.93,126.71Z"/></svg>