<?xml version="1.0" encoding="utf-8"?>
<!-- Generator: Adobe Illustrator 25.1.0, SVG Export Plug-In . SVG Version: 6.00 Build 0)  -->
<svg version="1.1" xmlns="http://www.w3.org/2000/svg" xmlns:xlink="http://www.w3.org/1999/xlink" x="0px" y="0px"
	 viewBox="0 0 175 168" style="enable-background:new 0 0 175 168;" xml:space="preserve">
<style type="text/css">
	.st0{fill:#F1921A;}
	.st1{fill:#5E2A00;}
	.st2{fill:none;stroke:#000000;stroke-width:6;stroke-miterlimit:10;}
	.st3{fill:none;stroke:#5E2A00;stroke-miterlimit:10;}
	.st4{fill:none;stroke:#5E2A00;stroke-width:2;stroke-miterlimit:10;}
	.st5{fill:#FFFFFF;stroke:#F1921A;stroke-miterlimit:10;}
	.st6{fill:#F1921A;stroke:#FFFFFF;stroke-miterlimit:10;}
	.st7{fill:none;stroke:#F1921A;stroke-miterlimit:10;}
	.st8{fill:none;stroke:#F1921A;stroke-width:2;stroke-miterlimit:10;}
	.st9{fill:#F1921A;stroke:#F1921A;stroke-width:2;stroke-miterlimit:10;}
	.st10{fill:#FEFEFE;}
</style>
<g id="Layer_1">
	<g>
		<path class="st0" d="M107.65,33c4.77,4.85,9.2,10.11,14.44,14.39c3.53,2.88,8.14,4.48,12.37,6.42c1.99,0.91,3,1.96,2.68,4.27
			c-1.17,8.37,0.89,16.04,5.5,23.02c1.68,2.54,1.65,4.77-0.03,7.26c-4.75,7.05-6.52,14.85-5.48,23.26c0.24,1.97-0.44,3.06-2.32,3.77
			c-9.27,3.53-17.01,9.3-23.22,16.96c-2.73,3.36-5.53,4.47-9.54,2.72c-6.44-2.81-12.96-2.28-19.33,0.17
			c-3.47,1.34-5.95,0.72-8.24-2.23c-1.67-2.16-4.03-3.8-5.73-5.94c-4.75-5.96-11.69-8.43-18.14-11.65c-1.77-0.88-2.56-1.82-2.3-3.8
			c1.1-8.52-0.88-16.32-5.53-23.5C42.1,87.11,41.58,86,41,84.94c0-0.15,0-0.31,0-0.46c0.72-1.34,1.36-2.72,2.18-4
			c4.27-6.65,6.19-13.87,5.1-21.75c-0.37-2.7,0.66-4.07,3.11-5.15c4.12-1.81,8.57-3.4,11.96-6.19C68.57,43.09,73,37.84,77.77,33
			c0.31,0,0.61,0,0.92,0c4.19,1.1,8.38,2.21,12.58,3.3c0.58,0.15,1.24,0.43,1.78,0.3c4.57-1.15,9.12-2.39,13.68-3.6
			C107.03,33,107.34,33,107.65,33z M130.36,65.97c0-1.3-0.12-2.62,0.03-3.9c0.22-1.93-0.4-3.08-2.29-3.84
			c-7.43-2.99-13.65-7.69-18.87-13.76c-0.75-0.87-1.68-1.58-2.4-2.47c-1.01-1.25-2.08-1.31-3.61-0.95
			c-5.33,1.25-10.61,3.9-16.23,1.2c-5.02-2.41-8.73-0.92-12.13,3.31c-4.71,5.86-10.74,10.16-17.82,12.85
			c-1.63,0.62-2.19,1.64-1.98,3.32c0.87,6.94-0.65,13.35-4.55,19.14c-1.79,2.66-1.8,5.03,0,7.7c3.89,5.78,5.43,12.2,4.53,19.14
			c-0.24,1.86,0.57,2.78,2.19,3.43c7.59,3.05,13.88,7.9,19.2,14.07c0.65,0.75,1.47,1.36,2.08,2.13c1.04,1.32,2.17,1.4,3.79,1.03
			c5.26-1.22,10.44-3.85,16.02-1.23c5.03,2.36,8.87,1.04,12.33-3.34c4.62-5.85,10.63-10.04,17.63-12.71
			c1.74-0.66,2.28-1.74,2.08-3.5c-0.78-6.67,0.42-12.94,4.3-18.5c2.09-2.99,1.85-5.62,0.07-8.77
			C132.25,75.92,129.15,71.55,130.36,65.97z"/>
		<path class="st0" d="M110.92,62.22c1.41,1.43,2.9,2.94,4.33,4.4c-13.54,13.49-27.13,27.03-40.83,40.69
			c-1.27-1.4-2.74-3.02-4.16-4.59C83.71,89.32,97.3,75.78,110.92,62.22z"/>
		<path class="st0" d="M68.83,70.72c0.22-5.7,4.9-10.12,10.51-9.91c5.76,0.22,10.2,5.03,9.92,10.76c-0.27,5.47-5.03,9.85-10.54,9.7
			C73.11,81.11,68.62,76.32,68.83,70.72z M82.4,71.12c0.04-1.93-1.53-3.58-3.4-3.57c-1.76,0.01-3.39,1.6-3.44,3.36
			c-0.05,1.89,1.55,3.5,3.47,3.49C80.97,74.39,82.36,73.04,82.4,71.12z"/>
		<path class="st0" d="M116.58,98.72c-0.23,5.7-4.94,10.14-10.52,9.91c-5.76-0.24-10.19-5.06-9.91-10.78
			c0.27-5.55,5.2-9.98,10.78-9.69C112.44,88.44,116.8,93.22,116.58,98.72z M109.85,98.52c0.05-1.8-1.42-3.39-3.24-3.49
			c-2.04-0.11-3.55,1.26-3.6,3.28c-0.05,1.92,1.53,3.58,3.4,3.57C108.17,101.87,109.8,100.28,109.85,98.52z"/>
	</g>
</g>
<g id="Layer_2">
</g>
</svg>
