<?xml version="1.0" encoding="utf-8"?>
<!-- Generator: Adobe Illustrator 25.1.0, SVG Export Plug-In . SVG Version: 6.00 Build 0)  -->
<svg version="1.1" xmlns="http://www.w3.org/2000/svg" xmlns:xlink="http://www.w3.org/1999/xlink" x="0px" y="0px"
	 viewBox="0 0 113 112" style="enable-background:new 0 0 113 112;" xml:space="preserve">
<style type="text/css">
	.st0{fill:#F1921A;}
	.st1{fill:#5E2A00;}
	.st2{fill:none;stroke:#000000;stroke-width:6;stroke-miterlimit:10;}
	.st3{fill:none;stroke:#5E2A00;stroke-miterlimit:10;}
	.st4{fill:none;stroke:#5E2A00;stroke-width:2;stroke-miterlimit:10;}
	.st5{fill:#FFFFFF;stroke:#F1921A;stroke-miterlimit:10;}
	.st6{fill:#F1921A;stroke:#FFFFFF;stroke-miterlimit:10;}
	.st7{fill:none;stroke:#F1921A;stroke-miterlimit:10;}
	.st8{fill:none;stroke:#F1921A;stroke-width:2;stroke-miterlimit:10;}
	.st9{fill:#F1921A;stroke:#F1921A;stroke-width:2;stroke-miterlimit:10;}
	.st10{fill:#FEFEFE;}
</style>
<g id="Layer_1">
	<g>
		<path class="st1" d="M71.37,43.65c-0.17,0.64-0.67,1.06-1.07,1.53c-0.64,0.76-1.36,1.44-2.15,2.03c-0.31,0.23-0.45,0.47-0.44,0.87
			c0.06,6.25-2.1,11.66-6.36,16.19c-3.14,3.34-7.05,5.39-11.56,6.18c-5.47,0.95-10.68,0.17-15.52-2.64
			c-0.14-0.08-0.28-0.17-0.42-0.27c-0.03-0.02-0.04-0.07-0.12-0.19c4.12,0.31,7.82-0.68,11.25-3.25c-3.62-0.35-5.95-2.15-7.27-5.45
			c1.14,0.13,2.18,0.17,3.36-0.13c-0.45-0.17-0.76-0.27-1.07-0.4c-3.05-1.27-4.67-3.59-5.02-6.84c-0.04-0.4,0.06-0.53,0.46-0.34
			c0.88,0.41,1.81,0.65,2.9,0.75c-3.36-2.95-4.17-6.37-2.28-10.48c1.01,1.14,1.98,2.16,3.06,3.06c3.66,3.04,7.88,4.71,12.6,5.13
			c0.59,0.05,0.46-0.29,0.41-0.61c-0.61-3.88,1.85-7.7,5.66-8.7c2.75-0.72,5.22-0.14,7.35,1.76c0.37,0.33,0.66,0.39,1.13,0.28
			c1.46-0.33,2.78-1.01,4.13-1.6l-0.01-0.01c-0.06,1.02-0.72,1.74-1.29,2.49c-0.45,0.59-1.03,1.06-1.77,1.6
			C68.86,44.55,70.09,44.01,71.37,43.65L71.37,43.65z"/>
	</g>
</g>
<g id="Layer_2">
</g>
</svg>
