<?xml version="1.0" encoding="utf-8"?>
<!-- Generator: Adobe Illustrator 25.1.0, SVG Export Plug-In . SVG Version: 6.00 Build 0)  -->
<svg version="1.1" xmlns="http://www.w3.org/2000/svg" xmlns:xlink="http://www.w3.org/1999/xlink" x="0px" y="0px"
	 viewBox="0 0 202 183" style="enable-background:new 0 0 202 183;" xml:space="preserve">
<style type="text/css">
	.st0{fill:#F1921A;}
	.st1{fill:#5E2A00;}
	.st2{fill:none;stroke:#000000;stroke-width:6;stroke-miterlimit:10;}
	.st3{fill:none;stroke:#5E2A00;stroke-miterlimit:10;}
	.st4{fill:none;stroke:#5E2A00;stroke-width:2;stroke-miterlimit:10;}
	.st5{fill:#FFFFFF;stroke:#F1921A;stroke-miterlimit:10;}
	.st6{fill:#F1921A;stroke:#FFFFFF;stroke-miterlimit:10;}
	.st7{fill:none;stroke:#F1921A;stroke-miterlimit:10;}
	.st8{fill:none;stroke:#F1921A;stroke-width:2;stroke-miterlimit:10;}
	.st9{fill:#F1921A;stroke:#F1921A;stroke-width:2;stroke-miterlimit:10;}
	.st10{fill:#FEFEFE;}
</style>
<g id="Layer_1">
</g>
<g id="Layer_2">
	<g>
		<path class="st0" d="M115.34,130.14c-13.21,0-26.42-0.07-39.63,0.05c-2.68,0.02-4.16-0.28-2.98-3.38c0.27-0.72,0.3-1.56,0.29-2.34
			c-0.02-5.57,1.67-9.82,7.97-10.71c1.83-0.26,2.07-1.57,2-3.24c-0.32-7.67-0.93-15.34,0.15-23c0.34-2.45,0.76-4.9,1.31-7.31
			c0.37-1.6,0.07-2.5-1.61-3.02c-1.49-0.47-2.83-1.4-4.32-1.91c-2.97-1.02-4.19-3.1-3.22-5.97c2.01-5.99,2.95-12.7,9.41-16.1
			c1.1-0.58,2.3-2,3.56-0.46c1.17,1.43-0.75,1.76-1.26,2.55c-1.35,2.11-0.91,3.98,1.45,4.61c15.9,4.22,31.97,5.51,48.24,2.45
			c3.92-0.74,4.05-1.33,1.46-4.32c-0.34-0.39-1.14-0.62-0.73-1.28c0.43-0.68,1.19-1.03,2.04-0.86c3.98,0.82,7.69,2.12,9.42,6.26
			c1.74,4.19,2.04,8.76,3.36,13.07c0.22,0.73,0.08,1.32-0.79,1.53c-0.33,0.08-0.62,0.26-0.94,0.38c-2.3,0.86-5.68,0.69-6.63,2.67
			c-0.82,1.7,0.69,4.49,1.08,6.81c1.42,8.37,1.97,16.81,1.96,25.29c0,2.29,0.51,3.72,2.94,3.85c5.22,0.28,7.3,2.98,7.79,8.2
			c0.64,6.75,1.05,6.68-5.75,6.67c-12.19-0.02-24.39-0.01-36.58-0.01C115.34,130.47,115.34,130.3,115.34,130.14z"/>
		<path class="st0" d="M134.3,62.22c-1.29-1.52-2.29-2.74-3.33-3.92c-1.92-2.18-3.91-3.9-7.24-2.77c-1.99,0.68-3.58-0.51-5.03-1.98
			c-9.75-9.87-7.66-9.11-17.68-0.83c-2.57,2.12-6.12,2.82-8,5.91c-0.78,1.27-1.78-0.13-2.61-0.46c-1.06-0.42-0.75-1.2-0.19-1.87
			c0.72-0.86,1.31-2.05,2.24-2.49c4.98-2.34,8.58-6.5,13.01-9.56c3.14-2.17,6.03-2.17,8.96,0.16c1.32,1.05,2.69,2.08,3.83,3.3
			c2.4,2.57,4.53,5.21,8.8,3.77c1.65-0.56,9.38,5.71,9.57,7.37C136.81,60.36,135.05,60.52,134.3,62.22z"/>
		<path class="st10" d="M115.28,124.61c-11.18,0-22.35,0.02-33.53-0.04c-0.93-0.01-2.59,0.86-2.72-0.92
			c-0.11-1.43-0.13-2.85,1.82-3.87c4.49-2.33,9.07-1.09,13.61-1c1.97,0.04,3.2-0.17,3.47-2.37c0.33-2.66-1.88-1.56-2.97-2.06
			c-0.6-0.28-1.31-0.29-1.98-0.42c-2.93-0.57-4.71-1.76-4.52-5.33c0.28-5.29,0.1-10.61-0.12-15.9c-0.11-2.65,1.11-3.8,3.41-4.54
			c9.2-2.97,18.45-2.73,27.71-0.51c6.58,1.58,12.83,4.14,18.93,7.09c1.63,0.79,2.4,1.71,2.42,3.56c0.03,3.04,0.23,6.09,0.54,9.12
			c0.36,3.51,0.26,6.72-3.46,8.59c-1.54,0.78-1.27,2.22-0.96,3.56c0.39,1.67,1.77,1.02,2.78,1.06c3.14,0.12,6.31-0.44,9.39,0.69
			c1.24,0.45,2.83,0.46,2.6,2.4c-0.24,2.09-1.91,1.09-2.88,1.1c-11.18,0.08-22.35,0.05-33.53,0.05
			C115.28,124.78,115.28,124.7,115.28,124.61z"/>
		<path class="st10" d="M116.46,78.63c-11.67-0.26-23.1-1.64-33.97-6.34c-2.79-1.21-3.11-2.56-1.98-5.13
			c1.93-4.41,1.77-4.28,6.17-3.1c17.42,4.68,35.02,6.25,52.81,2.27c5.4-1.21,5.19-1.35,6.84,3.99c0.78,2.53,0.34,3.48-2.23,4.19
			C135.04,76.99,125.91,78.8,116.46,78.63z"/>
		<path class="st0" d="M66.85,143.25c-13.21,0-26.42-0.07-39.63,0.05c-2.68,0.02-4.16-0.28-2.98-3.38c0.27-0.72,0.3-1.56,0.29-2.34
			c-0.02-5.57,1.67-9.82,7.97-10.71c1.83-0.26,2.07-1.57,2-3.24c-0.32-7.67-0.93-15.34,0.15-23c0.34-2.45,0.76-4.9,1.31-7.31
			c0.37-1.6,0.07-2.5-1.61-3.02c-1.49-0.47-2.83-1.4-4.32-1.91c-2.97-1.02-4.19-3.1-3.22-5.97c2.01-5.99,2.95-12.7,9.41-16.1
			c1.1-0.58,2.3-2,3.56-0.46c1.17,1.43-0.75,1.76-1.26,2.55c-1.35,2.11-0.91,3.98,1.45,4.61c15.9,4.22,31.97,5.51,48.24,2.45
			c3.92-0.74,4.05-1.33,1.46-4.32c-0.34-0.39-1.14-0.62-0.73-1.28c0.43-0.68,1.19-1.03,2.04-0.86c3.98,0.82,7.69,2.12,9.42,6.26
			c1.74,4.19,2.04,8.76,3.36,13.07c0.22,0.73,0.08,1.32-0.79,1.53c-0.33,0.08-0.62,0.26-0.94,0.38c-2.3,0.86-5.68,0.69-6.63,2.67
			c-0.82,1.7,0.69,4.49,1.08,6.81c1.42,8.37,1.97,16.81,1.96,25.29c0,2.29,0.51,3.72,2.94,3.85c5.22,0.28,7.3,2.98,7.79,8.2
			c0.64,6.75,1.05,6.68-5.75,6.67c-12.19-0.02-24.39-0.01-36.58-0.01C66.85,143.58,66.85,143.42,66.85,143.25z"/>
		<path class="st0" d="M85.82,75.34c-1.29-1.52-2.29-2.74-3.33-3.92c-1.92-2.18-3.91-3.9-7.24-2.77c-1.99,0.68-3.58-0.51-5.03-1.98
			c-9.75-9.87-7.66-9.11-17.68-0.83c-2.57,2.12-6.12,2.82-8,5.91c-0.78,1.27-1.78-0.13-2.61-0.46c-1.06-0.42-0.75-1.2-0.19-1.87
			c0.72-0.86,1.31-2.05,2.24-2.49c4.98-2.34,8.58-6.5,13.01-9.56c3.14-2.17,6.03-2.17,8.96,0.16c1.32,1.05,2.69,2.08,3.83,3.3
			c2.4,2.57,4.53,5.21,8.8,3.77c1.65-0.56,9.38,5.71,9.57,7.37C88.32,73.47,86.56,73.64,85.82,75.34z"/>
		<path class="st10" d="M66.79,137.73c-11.18,0-22.35,0.02-33.53-0.04c-0.93-0.01-2.59,0.86-2.72-0.92
			c-0.11-1.43-0.13-2.85,1.82-3.87c4.49-2.33,9.07-1.09,13.61-1c1.97,0.04,3.2-0.17,3.47-2.37c0.33-2.66-1.88-1.56-2.97-2.06
			c-0.6-0.28-1.31-0.29-1.98-0.42c-2.93-0.57-4.71-1.76-4.52-5.33c0.28-5.29,0.1-10.61-0.12-15.9c-0.11-2.65,1.11-3.8,3.41-4.54
			c9.2-2.97,18.45-2.73,27.71-0.51c6.58,1.58,12.83,4.14,18.93,7.09c1.63,0.79,2.4,1.71,2.42,3.56c0.03,3.04,0.23,6.09,0.54,9.12
			c0.36,3.51,0.26,6.72-3.46,8.59c-1.54,0.78-1.27,2.22-0.96,3.56c0.39,1.67,1.77,1.02,2.78,1.06c3.14,0.12,6.31-0.44,9.39,0.69
			c1.24,0.45,2.83,0.46,2.6,2.4c-0.24,2.09-1.91,1.09-2.88,1.1c-11.18,0.08-22.35,0.05-33.53,0.05
			C66.79,137.9,66.79,137.81,66.79,137.73z"/>
		<path class="st10" d="M67.97,91.74C56.31,91.48,44.87,90.1,34,85.4c-2.79-1.21-3.11-2.56-1.98-5.13c1.93-4.41,1.77-4.28,6.17-3.1
			c17.42,4.68,35.02,6.25,52.81,2.27c5.4-1.21,5.19-1.35,6.84,3.99c0.78,2.53,0.34,3.48-2.23,4.19
			C86.55,90.1,77.42,91.91,67.97,91.74z"/>
	</g>
</g>
</svg>
